<svg width="600" height="600" viewBox="0 0 600 600" fill="none" xmlns="http://www.w3.org/2000/svg">
<rect width="600" height="600" fill="#E3DDE4"/>
<path d="M452.71 235.76H451.75L450.69 231.94V238.26H449.74V231.01H451.23L452.23 234.72L453.23 231.01H454.72V238.26H453.77V231.94L452.71 235.76ZM458.115 234.84C457.155 234.63 456.285 234.03 456.285 232.87C456.285 231.62 457.365 230.88 458.665 230.88C459.785 230.88 460.915 231.48 461.075 232.92H460.135C460.025 232.05 459.275 231.76 458.615 231.76C457.955 231.76 457.265 232.09 457.265 232.84C457.265 233.48 457.725 233.79 458.315 233.92L459.035 234.08C460.195 234.34 461.225 234.84 461.225 236.23C461.225 237.58 460.175 238.39 458.775 238.39C457.295 238.39 456.235 237.44 456.155 236H457.095C457.205 236.97 457.875 237.51 458.805 237.51C459.525 237.51 460.265 237.14 460.265 236.3C460.265 235.54 459.705 235.22 458.905 235.03L458.115 234.84ZM465.18 231.76C464.02 231.76 463.43 232.75 463.43 234.62C463.43 236.41 463.98 237.51 465.18 237.51C466.06 237.51 466.87 237.12 466.87 235.63V235.4H465.2V234.5H467.74V238.26H467.02L466.98 237.35C466.55 238.1 466.02 238.39 465.14 238.39C463.26 238.39 462.45 236.82 462.45 234.62C462.45 232.38 463.39 230.88 465.23 230.88C466.59 230.88 467.49 231.77 467.72 233.25H466.74C466.61 232.41 466.23 231.76 465.18 231.76ZM477.119 231.01L479.969 238.26H479.059L476.209 231.01H477.119ZM484.554 230.88C486.364 230.88 487.264 232.44 487.264 234.63C487.264 236.82 486.364 238.39 484.554 238.39C482.744 238.39 481.844 236.82 481.844 234.63C481.844 232.44 482.744 230.88 484.554 230.88ZM484.554 231.76C483.354 231.76 482.824 232.79 482.824 234.63C482.824 236.47 483.354 237.51 484.554 237.51C485.754 237.51 486.284 236.46 486.284 234.63C486.284 232.8 485.754 231.76 484.554 231.76Z" fill="#29292D"/>
<path d="M461.765 202.143H453.603C452.729 202.143 452 202.871 452 203.746V217.591C452 218.174 452 220.214 452 221.818C452 222.401 452.729 222.838 453.312 222.401L456.955 219.486C457.101 219.34 457.392 219.194 457.684 219.194H472.987C473.861 219.194 474.59 218.466 474.59 217.591V212.053" stroke="#333333" stroke-width="2.16529" stroke-miterlimit="10"/>
<path d="M483.041 215.112L479.398 212.197C479.252 212.052 478.961 211.906 478.669 211.906H463.366C462.492 211.906 461.763 211.177 461.763 210.303V196.603C461.763 195.729 462.492 195 463.366 195H482.604C483.479 195 484.207 195.729 484.207 196.603V210.449C484.207 211.031 484.207 213.072 484.207 214.675C484.207 215.258 483.479 215.549 483.041 215.112Z" stroke="#333333" stroke-width="2.16529" stroke-miterlimit="10"/>
<path d="M335.71 236.5H334.75L333.69 232.68V239H332.74V231.75H334.23L335.23 235.46L336.23 231.75H337.72V239H336.77V232.68L335.71 236.5ZM341.115 235.58C340.155 235.37 339.285 234.77 339.285 233.61C339.285 232.36 340.365 231.62 341.665 231.62C342.785 231.62 343.915 232.22 344.075 233.66H343.135C343.025 232.79 342.275 232.5 341.615 232.5C340.955 232.5 340.265 232.83 340.265 233.58C340.265 234.22 340.725 234.53 341.315 234.66L342.035 234.82C343.195 235.08 344.225 235.58 344.225 236.97C344.225 238.32 343.175 239.13 341.775 239.13C340.295 239.13 339.235 238.18 339.155 236.74H340.095C340.205 237.71 340.875 238.25 341.805 238.25C342.525 238.25 343.265 237.88 343.265 237.04C343.265 236.28 342.705 235.96 341.905 235.77L341.115 235.58ZM348.18 232.5C347.02 232.5 346.43 233.49 346.43 235.36C346.43 237.15 346.98 238.25 348.18 238.25C349.06 238.25 349.87 237.86 349.87 236.37V236.14H348.2V235.24H350.74V239H350.02L349.98 238.09C349.55 238.84 349.02 239.13 348.14 239.13C346.26 239.13 345.45 237.56 345.45 235.36C345.45 233.12 346.39 231.62 348.23 231.62C349.59 231.62 350.49 232.51 350.72 233.99H349.74C349.61 233.15 349.23 232.5 348.18 232.5ZM360.119 231.75L362.969 239H362.059L359.209 231.75H360.119ZM365.624 239V231.75H370.084V232.65H366.574V234.81H369.894V235.71H366.574V239H365.624Z" fill="#29292D"/>
<path d="M345.765 202.143H337.603C336.729 202.143 336 202.871 336 203.746V217.591C336 218.174 336 220.214 336 221.818C336 222.401 336.729 222.838 337.312 222.401L340.955 219.486C341.101 219.34 341.392 219.194 341.684 219.194H356.987C357.861 219.194 358.59 218.466 358.59 217.591V212.053" fill="#333333"/>
<path d="M345.765 202.143H337.603C336.729 202.143 336 202.871 336 203.746V217.591C336 218.174 336 220.214 336 221.818C336 222.401 336.729 222.838 337.312 222.401L340.955 219.486C341.101 219.34 341.392 219.194 341.684 219.194H356.987C357.861 219.194 358.59 218.466 358.59 217.591V212.053" stroke="#333333" stroke-width="2.16529" stroke-miterlimit="10"/>
<path d="M367.041 215.112L363.398 212.197C363.252 212.052 362.961 211.906 362.669 211.906H347.366C346.492 211.906 345.763 211.177 345.763 210.303V196.603C345.763 195.729 346.492 195 347.366 195H366.604C367.479 195 368.207 195.729 368.207 196.603V210.449C368.207 211.031 368.207 213.072 368.207 214.675C368.207 215.258 367.479 215.549 367.041 215.112Z" fill="#333333" stroke="#333333" stroke-width="2.16529" stroke-miterlimit="10"/>
<path d="M366.604 193.917C368.076 193.917 369.29 195.131 369.29 196.604V214.675C369.29 216.284 367.408 216.902 366.343 215.94L362.721 213.043L362.674 213.005L362.662 212.992C362.657 212.99 362.653 212.989 362.65 212.988H347.367C345.894 212.988 344.68 211.775 344.68 210.303V196.604C344.68 195.131 345.894 193.917 347.367 193.917H366.604Z" stroke="#E3DDE4" stroke-width="2.16529" stroke-miterlimit="10"/>
<path d="M451.71 396.5H450.75L449.69 392.68V399H448.74V391.75H450.23L451.23 395.46L452.23 391.75H453.72V399H452.77V392.68L451.71 396.5ZM457.695 391.62C459.505 391.62 460.405 393.18 460.405 395.37C460.405 397.56 459.505 399.13 457.695 399.13C455.885 399.13 454.985 397.56 454.985 395.37C454.985 393.18 455.885 391.62 457.695 391.62ZM457.695 392.5C456.495 392.5 455.965 393.53 455.965 395.37C455.965 397.21 456.495 398.25 457.695 398.25C458.895 398.25 459.425 397.2 459.425 395.37C459.425 393.54 458.895 392.5 457.695 392.5ZM465.74 399L464.32 395.94C464.15 395.95 463.98 395.95 463.79 395.95H462.97V399H462.02V391.75H463.79C465.37 391.75 466.59 392.09 466.59 393.82C466.59 394.95 466.08 395.51 465.28 395.76L466.82 399H465.74ZM463.9 392.65H462.97V395.05H463.9C464.86 395.05 465.61 394.96 465.61 393.84C465.61 392.72 464.86 392.65 463.9 392.65ZM468.515 399V391.75H472.835V392.65H469.465V394.81H472.635V395.71H469.465V398.1H472.835V399H468.515ZM482.584 391.75L485.434 399H484.524L481.674 391.75H482.584ZM490.019 391.62C491.829 391.62 492.729 393.18 492.729 395.37C492.729 397.56 491.829 399.13 490.019 399.13C488.209 399.13 487.309 397.56 487.309 395.37C487.309 393.18 488.209 391.62 490.019 391.62ZM490.019 392.5C488.819 392.5 488.289 393.53 488.289 395.37C488.289 397.21 488.819 398.25 490.019 398.25C491.219 398.25 491.749 397.2 491.749 395.37C491.749 393.54 491.219 392.5 490.019 392.5Z" fill="#29292D"/>
<path d="M483.692 384.983H453.509C452.604 384.983 452 384.383 452 383.482V360.502C452 359.601 452.604 359 453.509 359H483.692C484.597 359 485.201 359.601 485.201 360.502V383.482C485.201 384.233 484.447 384.983 483.692 384.983Z" stroke="#333333" stroke-width="2.16529" stroke-miterlimit="10"/>
<path d="M460.903 374.152C462.053 374.152 462.986 373.219 462.986 372.069C462.986 370.919 462.053 369.986 460.903 369.986C459.753 369.986 458.82 370.919 458.82 372.069C458.82 373.219 459.753 374.152 460.903 374.152Z" fill="#333333"/>
<path d="M468.457 374.152C469.607 374.152 470.54 373.219 470.54 372.069C470.54 370.919 469.607 369.986 468.457 369.986C467.307 369.986 466.374 370.919 466.374 372.069C466.374 373.219 467.307 374.152 468.457 374.152Z" fill="#333333"/>
<path d="M476.011 374.152C477.162 374.152 478.094 373.219 478.094 372.069C478.094 370.919 477.162 369.986 476.011 369.986C474.861 369.986 473.929 370.919 473.929 372.069C473.929 373.219 474.861 374.152 476.011 374.152Z" fill="#333333"/>
<path d="M335.71 396.5H334.75L333.69 392.68V399H332.74V391.75H334.23L335.23 395.46L336.23 391.75H337.72V399H336.77V392.68L335.71 396.5ZM341.695 391.62C343.505 391.62 344.405 393.18 344.405 395.37C344.405 397.56 343.505 399.13 341.695 399.13C339.885 399.13 338.985 397.56 338.985 395.37C338.985 393.18 339.885 391.62 341.695 391.62ZM341.695 392.5C340.495 392.5 339.965 393.53 339.965 395.37C339.965 397.21 340.495 398.25 341.695 398.25C342.895 398.25 343.425 397.2 343.425 395.37C343.425 393.54 342.895 392.5 341.695 392.5ZM349.74 399L348.32 395.94C348.15 395.95 347.98 395.95 347.79 395.95H346.97V399H346.02V391.75H347.79C349.37 391.75 350.59 392.09 350.59 393.82C350.59 394.95 350.08 395.51 349.28 395.76L350.82 399H349.74ZM347.9 392.65H346.97V395.05H347.9C348.86 395.05 349.61 394.96 349.61 393.84C349.61 392.72 348.86 392.65 347.9 392.65ZM352.515 399V391.75H356.835V392.65H353.465V394.81H356.635V395.71H353.465V398.1H356.835V399H352.515ZM366.584 391.75L369.434 399H368.524L365.674 391.75H366.584ZM372.089 399V391.75H376.549V392.65H373.039V394.81H376.359V395.71H373.039V399H372.089Z" fill="#29292D"/>
<path d="M367.692 384.983H337.509C336.604 384.983 336 384.383 336 383.482V360.502C336 359.601 336.604 359 337.509 359H367.692C368.597 359 369.201 359.601 369.201 360.502V383.482C369.201 384.233 368.447 384.983 367.692 384.983Z" fill="#333333" stroke="#333333" stroke-width="0.721763" stroke-miterlimit="10"/>
<path d="M344.904 374.152C346.054 374.152 346.986 373.219 346.986 372.069C346.986 370.919 346.054 369.986 344.904 369.986C343.753 369.986 342.821 370.919 342.821 372.069C342.821 373.219 343.753 374.152 344.904 374.152Z" fill="#E3DDE4"/>
<path d="M352.457 374.152C353.608 374.152 354.54 373.219 354.54 372.069C354.54 370.919 353.608 369.986 352.457 369.986C351.307 369.986 350.375 370.919 350.375 372.069C350.375 373.219 351.307 374.152 352.457 374.152Z" fill="#E3DDE4"/>
<path d="M360.012 374.152C361.162 374.152 362.095 373.219 362.095 372.069C362.095 370.919 361.162 369.986 360.012 369.986C358.862 369.986 357.929 370.919 357.929 372.069C357.929 373.219 358.862 374.152 360.012 374.152Z" fill="#E3DDE4"/>
<path d="M219.74 311.75L222.12 319H221.1L220.61 317.45H217.84L217.36 319H216.34L218.72 311.75H219.74ZM219.23 313.02L218.12 316.56H220.33L219.23 313.02ZM224.665 311.75V318.1H228.225V319H223.715V311.75H224.665ZM230.05 319V311.75H234.37V312.65H231V314.81H234.17V315.71H231V318.1H234.37V319H230.05ZM240.205 319L238.785 315.94C238.615 315.95 238.445 315.95 238.255 315.95H237.435V319H236.485V311.75H238.255C239.835 311.75 241.055 312.09 241.055 313.82C241.055 314.95 240.545 315.51 239.745 315.76L241.285 319H240.205ZM238.365 312.65H237.435V315.05H238.365C239.325 315.05 240.075 314.96 240.075 313.84C240.075 312.72 239.325 312.65 238.365 312.65ZM244.609 319V312.65H242.429V311.75H247.739V312.65H245.559V319H244.609ZM257.049 311.75L259.899 319H258.989L256.139 311.75H257.049ZM264.484 311.62C266.294 311.62 267.194 313.18 267.194 315.37C267.194 317.56 266.294 319.13 264.484 319.13C262.674 319.13 261.774 317.56 261.774 315.37C261.774 313.18 262.674 311.62 264.484 311.62ZM264.484 312.5C263.284 312.5 262.754 313.53 262.754 315.37C262.754 317.21 263.284 318.25 264.484 318.25C265.684 318.25 266.214 317.2 266.214 315.37C266.214 313.54 265.684 312.5 264.484 312.5Z" fill="#29292D"/>
<path d="M240.554 274.486C245.113 274.486 251.647 277.974 251.647 289.043C251.647 294.653 252.559 298.596 254.686 301.173C255.142 301.628 254.838 302.386 254.078 302.386H240.403H226.727C226.119 302.386 225.815 301.628 226.119 301.173C228.247 298.747 229.158 294.653 229.158 289.043C229.462 277.974 235.996 274.486 240.554 274.486Z" stroke="#333333" stroke-width="2.16529" stroke-miterlimit="10"/>
<path d="M242.074 273.578H238.883V272.365C238.883 271.607 239.491 271 240.251 271H240.707C241.466 271 242.074 271.607 242.074 272.365V273.578Z" fill="#333333"/>
<path d="M237.972 305.117C238.276 306.179 239.339 307.088 240.555 307.088C241.771 307.088 242.834 306.33 243.138 305.117H237.972Z" fill="#333333"/>
<path d="M104.74 314.75L107.12 322H106.1L105.61 320.45H102.84L102.36 322H101.34L103.72 314.75H104.74ZM104.23 316.02L103.12 319.56H105.33L104.23 316.02ZM109.665 314.75V321.1H113.225V322H108.715V314.75H109.665ZM115.05 322V314.75H119.37V315.65H116V317.81H119.17V318.71H116V321.1H119.37V322H115.05ZM125.205 322L123.785 318.94C123.615 318.95 123.445 318.95 123.255 318.95H122.435V322H121.485V314.75H123.255C124.835 314.75 126.055 315.09 126.055 316.82C126.055 317.95 125.545 318.51 124.745 318.76L126.285 322H125.205ZM123.365 315.65H122.435V318.05H123.365C124.325 318.05 125.075 317.96 125.075 316.84C125.075 315.72 124.325 315.65 123.365 315.65ZM129.609 322V315.65H127.429V314.75H132.739V315.65H130.559V322H129.609ZM142.049 314.75L144.899 322H143.989L141.139 314.75H142.049ZM147.554 322V314.75H152.014V315.65H148.504V317.81H151.824V318.71H148.504V322H147.554Z" fill="#29292D"/>
<path d="M126.554 275.486C131.113 275.486 137.647 278.974 137.647 290.043C137.647 295.653 138.559 299.596 140.686 302.173C141.142 302.628 140.838 303.386 140.078 303.386H126.403H112.727C112.119 303.386 111.815 302.628 112.119 302.173C114.247 299.747 115.158 295.653 115.158 290.043C115.462 278.974 121.996 275.486 126.554 275.486Z" fill="#333333" stroke="#333333" stroke-width="2.16529" stroke-miterlimit="10"/>
<path d="M128.074 274.578H124.883V273.365C124.883 272.607 125.491 272 126.251 272H126.707C127.466 272 128.074 272.607 128.074 273.365V274.578Z" fill="#333333"/>
<path d="M123.972 306.117C124.276 307.179 125.339 308.088 126.555 308.088C127.771 308.088 128.834 307.33 129.138 306.117H123.972Z" fill="#333333"/>
<path d="M449.79 150.75H450.74V155.16C450.74 156.58 450.99 157.25 452.22 157.25C453.46 157.25 453.72 156.48 453.72 155.05V150.75H454.67V154.97C454.67 157.09 454.11 158.13 452.22 158.13C450.41 158.13 449.79 157.31 449.79 155.05V150.75ZM458.115 154.58C457.155 154.37 456.285 153.77 456.285 152.61C456.285 151.36 457.365 150.62 458.665 150.62C459.785 150.62 460.915 151.22 461.075 152.66H460.135C460.025 151.79 459.275 151.5 458.615 151.5C457.955 151.5 457.265 151.83 457.265 152.58C457.265 153.22 457.725 153.53 458.315 153.66L459.035 153.82C460.195 154.08 461.225 154.58 461.225 155.97C461.225 157.32 460.175 158.13 458.775 158.13C457.295 158.13 456.235 157.18 456.155 155.74H457.095C457.205 156.71 457.875 157.25 458.805 157.25C459.525 157.25 460.265 156.88 460.265 156.04C460.265 155.28 459.705 154.96 458.905 154.77L458.115 154.58ZM463.05 158V150.75H467.37V151.65H464V153.81H467.17V154.71H464V157.1H467.37V158H463.05ZM473.205 158L471.785 154.94C471.615 154.95 471.445 154.95 471.255 154.95H470.435V158H469.485V150.75H471.255C472.835 150.75 474.055 151.09 474.055 152.82C474.055 153.95 473.545 154.51 472.745 154.76L474.285 158H473.205ZM471.365 151.65H470.435V154.05H471.365C472.325 154.05 473.075 153.96 473.075 152.84C473.075 151.72 472.325 151.65 471.365 151.65ZM483.584 150.75L486.434 158H485.524L482.674 150.75H483.584ZM491.019 150.62C492.829 150.62 493.729 152.18 493.729 154.37C493.729 156.56 492.829 158.13 491.019 158.13C489.209 158.13 488.309 156.56 488.309 154.37C488.309 152.18 489.209 150.62 491.019 150.62ZM491.019 151.5C489.819 151.5 489.289 152.53 489.289 154.37C489.289 156.21 489.819 157.25 491.019 157.25C492.219 157.25 492.749 156.2 492.749 154.37C492.749 152.54 492.219 151.5 491.019 151.5Z" fill="#29292D"/>
<path d="M467.879 143.758C476.648 143.758 483.758 136.648 483.758 127.879C483.758 119.109 476.648 112 467.879 112C459.109 112 452 119.109 452 127.879C452 136.648 459.109 143.758 467.879 143.758Z" stroke="#333333" stroke-width="2.16529" stroke-miterlimit="10"/>
<path d="M456.807 138.366C459.138 134.725 463.217 132.248 467.879 132.248C472.54 132.248 476.619 134.725 478.95 138.366" stroke="#333333" stroke-width="2.16529" stroke-miterlimit="10"/>
<path d="M467.878 128.022C470.372 128.022 472.394 126 472.394 123.506C472.394 121.012 470.372 118.99 467.878 118.99C465.384 118.99 463.362 121.012 463.362 123.506C463.362 126 465.384 128.022 467.878 128.022Z" stroke="#333333" stroke-width="2.16529" stroke-miterlimit="10"/>
<path d="M329.79 150.75H330.74V155.16C330.74 156.58 330.99 157.25 332.22 157.25C333.46 157.25 333.72 156.48 333.72 155.05V150.75H334.67V154.97C334.67 157.09 334.11 158.13 332.22 158.13C330.41 158.13 329.79 157.31 329.79 155.05V150.75ZM338.115 154.58C337.155 154.37 336.285 153.77 336.285 152.61C336.285 151.36 337.365 150.62 338.665 150.62C339.785 150.62 340.915 151.22 341.075 152.66H340.135C340.025 151.79 339.275 151.5 338.615 151.5C337.955 151.5 337.265 151.83 337.265 152.58C337.265 153.22 337.725 153.53 338.315 153.66L339.035 153.82C340.195 154.08 341.225 154.58 341.225 155.97C341.225 157.32 340.175 158.13 338.775 158.13C337.295 158.13 336.235 157.18 336.155 155.74H337.095C337.205 156.71 337.875 157.25 338.805 157.25C339.525 157.25 340.265 156.88 340.265 156.04C340.265 155.28 339.705 154.96 338.905 154.77L338.115 154.58ZM343.05 158V150.75H347.37V151.65H344V153.81H347.17V154.71H344V157.1H347.37V158H343.05ZM353.205 158L351.785 154.94C351.615 154.95 351.445 154.95 351.255 154.95H350.435V158H349.485V150.75H351.255C352.835 150.75 354.055 151.09 354.055 152.82C354.055 153.95 353.545 154.51 352.745 154.76L354.285 158H353.205ZM351.365 151.65H350.435V154.05H351.365C352.325 154.05 353.075 153.96 353.075 152.84C353.075 151.72 352.325 151.65 351.365 151.65ZM363.584 150.75L366.434 158H365.524L362.674 150.75H363.584ZM369.089 158V150.75H373.549V151.65H370.039V153.81H373.359V154.71H370.039V158H369.089Z" fill="#29292D"/>
<path d="M351.879 113.083C360.051 113.083 366.675 119.707 366.675 127.879C366.675 136.05 360.05 142.675 351.879 142.675C343.707 142.675 337.083 136.051 337.083 127.879C337.083 119.707 343.707 113.083 351.879 113.083Z" fill="#333333" stroke="#333333" stroke-width="2.16529" stroke-miterlimit="10"/>
<path d="M340.807 138.366C343.138 134.725 347.217 132.248 351.878 132.248C356.54 132.248 360.619 134.725 362.95 138.366" stroke="#E3DDE4" stroke-width="2.16529" stroke-miterlimit="10"/>
<path d="M351.879 113.083C360.051 113.083 366.675 119.707 366.675 127.879C366.675 136.05 360.05 142.675 351.879 142.675C343.707 142.675 337.083 136.051 337.083 127.879C337.083 119.707 343.707 113.083 351.879 113.083Z" stroke="#333333" stroke-width="2.16529" stroke-miterlimit="10"/>
<path d="M351.878 128.022C354.372 128.022 356.394 126 356.394 123.506C356.394 121.012 354.372 118.99 351.878 118.99C349.384 118.99 347.362 121.012 347.362 123.506C347.362 126 349.384 128.022 351.878 128.022Z" stroke="#E3DDE4" stroke-width="2.16529" stroke-miterlimit="10"/>
<path d="M449.25 477.5C448.09 477.5 447.5 478.49 447.5 480.36C447.5 482.15 448.05 483.25 449.25 483.25C450.13 483.25 450.94 482.86 450.94 481.37V481.14H449.27V480.24H451.81V484H451.09L451.05 483.09C450.62 483.84 450.09 484.13 449.21 484.13C447.33 484.13 446.52 482.56 446.52 480.36C446.52 478.12 447.46 476.62 449.3 476.62C450.66 476.62 451.56 477.51 451.79 478.99H450.81C450.68 478.15 450.3 477.5 449.25 477.5ZM457.275 484L455.855 480.94C455.685 480.95 455.515 480.95 455.325 480.95H454.505V484H453.555V476.75H455.325C456.905 476.75 458.125 477.09 458.125 478.82C458.125 479.95 457.615 480.51 456.815 480.76L458.355 484H457.275ZM455.435 477.65H454.505V480.05H455.435C456.395 480.05 457.145 479.96 457.145 478.84C457.145 477.72 456.395 477.65 455.435 477.65ZM464.5 484H463.08L460.76 477.81V484H459.81V476.75H461.23L463.55 482.92V476.75H464.5V484ZM468.385 475.78H468.935V476.64C469.945 476.75 470.895 477.38 471.025 478.65H470.085C470.005 477.83 469.475 477.53 468.935 477.42V479.83L468.985 479.84C469.935 480.08 471.095 480.52 471.095 481.96C471.095 483.29 470.165 484.04 468.935 484.12V484.97H468.385V484.11C467.065 484 466.125 483.05 466.095 481.7H467.035C467.105 482.67 467.585 483.21 468.385 483.33V480.65L468.055 480.56C467.205 480.35 466.305 479.71 466.305 478.59C466.305 477.31 467.345 476.71 468.385 476.63V475.78ZM470.165 482.05C470.165 481.33 469.655 480.98 468.935 480.79V483.34C469.725 483.26 470.165 482.72 470.165 482.05ZM467.245 478.52C467.245 479.16 467.675 479.51 468.265 479.66L468.385 479.69V477.4C467.905 477.45 467.245 477.69 467.245 478.52ZM480.584 476.75L483.434 484H482.524L479.674 476.75H480.584ZM488.019 476.62C489.829 476.62 490.729 478.18 490.729 480.37C490.729 482.56 489.829 484.13 488.019 484.13C486.209 484.13 485.309 482.56 485.309 480.37C485.309 478.18 486.209 476.62 488.019 476.62ZM488.019 477.5C486.819 477.5 486.289 478.53 486.289 480.37C486.289 482.21 486.819 483.25 488.019 483.25C489.219 483.25 489.749 482.2 489.749 480.37C489.749 478.54 489.219 477.5 488.019 477.5Z" fill="#29292D"/>
<path d="M483.692 467.983H453.509C452.604 467.983 452 467.383 452 466.482V443.502C452 442.601 452.604 442 453.509 442H483.692C484.597 442 485.201 442.601 485.201 443.502V466.482C485.201 467.233 484.447 467.983 483.692 467.983Z" stroke="#333333" stroke-width="2.16529" stroke-miterlimit="10"/>
<rect x="462.105" y="461.486" width="5.7741" height="2.16529" rx="1.08264" fill="#333333"/>
<rect x="469.323" y="461.486" width="5.7741" height="2.16529" rx="1.08264" fill="#333333"/>
<rect x="476.54" y="461.486" width="5.7741" height="2.16529" rx="1.08264" fill="#333333"/>
<path d="M460.156 451.709C460.156 452.234 460.004 452.655 459.701 452.972C459.398 453.288 459.031 453.497 458.6 453.598V454.245C458.6 454.481 458.576 454.646 458.529 454.74C458.488 454.834 458.424 454.898 458.337 454.932C458.256 454.966 458.145 454.983 458.003 454.983C457.862 454.983 457.747 454.966 457.66 454.932C457.579 454.898 457.522 454.838 457.488 454.75C457.441 454.636 457.417 454.464 457.417 454.235V453.608C457.141 453.548 456.892 453.447 456.67 453.305C456.447 453.164 456.292 453.039 456.205 452.931L456.073 452.76C455.932 452.578 455.861 452.419 455.861 452.285C455.861 452.15 455.976 451.971 456.205 451.749C456.34 451.621 456.481 451.557 456.629 451.557C456.784 451.557 456.996 451.692 457.266 451.961C457.475 452.217 457.71 452.345 457.973 452.345C458.472 452.345 458.721 452.14 458.721 451.729C458.721 451.581 458.627 451.466 458.438 451.385C458.249 451.304 458.02 451.234 457.751 451.173C457.481 451.106 457.212 451.018 456.942 450.91C456.673 450.803 456.444 450.617 456.255 450.355C456.067 450.092 455.972 449.758 455.972 449.354C455.972 448.95 456.1 448.586 456.356 448.263C456.612 447.94 456.966 447.731 457.417 447.636V447.071C457.417 446.842 457.438 446.676 457.478 446.575C457.545 446.414 457.724 446.333 458.014 446.333C458.195 446.333 458.33 446.373 458.418 446.454C458.512 446.528 458.566 446.609 458.579 446.697C458.593 446.784 458.6 446.912 458.6 447.081V447.647C458.788 447.687 458.96 447.744 459.115 447.818C459.27 447.892 459.378 447.953 459.438 448L459.529 448.081L459.57 448.111C459.738 448.266 459.822 448.394 459.822 448.495C459.822 448.596 459.741 448.765 459.58 449.001C459.425 449.236 459.253 449.354 459.064 449.354C458.943 449.354 458.839 449.324 458.751 449.263C458.67 449.203 458.606 449.152 458.559 449.112C458.512 449.071 458.468 449.038 458.428 449.011C458.313 448.937 458.168 448.9 457.993 448.9C457.818 448.9 457.673 448.943 457.559 449.031C457.444 449.112 457.387 449.226 457.387 449.374C457.387 449.523 457.454 449.644 457.589 449.738C457.731 449.826 457.902 449.886 458.104 449.92C458.307 449.947 458.529 449.998 458.771 450.072C459.014 450.139 459.236 450.22 459.438 450.314C459.64 450.408 459.809 450.577 459.944 450.819C460.085 451.055 460.156 451.352 460.156 451.709Z" fill="#333333"/>
<path d="M336.25 477.5C335.09 477.5 334.5 478.49 334.5 480.36C334.5 482.15 335.05 483.25 336.25 483.25C337.13 483.25 337.94 482.86 337.94 481.37V481.14H336.27V480.24H338.81V484H338.09L338.05 483.09C337.62 483.84 337.09 484.13 336.21 484.13C334.33 484.13 333.52 482.56 333.52 480.36C333.52 478.12 334.46 476.62 336.3 476.62C337.66 476.62 338.56 477.51 338.79 478.99H337.81C337.68 478.15 337.3 477.5 336.25 477.5ZM344.275 484L342.855 480.94C342.685 480.95 342.515 480.95 342.325 480.95H341.505V484H340.555V476.75H342.325C343.905 476.75 345.125 477.09 345.125 478.82C345.125 479.95 344.615 480.51 343.815 480.76L345.355 484H344.275ZM342.435 477.65H341.505V480.05H342.435C343.395 480.05 344.145 479.96 344.145 478.84C344.145 477.72 343.395 477.65 342.435 477.65ZM351.5 484H350.08L347.76 477.81V484H346.81V476.75H348.23L350.55 482.92V476.75H351.5V484ZM355.385 475.78H355.935V476.64C356.945 476.75 357.895 477.38 358.025 478.65H357.085C357.005 477.83 356.475 477.53 355.935 477.42V479.83L355.985 479.84C356.935 480.08 358.095 480.52 358.095 481.96C358.095 483.29 357.165 484.04 355.935 484.12V484.97H355.385V484.11C354.065 484 353.125 483.05 353.095 481.7H354.035C354.105 482.67 354.585 483.21 355.385 483.33V480.65L355.055 480.56C354.205 480.35 353.305 479.71 353.305 478.59C353.305 477.31 354.345 476.71 355.385 476.63V475.78ZM357.165 482.05C357.165 481.33 356.655 480.98 355.935 480.79V483.34C356.725 483.26 357.165 482.72 357.165 482.05ZM354.245 478.52C354.245 479.16 354.675 479.51 355.265 479.66L355.385 479.69V477.4C354.905 477.45 354.245 477.69 354.245 478.52ZM367.584 476.75L370.434 484H369.524L366.674 476.75H367.584ZM373.089 484V476.75H377.549V477.65H374.039V479.81H377.359V480.71H374.039V484H373.089Z" fill="#29292D"/>
<path d="M369.692 469.983H339.509C338.604 469.983 338 469.383 338 468.482V445.502C338 444.601 338.604 444 339.509 444H369.692C370.597 444 371.201 444.601 371.201 445.502V468.482C371.201 469.233 370.447 469.983 369.692 469.983Z" fill="#333333" stroke="#333333" stroke-width="2.16529" stroke-miterlimit="10"/>
<rect x="348.104" y="463.486" width="5.7741" height="2.16529" rx="1.08264" fill="#E3DDE4"/>
<rect x="355.322" y="463.486" width="5.7741" height="2.16529" rx="1.08264" fill="#E3DDE4"/>
<rect x="362.54" y="463.486" width="5.7741" height="2.16529" rx="1.08264" fill="#E3DDE4"/>
<path d="M346.156 453.709C346.156 454.234 346.004 454.655 345.701 454.972C345.398 455.288 345.031 455.497 344.6 455.598V456.245C344.6 456.481 344.576 456.646 344.529 456.74C344.489 456.834 344.425 456.898 344.337 456.932C344.256 456.966 344.145 456.983 344.004 456.983C343.862 456.983 343.748 456.966 343.66 456.932C343.579 456.898 343.522 456.838 343.488 456.75C343.441 456.636 343.418 456.464 343.418 456.235V455.608C343.141 455.548 342.892 455.447 342.67 455.305C342.448 455.164 342.293 455.039 342.205 454.931L342.074 454.76C341.932 454.578 341.862 454.419 341.862 454.285C341.862 454.15 341.976 453.971 342.205 453.749C342.34 453.621 342.481 453.557 342.629 453.557C342.784 453.557 342.997 453.692 343.266 453.961C343.475 454.217 343.711 454.345 343.973 454.345C344.472 454.345 344.721 454.14 344.721 453.729C344.721 453.581 344.627 453.466 344.438 453.385C344.25 453.304 344.021 453.234 343.751 453.173C343.482 453.106 343.212 453.018 342.943 452.91C342.673 452.803 342.444 452.617 342.256 452.355C342.067 452.092 341.973 451.758 341.973 451.354C341.973 450.95 342.101 450.586 342.357 450.263C342.613 449.94 342.966 449.731 343.418 449.636V449.071C343.418 448.842 343.438 448.676 343.478 448.575C343.546 448.414 343.724 448.333 344.014 448.333C344.196 448.333 344.33 448.373 344.418 448.454C344.512 448.528 344.566 448.609 344.58 448.697C344.593 448.784 344.6 448.912 344.6 449.081V449.647C344.788 449.687 344.96 449.744 345.115 449.818C345.27 449.892 345.378 449.953 345.439 450L345.53 450.081L345.57 450.111C345.738 450.266 345.823 450.394 345.823 450.495C345.823 450.596 345.742 450.765 345.58 451.001C345.425 451.236 345.253 451.354 345.065 451.354C344.943 451.354 344.839 451.324 344.751 451.263C344.671 451.203 344.607 451.152 344.559 451.112C344.512 451.071 344.469 451.038 344.428 451.011C344.314 450.937 344.169 450.9 343.994 450.9C343.818 450.9 343.674 450.943 343.559 451.031C343.445 451.112 343.387 451.226 343.387 451.374C343.387 451.523 343.455 451.644 343.589 451.738C343.731 451.826 343.903 451.886 344.105 451.92C344.307 451.947 344.529 451.998 344.772 452.072C345.014 452.139 345.236 452.22 345.439 452.314C345.641 452.408 345.809 452.577 345.944 452.819C346.085 453.055 346.156 453.352 346.156 453.709Z" fill="#E3DDE4"/>
<path d="M452.25 311.5C451.09 311.5 450.5 312.49 450.5 314.36C450.5 316.15 451.05 317.25 452.25 317.25C453.13 317.25 453.94 316.86 453.94 315.37V315.14H452.27V314.24H454.81V318H454.09L454.05 317.09C453.62 317.84 453.09 318.13 452.21 318.13C450.33 318.13 449.52 316.56 449.52 314.36C449.52 312.12 450.46 310.62 452.3 310.62C453.66 310.62 454.56 311.51 454.79 312.99H453.81C453.68 312.15 453.3 311.5 452.25 311.5ZM456.675 310.75H458.455C460.045 310.75 461.265 311.18 461.265 312.98C461.265 314.78 460.045 315.21 458.455 315.21H457.625V318H456.675V310.75ZM458.575 311.65H457.625V314.31H458.575C459.545 314.31 460.285 314.16 460.285 312.98C460.285 311.8 459.545 311.65 458.575 311.65ZM464.58 314.58C463.62 314.37 462.75 313.77 462.75 312.61C462.75 311.36 463.83 310.62 465.13 310.62C466.25 310.62 467.38 311.22 467.54 312.66H466.6C466.49 311.79 465.74 311.5 465.08 311.5C464.42 311.5 463.73 311.83 463.73 312.58C463.73 313.22 464.19 313.53 464.78 313.66L465.5 313.82C466.66 314.08 467.69 314.58 467.69 315.97C467.69 317.32 466.64 318.13 465.24 318.13C463.76 318.13 462.7 317.18 462.62 315.74H463.56C463.67 316.71 464.34 317.25 465.27 317.25C465.99 317.25 466.73 316.88 466.73 316.04C466.73 315.28 466.17 314.96 465.37 314.77L464.58 314.58ZM477.119 310.75L479.969 318H479.059L476.209 310.75H477.119ZM484.554 310.62C486.364 310.62 487.264 312.18 487.264 314.37C487.264 316.56 486.364 318.13 484.554 318.13C482.744 318.13 481.844 316.56 481.844 314.37C481.844 312.18 482.744 310.62 484.554 310.62ZM484.554 311.5C483.354 311.5 482.824 312.53 482.824 314.37C482.824 316.21 483.354 317.25 484.554 317.25C485.754 317.25 486.284 316.2 486.284 314.37C486.284 312.54 485.754 311.5 484.554 311.5Z" fill="#29292D"/>
<path d="M467.8 288.639C470.394 288.639 472.498 286.542 472.498 283.954C472.498 281.367 470.394 279.27 467.8 279.27C465.205 279.27 463.102 281.367 463.102 283.954C463.102 286.542 465.205 288.639 467.8 288.639Z" stroke="#333333" stroke-width="2.16529" stroke-miterlimit="10"/>
<path d="M480.272 287.183C479.138 292.191 475.412 296.229 468.122 306.245C467.96 306.407 467.636 306.407 467.636 306.245C458.726 294.291 455 290.737 455 283.79C455 276.359 461.318 270.544 468.77 271.028C476.546 271.674 481.892 279.429 480.272 287.183Z" stroke="#333333" stroke-width="2.16529" stroke-miterlimit="10"/>
<path d="M335.25 312.5C334.09 312.5 333.5 313.49 333.5 315.36C333.5 317.15 334.05 318.25 335.25 318.25C336.13 318.25 336.94 317.86 336.94 316.37V316.14H335.27V315.24H337.81V319H337.09L337.05 318.09C336.62 318.84 336.09 319.13 335.21 319.13C333.33 319.13 332.52 317.56 332.52 315.36C332.52 313.12 333.46 311.62 335.3 311.62C336.66 311.62 337.56 312.51 337.79 313.99H336.81C336.68 313.15 336.3 312.5 335.25 312.5ZM339.675 311.75H341.455C343.045 311.75 344.265 312.18 344.265 313.98C344.265 315.78 343.045 316.21 341.455 316.21H340.625V319H339.675V311.75ZM341.575 312.65H340.625V315.31H341.575C342.545 315.31 343.285 315.16 343.285 313.98C343.285 312.8 342.545 312.65 341.575 312.65ZM347.58 315.58C346.62 315.37 345.75 314.77 345.75 313.61C345.75 312.36 346.83 311.62 348.13 311.62C349.25 311.62 350.38 312.22 350.54 313.66H349.6C349.49 312.79 348.74 312.5 348.08 312.5C347.42 312.5 346.73 312.83 346.73 313.58C346.73 314.22 347.19 314.53 347.78 314.66L348.5 314.82C349.66 315.08 350.69 315.58 350.69 316.97C350.69 318.32 349.64 319.13 348.24 319.13C346.76 319.13 345.7 318.18 345.62 316.74H346.56C346.67 317.71 347.34 318.25 348.27 318.25C348.99 318.25 349.73 317.88 349.73 317.04C349.73 316.28 349.17 315.96 348.37 315.77L347.58 315.58ZM360.119 311.75L362.969 319H362.059L359.209 311.75H360.119ZM365.624 319V311.75H370.084V312.65H366.574V314.81H369.894V315.71H366.574V319H365.624Z" fill="#29292D"/>
<path d="M364.823 287.536C363.664 292.653 359.857 296.779 352.408 307.014C352.243 307.179 351.911 307.179 351.911 307.014C342.807 294.799 339 291.167 339 284.069C339 276.476 345.456 270.534 353.07 271.029C361.016 271.689 366.478 279.612 364.823 287.536Z" fill="#333333" stroke="#333333" stroke-width="2.16529" stroke-miterlimit="10"/>
<path d="M352.079 280.53C354.135 280.53 355.797 282.192 355.797 284.234C355.797 286.277 354.135 287.938 352.079 287.938C350.023 287.938 348.361 286.277 348.361 284.234C348.361 282.191 350.023 280.53 352.079 280.53Z" fill="#E3DDE4" stroke="#E3DDE4" stroke-width="2.16529" stroke-miterlimit="10"/>
<path d="M220.63 150.74H221.58V158H220.63V154.71H217.83V158H216.88V150.74H217.83V153.81H220.63V150.74ZM225.695 150.62C227.505 150.62 228.405 152.18 228.405 154.37C228.405 156.56 227.505 158.13 225.695 158.13C223.885 158.13 222.985 156.56 222.985 154.37C222.985 152.18 223.885 150.62 225.695 150.62ZM225.695 151.5C224.495 151.5 223.965 152.53 223.965 154.37C223.965 156.21 224.495 157.25 225.695 157.25C226.895 157.25 227.425 156.2 227.425 154.37C227.425 152.54 226.895 151.5 225.695 151.5ZM232.64 155.5H231.68L230.62 151.68V158H229.67V150.75H231.16L232.16 154.46L233.16 150.75H234.65V158H233.7V151.68L232.64 155.5ZM236.515 158V150.75H240.835V151.65H237.465V153.81H240.635V154.71H237.465V157.1H240.835V158H236.515ZM250.584 150.75L253.434 158H252.524L249.674 150.75H250.584ZM258.019 150.62C259.829 150.62 260.729 152.18 260.729 154.37C260.729 156.56 259.829 158.13 258.019 158.13C256.209 158.13 255.309 156.56 255.309 154.37C255.309 152.18 256.209 150.62 258.019 150.62ZM258.019 151.5C256.819 151.5 256.289 152.53 256.289 154.37C256.289 156.21 256.819 157.25 258.019 157.25C259.219 157.25 259.749 156.2 259.749 154.37C259.749 152.54 259.219 151.5 258.019 151.5Z" fill="#29292D"/>
<path d="M244.536 133.026V141.476C244.536 142.308 245.095 142.862 245.933 142.862H254.315C255.014 142.862 255.712 142.308 255.712 141.476V126.654C255.712 126.238 255.572 125.961 255.293 125.684L241.463 112.8C240.904 112.246 240.066 112.246 239.507 112.8L225.816 125.684C225.537 125.961 225.397 126.377 225.397 126.654V141.338C225.397 142.169 225.956 142.723 226.794 142.723H235.176C236.014 142.723 236.573 142.169 236.573 141.338V132.888C236.573 132.056 237.132 131.502 237.97 131.502H243.279C243.977 131.641 244.536 132.195 244.536 133.026Z" stroke="#333333" stroke-width="2.15929" stroke-miterlimit="10"/>
<path d="M107.63 150.941H108.58V158.201H107.63V154.911H104.83V158.201H103.88V150.941H104.83V154.011H107.63V150.941ZM112.695 150.821C114.505 150.821 115.405 152.381 115.405 154.571C115.405 156.761 114.505 158.331 112.695 158.331C110.885 158.331 109.985 156.761 109.985 154.571C109.985 152.381 110.885 150.821 112.695 150.821ZM112.695 151.701C111.495 151.701 110.965 152.731 110.965 154.571C110.965 156.411 111.495 157.451 112.695 157.451C113.895 157.451 114.425 156.401 114.425 154.571C114.425 152.741 113.895 151.701 112.695 151.701ZM119.64 155.701H118.68L117.62 151.881V158.201H116.67V150.951H118.16L119.16 154.661L120.16 150.951H121.65V158.201H120.7V151.881L119.64 155.701ZM123.515 158.201V150.951H127.835V151.851H124.465V154.011H127.635V154.911H124.465V157.301H127.835V158.201H123.515ZM137.584 150.951L140.434 158.201H139.524L136.674 150.951H137.584ZM143.089 158.201V150.951H147.549V151.851H144.039V154.011H147.359V154.911H144.039V158.201H143.089Z" fill="#29292D"/>
<g clip-path="url(#clip0_6468_29525)">
<path d="M125.707 111.711C126.179 111.244 126.87 111.244 127.341 111.711L127.35 111.719L142.496 125.818C142.623 125.946 142.705 126.06 142.757 126.176C142.81 126.293 142.84 126.431 142.84 126.615V142.837C142.84 143.521 142.264 143.992 141.671 143.992H132.491C132.114 143.992 131.827 143.869 131.636 143.68C131.446 143.491 131.323 143.209 131.323 142.837V133.589C131.323 132.488 130.569 131.749 129.655 131.567L129.619 131.561H123.771C123.231 131.561 122.752 131.741 122.407 132.082C122.062 132.424 121.879 132.9 121.879 133.438V142.686C121.879 143.057 121.756 143.34 121.566 143.528C121.375 143.717 121.088 143.84 120.71 143.84H111.531C111.153 143.84 110.866 143.717 110.675 143.528C110.485 143.34 110.362 143.057 110.362 142.686V126.615C110.362 126.402 110.48 126.042 110.713 125.811L110.712 125.81L125.7 111.718L125.707 111.711Z" fill="#333333" stroke="#333333" stroke-width="0.721763"/>
</g>
<path d="M99.83 236.75H100.78C100.53 238.31 99.58 239.13 98.26 239.13C96.49 239.13 95.66 237.56 95.66 235.36C95.66 233.11 96.6 231.61 98.33 231.61C99.58 231.61 100.52 232.58 100.76 234.05H99.79C99.66 233.23 99.22 232.5 98.3 232.5C97.25 232.5 96.64 233.49 96.64 235.36C96.64 237.15 97.2 238.25 98.32 238.25C99.25 238.25 99.7 237.63 99.83 236.75ZM103.665 231.75V238.1H107.225V239H102.715V231.75H103.665ZM111.67 231.75L114.05 239H113.03L112.54 237.45H109.77L109.29 239H108.27L110.65 231.75H111.67ZM111.16 233.02L110.05 236.56H112.26L111.16 233.02ZM117.045 235.58C116.085 235.37 115.215 234.77 115.215 233.61C115.215 232.36 116.295 231.62 117.595 231.62C118.715 231.62 119.845 232.22 120.005 233.66H119.065C118.955 232.79 118.205 232.5 117.545 232.5C116.885 232.5 116.195 232.83 116.195 233.58C116.195 234.22 116.655 234.53 117.245 234.66L117.965 234.82C119.125 235.08 120.155 235.58 120.155 236.97C120.155 238.32 119.105 239.13 117.705 239.13C116.225 239.13 115.165 238.18 115.085 236.74H116.025C116.135 237.71 116.805 238.25 117.735 238.25C118.455 238.25 119.195 237.88 119.195 237.04C119.195 236.28 118.635 235.96 117.835 235.77L117.045 235.58ZM123.509 235.58C122.549 235.37 121.679 234.77 121.679 233.61C121.679 232.36 122.759 231.62 124.059 231.62C125.179 231.62 126.309 232.22 126.469 233.66H125.529C125.419 232.79 124.669 232.5 124.009 232.5C123.349 232.5 122.659 232.83 122.659 233.58C122.659 234.22 123.119 234.53 123.709 234.66L124.429 234.82C125.589 235.08 126.619 235.58 126.619 236.97C126.619 238.32 125.569 239.13 124.169 239.13C122.689 239.13 121.629 238.18 121.549 236.74H122.489C122.599 237.71 123.269 238.25 124.199 238.25C124.919 238.25 125.659 237.88 125.659 237.04C125.659 236.28 125.099 235.96 124.299 235.77L123.509 235.58ZM128.444 239V231.75H132.764V232.65H129.394V234.81H132.564V235.71H129.394V238.1H132.764V239H128.444ZM136.439 235.58C135.479 235.37 134.609 234.77 134.609 233.61C134.609 232.36 135.689 231.62 136.989 231.62C138.109 231.62 139.239 232.22 139.399 233.66H138.459C138.349 232.79 137.599 232.5 136.939 232.5C136.279 232.5 135.589 232.83 135.589 233.58C135.589 234.22 136.049 234.53 136.639 234.66L137.359 234.82C138.519 235.08 139.549 235.58 139.549 236.97C139.549 238.32 138.499 239.13 137.099 239.13C135.619 239.13 134.559 238.18 134.479 236.74H135.419C135.529 237.71 136.199 238.25 137.129 238.25C137.849 238.25 138.589 237.88 138.589 237.04C138.589 236.28 138.029 235.96 137.229 235.77L136.439 235.58ZM148.979 231.75L151.829 239H150.919L148.069 231.75H148.979ZM154.484 239V231.75H158.944V232.65H155.434V234.81H158.754V235.71H155.434V239H154.484Z" fill="#29292D"/>
<path d="M112.567 191C111.627 191 111 191.588 111 192.469V221.846C111 222.727 111.627 223.315 112.567 223.315H136.86C137.8 223.315 138.427 222.727 138.427 221.846V192.469C138.427 191.588 137.8 191 136.86 191H112.567Z" fill="#333333" stroke="#333333" stroke-width="2.16529" stroke-miterlimit="10"/>
<path d="M118.171 206.829C118.484 206.829 118.641 206.829 118.954 206.976L121.775 208.591C122.716 209.179 123.97 208.444 123.97 207.269V193.756C123.97 192.875 123.343 192.287 122.559 192.287H118.171H113.939C112.999 192.287 112.372 192.875 112.372 193.756V207.416C112.372 208.591 113.626 209.326 114.566 208.738L117.387 206.976C117.544 206.829 117.857 206.829 118.171 206.829Z" fill="#E3DDE4"/>
<path d="M214.83 236.75H215.78C215.53 238.31 214.58 239.13 213.26 239.13C211.49 239.13 210.66 237.56 210.66 235.36C210.66 233.11 211.6 231.61 213.33 231.61C214.58 231.61 215.52 232.58 215.76 234.05H214.79C214.66 233.23 214.22 232.5 213.3 232.5C212.25 232.5 211.64 233.49 211.64 235.36C211.64 237.15 212.2 238.25 213.32 238.25C214.25 238.25 214.7 237.63 214.83 236.75ZM218.665 231.75V238.1H222.225V239H217.715V231.75H218.665ZM226.67 231.75L229.05 239H228.03L227.54 237.45H224.77L224.29 239H223.27L225.65 231.75H226.67ZM226.16 233.02L225.05 236.56H227.26L226.16 233.02ZM232.045 235.58C231.085 235.37 230.215 234.77 230.215 233.61C230.215 232.36 231.295 231.62 232.595 231.62C233.715 231.62 234.845 232.22 235.005 233.66H234.065C233.955 232.79 233.205 232.5 232.545 232.5C231.885 232.5 231.195 232.83 231.195 233.58C231.195 234.22 231.655 234.53 232.245 234.66L232.965 234.82C234.125 235.08 235.155 235.58 235.155 236.97C235.155 238.32 234.105 239.13 232.705 239.13C231.225 239.13 230.165 238.18 230.085 236.74H231.025C231.135 237.71 231.805 238.25 232.735 238.25C233.455 238.25 234.195 237.88 234.195 237.04C234.195 236.28 233.635 235.96 232.835 235.77L232.045 235.58ZM238.509 235.58C237.549 235.37 236.679 234.77 236.679 233.61C236.679 232.36 237.759 231.62 239.059 231.62C240.179 231.62 241.309 232.22 241.469 233.66H240.529C240.419 232.79 239.669 232.5 239.009 232.5C238.349 232.5 237.659 232.83 237.659 233.58C237.659 234.22 238.119 234.53 238.709 234.66L239.429 234.82C240.589 235.08 241.619 235.58 241.619 236.97C241.619 238.32 240.569 239.13 239.169 239.13C237.689 239.13 236.629 238.18 236.549 236.74H237.489C237.599 237.71 238.269 238.25 239.199 238.25C239.919 238.25 240.659 237.88 240.659 237.04C240.659 236.28 240.099 235.96 239.299 235.77L238.509 235.58ZM243.444 239V231.75H247.764V232.65H244.394V234.81H247.564V235.71H244.394V238.1H247.764V239H243.444ZM251.439 235.58C250.479 235.37 249.609 234.77 249.609 233.61C249.609 232.36 250.689 231.62 251.989 231.62C253.109 231.62 254.239 232.22 254.399 233.66H253.459C253.349 232.79 252.599 232.5 251.939 232.5C251.279 232.5 250.589 232.83 250.589 233.58C250.589 234.22 251.049 234.53 251.639 234.66L252.359 234.82C253.519 235.08 254.549 235.58 254.549 236.97C254.549 238.32 253.499 239.13 252.099 239.13C250.619 239.13 249.559 238.18 249.479 236.74H250.419C250.529 237.71 251.199 238.25 252.129 238.25C252.849 238.25 253.589 237.88 253.589 237.04C253.589 236.28 253.029 235.96 252.229 235.77L251.439 235.58ZM263.979 231.75L266.829 239H265.919L263.069 231.75H263.979ZM271.414 231.62C273.224 231.62 274.124 233.18 274.124 235.37C274.124 237.56 273.224 239.13 271.414 239.13C269.604 239.13 268.704 237.56 268.704 235.37C268.704 233.18 269.604 231.62 271.414 231.62ZM271.414 232.5C270.214 232.5 269.684 233.53 269.684 235.37C269.684 237.21 270.214 238.25 271.414 238.25C272.614 238.25 273.144 237.2 273.144 235.37C273.144 233.54 272.614 232.5 271.414 232.5Z" fill="#29292D"/>
<path d="M228.593 192C227.637 192 227 192.581 227 193.453V222.511C227 223.383 227.637 223.964 228.593 223.964H253.277C254.233 223.964 254.87 223.383 254.87 222.511V193.453C254.87 192.581 254.233 192 253.277 192H228.593Z" stroke="#333333" stroke-width="2.16529" stroke-miterlimit="10"/>
<path d="M232.892 206.384C233.211 206.384 233.37 206.384 233.689 206.529L236.555 208.127C237.511 208.708 238.785 207.982 238.785 206.82V193.453C238.785 192.581 238.148 192 237.352 192H232.892H228.593C227.637 192 227 192.581 227 193.453V206.965C227 208.127 228.274 208.854 229.23 208.272L232.096 206.529C232.255 206.384 232.574 206.384 232.892 206.384Z" stroke="#333333" stroke-width="2.16529" stroke-miterlimit="10"/>
<path d="M223.2 392.75V399.1H226.76V400H222.25V392.75H223.2ZM228.385 393.65V392.75H232.995V393.65H231.165V399.1H232.995V400H228.385V399.1H230.215V393.65H228.385ZM239.5 400H238.08L235.76 393.81V400H234.81V392.75H236.23L238.55 398.92V392.75H239.5V400ZM242.425 392.75V396.22L245.015 392.75H246.135L243.945 395.58L246.415 400H245.325L243.325 396.38L242.425 397.54V400H241.475V392.75H242.425ZM255.584 392.75L258.434 400H257.524L254.674 392.75H255.584ZM263.019 392.62C264.829 392.62 265.729 394.18 265.729 396.37C265.729 398.56 264.829 400.13 263.019 400.13C261.209 400.13 260.309 398.56 260.309 396.37C260.309 394.18 261.209 392.62 263.019 392.62ZM263.019 393.5C261.819 393.5 261.289 394.53 261.289 396.37C261.289 398.21 261.819 399.25 263.019 399.25C264.219 399.25 264.749 398.2 264.749 396.37C264.749 394.54 264.219 393.5 263.019 393.5Z" fill="#29292D"/>
<path d="M240.879 356.083C249.051 356.083 255.675 362.707 255.675 370.879C255.675 379.05 249.05 385.675 240.879 385.675C232.707 385.675 226.083 379.051 226.083 370.879C226.083 362.707 232.707 356.083 240.879 356.083Z" stroke="#333333" stroke-width="2.16529"/>
<path d="M234.383 369.796C233.785 369.796 233.301 370.281 233.301 370.879C233.301 371.477 233.785 371.962 234.383 371.962V369.796ZM234.383 370.879V371.962H245.21V370.879V369.796H234.383V370.879Z" fill="#333333"/>
<path d="M242.323 367.27L245.931 370.878" stroke="#333333" stroke-width="2.16529" stroke-linecap="round"/>
<path d="M242.323 374.848L245.932 370.875" stroke="#333333" stroke-width="2.16529" stroke-linecap="round"/>
<path d="M105.2 392.75V399.1H108.76V400H104.25V392.75H105.2ZM110.385 393.65V392.75H114.995V393.65H113.165V399.1H114.995V400H110.385V399.1H112.215V393.65H110.385ZM121.5 400H120.08L117.76 393.81V400H116.81V392.75H118.23L120.55 398.92V392.75H121.5V400ZM124.425 392.75V396.22L127.015 392.75H128.135L125.945 395.58L128.415 400H127.325L125.325 396.38L124.425 397.54V400H123.475V392.75H124.425ZM137.584 392.75L140.434 400H139.524L136.674 392.75H137.584ZM143.089 400V392.75H147.549V393.65H144.039V395.81H147.359V396.71H144.039V400H143.089Z" fill="#29292D"/>
<path d="M124.879 386.758C133.648 386.758 140.758 379.648 140.758 370.879C140.758 362.109 133.648 355 124.879 355C116.109 355 109 362.109 109 370.879C109 379.648 116.109 386.758 124.879 386.758Z" fill="#333333"/>
<path d="M118.383 369.796C117.785 369.796 117.301 370.281 117.301 370.879C117.301 371.477 117.785 371.962 118.383 371.962V369.796ZM118.383 370.879V371.962H129.21V370.879V369.796H118.383V370.879Z" fill="#E3DDE4"/>
<path d="M126.323 367.27L129.931 370.878" stroke="#E3DDE4" stroke-width="2.16529" stroke-linecap="round"/>
<path d="M126.323 374.848L129.932 370.875" stroke="#E3DDE4" stroke-width="2.16529" stroke-linecap="round"/>
<path d="M224.21 476.75H225.99C227.58 476.75 228.8 477.18 228.8 478.98C228.8 480.78 227.58 481.21 225.99 481.21H225.16V484H224.21V476.75ZM226.11 477.65H225.16V480.31H226.11C227.08 480.31 227.82 480.16 227.82 478.98C227.82 477.8 227.08 477.65 226.11 477.65ZM230.385 477.65V476.75H234.995V477.65H233.165V483.1H234.995V484H230.385V483.1H232.215V477.65H230.385ZM241.5 484H240.08L237.76 477.81V484H236.81V476.75H238.23L240.55 482.92V476.75H241.5V484ZM251.119 476.75L253.969 484H253.059L250.209 476.75H251.119ZM258.554 476.62C260.364 476.62 261.264 478.18 261.264 480.37C261.264 482.56 260.364 484.13 258.554 484.13C256.744 484.13 255.844 482.56 255.844 480.37C255.844 478.18 256.744 476.62 258.554 476.62ZM258.554 477.5C257.354 477.5 256.824 478.53 256.824 480.37C256.824 482.21 257.354 483.25 258.554 483.25C259.754 483.25 260.284 482.2 260.284 480.37C260.284 478.54 259.754 477.5 258.554 477.5Z" fill="#29292D"/>
<path d="M229.618 449.585H253.253C254.368 449.585 255.125 450.405 255.125 451.215V467.495C255.125 468.305 254.368 469.126 253.253 469.126H229.618C228.503 469.126 227.747 468.305 227.747 467.495V451.215C227.747 450.406 228.503 449.585 229.618 449.585Z" stroke="#333333" stroke-width="2.16529"/>
<path d="M233.721 457.685V463.79H235.286V455.65H234.102L231.707 457.373L232.496 458.581L233.721 457.685ZM240.496 457.075C241.177 457.075 241.599 457.509 241.599 458.052C241.599 458.554 241.408 458.92 240.864 459.49C240.374 460.005 239.422 460.955 237.966 462.407V463.79H243.258V462.447H240.034L239.993 462.379C240.918 461.457 241.558 460.833 241.898 460.494C242.728 459.68 243.15 458.839 243.15 457.97C243.15 457.645 243.082 456.559 241.911 455.962C241.272 455.65 240.197 455.474 239.258 455.922C238.143 456.451 237.911 457.455 237.898 457.482L239.272 458.052C239.408 457.604 239.789 457.075 240.496 457.075ZM248.007 462.352C246.877 462.352 246.66 461.321 246.619 461.186L245.218 461.742C245.83 463.899 247.952 463.79 248.007 463.79C249.639 463.79 250.292 462.814 250.401 462.637C250.837 461.972 250.891 460.955 250.388 460.25C250.156 459.924 249.843 459.693 249.463 459.544V459.449C249.735 459.313 249.966 459.096 250.17 458.798C250.524 458.242 250.592 457.346 250.143 456.668C250.034 456.519 249.422 455.65 247.939 455.65C246.224 455.65 245.571 456.871 245.422 457.333L246.769 457.889C246.918 457.455 247.245 457.021 247.925 457.021C248.524 457.021 248.946 457.373 248.946 457.902C248.946 458.689 248.197 458.879 247.748 458.879H247.122V460.236H247.803C248.565 460.236 249.218 460.562 249.218 461.308C249.218 461.972 248.565 462.352 248.007 462.352Z" fill="#333333"/>
<mask id="path-78-inside-1_6468_29525" fill="white">
<path d="M230.899 443.516C230.899 442.241 231.15 440.979 231.638 439.801C232.125 438.623 232.84 437.553 233.742 436.652C234.643 435.75 235.713 435.035 236.891 434.548C238.069 434.06 239.331 433.809 240.606 433.809C241.881 433.809 243.143 434.06 244.321 434.548C245.499 435.035 246.569 435.75 247.47 436.652C248.372 437.553 249.087 438.623 249.575 439.801C250.062 440.979 250.313 442.241 250.313 443.516L247.894 443.516C247.894 442.559 247.705 441.611 247.339 440.727C246.973 439.843 246.436 439.039 245.759 438.363C245.083 437.686 244.279 437.149 243.395 436.783C242.511 436.417 241.563 436.228 240.606 436.228C239.649 436.228 238.701 436.417 237.817 436.783C236.933 437.149 236.13 437.686 235.453 438.363C234.776 439.039 234.239 439.843 233.873 440.727C233.507 441.611 233.318 442.559 233.318 443.516H230.899Z"/>
</mask>
<path d="M230.899 443.516C230.899 442.241 231.15 440.979 231.638 439.801C232.125 438.623 232.84 437.553 233.742 436.652C234.643 435.75 235.713 435.035 236.891 434.548C238.069 434.06 239.331 433.809 240.606 433.809C241.881 433.809 243.143 434.06 244.321 434.548C245.499 435.035 246.569 435.75 247.47 436.652C248.372 437.553 249.087 438.623 249.575 439.801C250.062 440.979 250.313 442.241 250.313 443.516L247.894 443.516C247.894 442.559 247.705 441.611 247.339 440.727C246.973 439.843 246.436 439.039 245.759 438.363C245.083 437.686 244.279 437.149 243.395 436.783C242.511 436.417 241.563 436.228 240.606 436.228C239.649 436.228 238.701 436.417 237.817 436.783C236.933 437.149 236.13 437.686 235.453 438.363C234.776 439.039 234.239 439.843 233.873 440.727C233.507 441.611 233.318 442.559 233.318 443.516H230.899Z" stroke="#333333" stroke-width="4.33058" mask="url(#path-78-inside-1_6468_29525)"/>
<rect x="230.899" y="443.516" width="2.42685" height="6.47159" fill="#333333"/>
<path d="M108.21 476.75H109.99C111.58 476.75 112.8 477.18 112.8 478.98C112.8 480.78 111.58 481.21 109.99 481.21H109.16V484H108.21V476.75ZM110.11 477.65H109.16V480.31H110.11C111.08 480.31 111.82 480.16 111.82 478.98C111.82 477.8 111.08 477.65 110.11 477.65ZM114.385 477.65V476.75H118.995V477.65H117.165V483.1H118.995V484H114.385V483.1H116.215V477.65H114.385ZM125.5 484H124.08L121.76 477.81V484H120.81V476.75H122.23L124.55 482.92V476.75H125.5V484ZM135.119 476.75L137.969 484H137.059L134.209 476.75H135.119ZM140.624 484V476.75H145.084V477.65H141.574V479.81H144.894V480.71H141.574V484H140.624Z" fill="#29292D"/>
<path d="M115.536 449.419H138.915C140.013 449.419 140.754 450.226 140.755 451.02V467.124C140.755 467.917 140.013 468.726 138.915 468.726H115.536C114.438 468.726 113.696 467.917 113.696 467.124V451.02C113.696 450.226 114.438 449.419 115.536 449.419Z" fill="#333333" stroke="#333333" stroke-width="2.16529"/>
<path d="M119.594 457.419V463.458H121.142V455.406H119.971L117.602 457.111L118.383 458.305L119.594 457.419ZM126.296 456.815C126.969 456.815 127.387 457.245 127.387 457.782C127.387 458.278 127.198 458.641 126.66 459.204C126.175 459.714 125.233 460.654 123.793 462.09V463.458H129.028V462.13H125.839L125.798 462.063C126.714 461.15 127.346 460.533 127.683 460.197C128.504 459.392 128.921 458.56 128.921 457.701C128.921 457.379 128.854 456.305 127.696 455.715C127.064 455.406 126 455.232 125.072 455.675C123.968 456.198 123.739 457.191 123.726 457.218L125.085 457.782C125.22 457.339 125.597 456.815 126.296 456.815ZM133.726 462.036C132.608 462.036 132.393 461.016 132.353 460.882L130.967 461.432C131.572 463.566 133.672 463.458 133.726 463.458C135.341 463.458 135.987 462.492 136.094 462.318C136.525 461.66 136.579 460.654 136.081 459.956C135.852 459.634 135.542 459.405 135.166 459.258V459.164C135.435 459.03 135.664 458.815 135.865 458.52C136.215 457.97 136.283 457.084 135.839 456.413C135.731 456.265 135.125 455.406 133.658 455.406C131.962 455.406 131.316 456.614 131.168 457.07L132.501 457.621C132.649 457.191 132.972 456.762 133.645 456.762C134.237 456.762 134.654 457.111 134.654 457.634C134.654 458.412 133.914 458.6 133.47 458.6H132.851V459.942H133.524C134.277 459.942 134.923 460.264 134.923 461.003C134.923 461.66 134.277 462.036 133.726 462.036Z" fill="#E3DDE4"/>
<mask id="path-83-inside-2_6468_29525" fill="white">
<path d="M116.802 443.403C116.802 442.142 117.051 440.894 117.533 439.729C118.016 438.564 118.723 437.505 119.615 436.613C120.506 435.722 121.565 435.014 122.73 434.532C123.895 434.049 125.144 433.801 126.405 433.801C127.666 433.801 128.915 434.049 130.08 434.532C131.245 435.014 132.303 435.722 133.195 436.613C134.087 437.505 134.794 438.564 135.276 439.729C135.759 440.894 136.007 442.142 136.007 443.403L133.614 443.403C133.614 442.457 133.427 441.519 133.065 440.645C132.703 439.77 132.172 438.975 131.502 438.306C130.833 437.636 130.038 437.105 129.164 436.743C128.289 436.381 127.352 436.194 126.405 436.194C125.458 436.194 124.521 436.381 123.646 436.743C122.771 437.105 121.977 437.636 121.307 438.306C120.638 438.975 120.107 439.77 119.744 440.645C119.382 441.519 119.196 442.457 119.196 443.403H116.802Z"/>
</mask>
<path d="M116.802 443.403C116.802 442.142 117.051 440.894 117.533 439.729C118.016 438.564 118.723 437.505 119.615 436.613C120.506 435.722 121.565 435.014 122.73 434.532C123.895 434.049 125.144 433.801 126.405 433.801C127.666 433.801 128.915 434.049 130.08 434.532C131.245 435.014 132.303 435.722 133.195 436.613C134.087 437.505 134.794 438.564 135.276 439.729C135.759 440.894 136.007 442.142 136.007 443.403L133.614 443.403C133.614 442.457 133.427 441.519 133.065 440.645C132.703 439.77 132.172 438.975 131.502 438.306C130.833 437.636 130.038 437.105 129.164 436.743C128.289 436.381 127.352 436.194 126.405 436.194C125.458 436.194 124.521 436.381 123.646 436.743C122.771 437.105 121.977 437.636 121.307 438.306C120.638 438.975 120.107 439.77 119.744 440.645C119.382 441.519 119.196 442.457 119.196 443.403H116.802Z" stroke="#333333" stroke-width="4.33058" mask="url(#path-83-inside-2_6468_29525)"/>
<rect x="116.802" y="443.402" width="2.40065" height="6.40172" fill="#333333"/>
<defs>
<clipPath id="clip0_6468_29525">
<rect width="32.992" height="33.2011" fill="white" transform="translate(110 111)"/>
</clipPath>
</defs>
</svg>
