<svg width="918" height="918" viewBox="0 0 918 918" fill="none" xmlns="http://www.w3.org/2000/svg">
<circle cx="459" cy="459" r="459" fill="#333333"/>
<path d="M201.559 268.236L113.579 378.318H201.559V268.236ZM312.491 378.318V428.046H259.788V502H201.559V428.046H49.4002V382.143L202.409 193.857H259.788V378.318H312.491ZM443.734 507.525C361.279 507.525 319.627 440.796 319.627 347.291C319.627 253.785 361.279 188.331 443.734 188.331C525.339 188.331 567.416 253.785 567.416 347.291C567.416 440.796 525.339 507.525 443.734 507.525ZM443.734 463.323C485.812 463.323 507.488 421.67 507.488 347.291C507.488 272.911 485.812 232.534 443.734 232.534C401.657 232.534 379.555 272.911 379.555 347.291C379.555 421.67 401.657 463.323 443.734 463.323ZM727.262 268.236L639.282 378.318H727.262V268.236ZM838.194 378.318V428.046H785.491V502H727.262V428.046H575.103V382.143L728.113 193.857H785.491V378.318H838.194Z" fill="#D9D9D9"/>
<mask id="mask0_6447_35304" style="mask-type:alpha" maskUnits="userSpaceOnUse" x="0" y="0" width="918" height="918">
<circle cx="459" cy="459" r="459" fill="#333333"/>
</mask>
<g mask="url(#mask0_6447_35304)">
<rect y="544" width="918" height="232" fill="#D9D9D9"/>
<path d="M121.383 621.964H141.919C154.175 621.964 168.335 623.703 168.335 641.838C168.335 657.158 156.162 660.884 142.25 660.884H133.224V682H121.383V621.964ZM142.167 631.239H133.224V651.692H142.995C150.283 651.692 156.162 649.87 156.162 641.921C156.162 632.067 148.544 631.239 142.167 631.239ZM160.176 682L182.534 621.964H194.459L216.9 682H204.064L199.841 669.827H176.489L172.266 682H160.176ZM188.165 636.456L179.885 660.139H196.446L188.165 636.456ZM244.178 620.888C258.338 620.888 267.778 629.086 269.766 640.182H258.504C256.599 633.557 250.803 630.328 244.095 630.328C234.075 630.328 227.037 637.366 227.037 651.692C227.037 666.018 233.744 673.636 244.012 673.636C250.389 673.636 259.001 670.407 259.001 660.801V659.807H244.012V650.119H269.931V682H260.574L260.243 674.961C256.848 679.93 250.72 683.077 242.191 683.077C225.298 683.077 214.781 670.904 214.781 651.692C214.781 633.06 225.795 620.888 244.178 620.888ZM277.767 682V621.964H321.49V631.57H289.609V646.475H319.751V656.081H289.609V672.394H321.49V682H277.767ZM393.183 682H377.78L353.766 636.207V682H342.587V621.964H357.989L382.004 667.757V621.964H393.183V682ZM411.335 651.941C411.335 666.101 419.119 673.636 428.476 673.636C437.834 673.636 445.618 666.101 445.618 651.941C445.618 637.863 437.834 630.328 428.476 630.328C419.119 630.328 411.335 637.863 411.335 651.941ZM457.873 651.941C457.873 670.572 446.363 683.077 428.476 683.077C410.59 683.077 399.08 670.572 399.08 651.941C399.08 633.309 410.59 620.888 428.476 620.888C446.363 620.888 457.873 633.309 457.873 651.941ZM473.954 682V631.57H455.487V621.964H504.344V631.57H485.795V682H473.954ZM523.82 682V621.964H567.543V631.57H535.662V646.475H565.804V656.081H535.662V682H523.82ZM580.277 651.941C580.277 666.101 588.061 673.636 597.418 673.636C606.775 673.636 614.559 666.101 614.559 651.941C614.559 637.863 606.775 630.328 597.418 630.328C588.061 630.328 580.277 637.863 580.277 651.941ZM626.815 651.941C626.815 670.572 615.305 683.077 597.418 683.077C579.531 683.077 568.021 670.572 568.021 651.941C568.021 633.309 579.531 620.888 597.418 620.888C615.305 620.888 626.815 633.309 626.815 651.941ZM631.802 621.964H643.644V656.661C643.644 667.26 645.797 673.636 656.727 673.636C667.658 673.636 669.645 667.26 669.645 656.661V621.964H681.487V656.578C681.487 676.369 674.283 683.077 656.727 683.077C639.172 683.077 631.802 676.369 631.802 656.578V621.964ZM739.453 682H724.051L700.037 636.207V682H688.858V621.964H704.26L728.274 667.757V621.964H739.453V682ZM786.671 651.941C786.671 633.971 775.989 631.239 765.058 631.239H759.593V672.725H765.058C775.989 672.725 786.671 670.076 786.671 651.941ZM747.752 621.964H765.555C784.601 621.964 798.927 628.092 798.927 651.941C798.927 675.789 784.601 682 765.555 682H747.752V621.964Z" fill="#333333"/>
</g>
<path d="M253.368 114.2L267.096 149H262.68L249 114.2H253.368ZM270.022 114.2L283.75 149H279.334L265.654 114.2H270.022ZM286.435 149V114.2H310.051V118.424H291.331V128.984H308.947V133.208H291.331V144.776H310.051V149H286.435ZM335.649 149L328.113 134.312C327.201 134.36 326.385 134.36 325.473 134.36H319.329V149H314.433V114.2H325.473C333.921 114.2 339.969 115.88 339.969 124.232C339.969 129.752 337.329 132.392 333.057 133.544L341.121 149H335.649ZM325.857 118.328H319.329V130.232H325.857C330.993 130.232 334.929 129.704 334.929 124.328C334.929 118.952 330.993 118.328 325.857 118.328ZM366.787 149L359.251 134.312C358.339 134.36 357.523 134.36 356.611 134.36H350.467V149H345.571V114.2H356.611C365.059 114.2 371.107 115.88 371.107 124.232C371.107 129.752 368.467 132.392 364.195 133.544L372.259 149H366.787ZM356.995 118.328H350.467V130.232H356.995C362.131 130.232 366.067 129.704 366.067 124.328C366.067 118.952 362.131 118.328 356.995 118.328ZM381.221 149H375.701V143.48H381.221V149ZM400.065 120.2L387.633 136.28H400.065V120.2ZM410.865 136.28V140.408H404.481V149H400.065V140.408H382.785V136.28L400.017 114.2H404.481V136.28H410.865ZM435.203 131.576C435.203 121.928 431.746 117.224 426.322 117.224C420.802 117.224 417.442 121.928 417.442 131.576C417.442 141.32 420.802 145.976 426.322 145.976C431.842 145.976 435.203 141.32 435.203 131.576ZM439.859 131.576C439.859 142.568 435.586 149.624 426.322 149.624C417.058 149.624 412.786 142.568 412.786 131.576C412.786 120.584 417.058 113.576 426.322 113.576C435.586 113.576 439.859 120.584 439.859 131.576ZM458.873 120.2L446.441 136.28H458.873V120.2ZM469.673 136.28V140.408H463.289V149H458.873V140.408H441.593V136.28L458.825 114.2H463.289V136.28H469.673ZM477.461 149H471.941V143.48H477.461V149ZM501.476 131.576C501.476 121.928 498.02 117.224 492.596 117.224C487.076 117.224 483.716 121.928 483.716 131.576C483.716 141.32 487.076 145.976 492.596 145.976C498.116 145.976 501.476 141.32 501.476 131.576ZM506.132 131.576C506.132 142.568 501.86 149.624 492.596 149.624C483.332 149.624 479.06 142.568 479.06 131.576C479.06 120.584 483.332 113.576 492.596 113.576C501.86 113.576 506.132 120.584 506.132 131.576ZM531.771 131.576C531.771 121.928 528.315 117.224 522.891 117.224C517.371 117.224 514.011 121.928 514.011 131.576C514.011 141.32 517.371 145.976 522.891 145.976C528.411 145.976 531.771 141.32 531.771 131.576ZM536.427 131.576C536.427 142.568 532.155 149.624 522.891 149.624C513.627 149.624 509.355 142.568 509.355 131.576C509.355 120.584 513.627 113.576 522.891 113.576C532.155 113.576 536.427 120.584 536.427 131.576ZM550.353 149H545.985V121.784H537.921V118.808C542.865 118.664 545.505 117.944 547.377 114.2H550.353V149ZM562.217 149H556.697V143.48H562.217V149ZM586.232 131.576C586.232 121.928 582.776 117.224 577.352 117.224C571.832 117.224 568.472 121.928 568.472 131.576C568.472 141.32 571.832 145.976 577.352 145.976C582.872 145.976 586.232 141.32 586.232 131.576ZM590.888 131.576C590.888 142.568 586.616 149.624 577.352 149.624C568.088 149.624 563.816 142.568 563.816 131.576C563.816 120.584 568.088 113.576 577.352 113.576C586.616 113.576 590.888 120.584 590.888 131.576ZM616.526 131.576C616.526 121.928 613.07 117.224 607.646 117.224C602.126 117.224 598.766 121.928 598.766 131.576C598.766 141.32 602.126 145.976 607.646 145.976C613.166 145.976 616.526 141.32 616.526 131.576ZM621.182 131.576C621.182 142.568 616.91 149.624 607.646 149.624C598.382 149.624 594.11 142.568 594.11 131.576C594.11 120.584 598.382 113.576 607.646 113.576C616.91 113.576 621.182 120.584 621.182 131.576ZM635.109 149H630.741V121.784H622.677V118.808C627.621 118.664 630.261 117.944 632.133 114.2H635.109V149Z" fill="#D9D9D9"/>
</svg>
