<svg width="600" height="600" viewBox="0 0 600 600" fill="none" xmlns="http://www.w3.org/2000/svg">
<rect width="600" height="600" fill="#E3DDE4"/>
<path d="M90.21 192.75H91.99C93.58 192.75 94.8 193.18 94.8 194.98C94.8 196.78 93.58 197.21 91.99 197.21H91.16V200H90.21V192.75ZM92.11 193.65H91.16V196.31H92.11C93.08 196.31 93.82 196.16 93.82 194.98C93.82 193.8 93.08 193.65 92.11 193.65ZM100.275 200L98.8548 196.94C98.6848 196.95 98.5148 196.95 98.3248 196.95H97.5048V200H96.5548V192.75H98.3248C99.9048 192.75 101.125 193.09 101.125 194.82C101.125 195.95 100.615 196.51 99.8148 196.76L101.355 200H100.275ZM98.4348 193.65H97.5048V196.05H98.4348C99.3948 196.05 100.145 195.96 100.145 194.84C100.145 193.72 99.3948 193.65 98.4348 193.65ZM102.85 193.65V192.75H107.46V193.65H105.63V199.1H107.46V200H102.85V199.1H104.68V193.65H102.85ZM112.105 197.5H111.145L110.085 193.68V200H109.135V192.75H110.625L111.625 196.46L112.625 192.75H114.115V200H113.165V193.68L112.105 197.5ZM118.599 192.75L120.979 200H119.959L119.469 198.45H116.699L116.219 200H115.199L117.579 192.75H118.599ZM118.089 194.02L116.979 197.56H119.189L118.089 194.02ZM126.134 200L124.714 196.94C124.544 196.95 124.374 196.95 124.184 196.95H123.364V200H122.414V192.75H124.184C125.764 192.75 126.984 193.09 126.984 194.82C126.984 195.95 126.474 196.51 125.674 196.76L127.214 200H126.134ZM124.294 193.65H123.364V196.05H124.294C125.254 196.05 126.004 195.96 126.004 194.84C126.004 193.72 125.254 193.65 124.294 193.65ZM131.019 196.3L132.879 192.75H133.989L131.489 197.28V200H130.539V197.28L128.039 192.75H129.149L131.019 196.3ZM143.969 193.5C142.809 193.5 142.219 194.49 142.219 196.36C142.219 198.15 142.769 199.25 143.969 199.25C144.849 199.25 145.659 198.86 145.659 197.37V197.14H143.989V196.24H146.529V200H145.809L145.769 199.09C145.339 199.84 144.809 200.13 143.929 200.13C142.049 200.13 141.239 198.56 141.239 196.36C141.239 194.12 142.179 192.62 144.019 192.62C145.379 192.62 146.279 193.51 146.509 194.99H145.529C145.399 194.15 145.019 193.5 143.969 193.5ZM151.994 200L150.574 196.94C150.404 196.95 150.234 196.95 150.044 196.95H149.224V200H148.274V192.75H150.044C151.624 192.75 152.844 193.09 152.844 194.82C152.844 195.95 152.334 196.51 151.534 196.76L153.074 200H151.994ZM150.154 193.65H149.224V196.05H150.154C151.114 196.05 151.864 195.96 151.864 194.84C151.864 193.72 151.114 193.65 150.154 193.65ZM159.218 200H157.798L155.478 193.81V200H154.528V192.75H155.948L158.268 198.92V192.75H159.218V200Z" fill="#29292D"/>
<path d="M89.65 210.62H91.07L91.33 208.75H92.07L91.81 210.62H93.37L93.63 208.75H94.37L94.11 210.62H95.45L95.35 211.33H94.01L93.77 213.07H95.12L95.02 213.78H93.67L93.37 216H92.63L92.93 213.78H91.37L91.07 216H90.33L90.63 213.78H89.22L89.32 213.07H90.73L90.97 211.33H89.55L89.65 210.62ZM91.71 211.33L91.47 213.07H93.03L93.27 211.33H91.71ZM98.6802 208.62C100.02 208.62 100.98 209.29 100.98 210.52C100.98 212.2 99.2302 213.68 97.2002 215.15H101.18V216H95.9602V215.18C98.5202 213.29 100.02 211.93 100.02 210.64C100.02 209.88 99.5302 209.38 98.6602 209.38C97.8802 209.38 97.1302 209.81 97.1002 211.01H96.1602C96.1302 209.57 97.1302 208.62 98.6802 208.62ZM101.669 209.6V208.75H106.689V209.6C104.889 211.05 103.789 213.28 103.619 216H102.519C102.679 213.39 103.819 211.17 105.629 209.6H101.669ZM109.706 215.37C110.576 215.37 111.326 214.74 111.326 213.62C111.326 212.42 110.486 211.9 109.696 211.9C108.946 211.9 108.456 212.34 108.296 212.7L107.386 212.65L107.856 208.75H112.016V209.6H108.596L108.346 211.66C108.736 211.29 109.306 211.11 109.906 211.11C111.176 211.11 112.286 212.01 112.286 213.61C112.286 215.27 111.056 216.13 109.706 216.13C108.036 216.13 107.256 215.07 107.126 213.9H108.066C108.216 214.82 108.696 215.37 109.706 215.37ZM118.51 212.37C118.51 209.91 117.06 209.61 115.57 209.61H114.64V215.14H115.57C117.06 215.14 118.51 214.84 118.51 212.37ZM113.62 208.75H115.6C117.89 208.75 119.55 209.62 119.55 212.37C119.55 215.13 117.89 216 115.6 216H113.62V208.75ZM122.884 215.37C123.844 215.37 124.524 214.88 124.524 213.97C124.524 212.93 123.594 212.59 122.434 212.59H122.284V211.76H122.404C123.674 211.76 124.334 211.41 124.334 210.56C124.334 209.79 123.694 209.38 122.924 209.38C121.954 209.38 121.424 209.96 121.344 210.79H120.404C120.514 209.51 121.424 208.62 122.944 208.62C124.194 208.62 125.294 209.13 125.294 210.46C125.294 211.21 124.874 211.83 124.114 212.14C125.194 212.49 125.494 213.19 125.494 213.96C125.494 215.42 124.264 216.13 122.874 216.13C121.154 216.13 120.404 215.07 120.294 213.86H121.234C121.344 214.75 121.854 215.37 122.884 215.37ZM129.064 208.62C130.544 208.62 131.484 209.4 131.484 210.47C131.484 211.07 131.204 211.74 130.484 212.14C131.414 212.51 131.704 213.3 131.704 213.96C131.704 215.35 130.544 216.13 129.064 216.13C127.574 216.13 126.414 215.35 126.414 213.96C126.414 213.31 126.694 212.51 127.644 212.14C126.924 211.74 126.644 211.07 126.644 210.47C126.644 209.4 127.584 208.62 129.064 208.62ZM129.064 212.52C128.024 212.52 127.384 213.11 127.384 213.96C127.384 214.81 128.024 215.37 129.064 215.37C130.094 215.37 130.744 214.81 130.744 213.96C130.744 213.11 130.094 212.52 129.064 212.52ZM130.564 210.58C130.564 209.86 129.974 209.38 129.064 209.38C128.144 209.38 127.554 209.86 127.554 210.58C127.554 211.31 128.154 211.85 129.064 211.85C129.974 211.85 130.564 211.31 130.564 210.58Z" fill="#29292D"/>
<rect x="89" y="111" width="75" height="75" fill="#275D38"/>
<path d="M206.65 196.58C205.69 196.37 204.82 195.77 204.82 194.61C204.82 193.36 205.9 192.62 207.2 192.62C208.32 192.62 209.45 193.22 209.61 194.66H208.67C208.56 193.79 207.81 193.5 207.15 193.5C206.49 193.5 205.8 193.83 205.8 194.58C205.8 195.22 206.26 195.53 206.85 195.66L207.57 195.82C208.73 196.08 209.76 196.58 209.76 197.97C209.76 199.32 208.71 200.13 207.31 200.13C205.83 200.13 204.77 199.18 204.69 197.74H205.63C205.74 198.71 206.41 199.25 207.34 199.25C208.06 199.25 208.8 198.88 208.8 198.04C208.8 197.28 208.24 196.96 207.44 196.77L206.65 196.58ZM211.585 200V192.75H215.905V193.65H212.535V195.81H215.705V196.71H212.535V199.1H215.905V200H211.585ZM221.76 197.75H222.71C222.46 199.31 221.51 200.13 220.19 200.13C218.42 200.13 217.59 198.56 217.59 196.36C217.59 194.11 218.53 192.61 220.26 192.61C221.51 192.61 222.45 193.58 222.69 195.05H221.72C221.59 194.23 221.15 193.5 220.23 193.5C219.18 193.5 218.57 194.49 218.57 196.36C218.57 198.15 219.13 199.25 220.25 199.25C221.18 199.25 221.63 198.63 221.76 197.75ZM226.625 192.62C228.435 192.62 229.335 194.18 229.335 196.37C229.335 198.56 228.435 200.13 226.625 200.13C224.815 200.13 223.915 198.56 223.915 196.37C223.915 194.18 224.815 192.62 226.625 192.62ZM226.625 193.5C225.425 193.5 224.895 194.53 224.895 196.37C224.895 198.21 225.425 199.25 226.625 199.25C227.825 199.25 228.355 198.2 228.355 196.37C228.355 194.54 227.825 193.5 226.625 193.5ZM235.429 200H234.009L231.689 193.81V200H230.739V192.75H232.159L234.479 198.92V192.75H235.429V200ZM241.254 196.37C241.254 193.9 239.824 193.65 238.474 193.65H238.214V199.1H238.474C239.824 199.1 241.254 198.83 241.254 196.37ZM237.264 192.75H238.504C240.564 192.75 242.224 193.6 242.224 196.37C242.224 199.13 240.564 200 238.504 200H237.264V192.75ZM246.529 192.75L248.909 200H247.889L247.399 198.45H244.629L244.149 200H243.129L245.509 192.75H246.529ZM246.019 194.02L244.909 197.56H247.119L246.019 194.02ZM254.064 200L252.644 196.94C252.474 196.95 252.304 196.95 252.114 196.95H251.294V200H250.344V192.75H252.114C253.694 192.75 254.914 193.09 254.914 194.82C254.914 195.95 254.404 196.51 253.604 196.76L255.144 200H254.064ZM252.224 193.65H251.294V196.05H252.224C253.184 196.05 253.934 195.96 253.934 194.84C253.934 193.72 253.184 193.65 252.224 193.65ZM258.949 196.3L260.809 192.75H261.919L259.419 197.28V200H258.469V197.28L255.969 192.75H257.079L258.949 196.3ZM271.898 193.5C270.738 193.5 270.148 194.49 270.148 196.36C270.148 198.15 270.698 199.25 271.898 199.25C272.778 199.25 273.588 198.86 273.588 197.37V197.14H271.918V196.24H274.458V200H273.738L273.698 199.09C273.268 199.84 272.738 200.13 271.858 200.13C269.978 200.13 269.168 198.56 269.168 196.36C269.168 194.12 270.108 192.62 271.948 192.62C273.308 192.62 274.208 193.51 274.438 194.99H273.458C273.328 194.15 272.948 193.5 271.898 193.5ZM279.923 200L278.503 196.94C278.333 196.95 278.163 196.95 277.973 196.95H277.153V200H276.203V192.75H277.973C279.553 192.75 280.773 193.09 280.773 194.82C280.773 195.95 280.263 196.51 279.463 196.76L281.003 200H279.923ZM278.083 193.65H277.153V196.05H278.083C279.043 196.05 279.793 195.96 279.793 194.84C279.793 193.72 279.043 193.65 278.083 193.65ZM287.148 200H285.728L283.408 193.81V200H282.458V192.75H283.878L286.198 198.92V192.75H287.148V200Z" fill="#29292D"/>
<path d="M204.65 210.62H206.07L206.33 208.75H207.07L206.81 210.62H208.37L208.63 208.75H209.37L209.11 210.62H210.45L210.35 211.33H209.01L208.77 213.07H210.12L210.02 213.78H208.67L208.37 216H207.63L207.93 213.78H206.37L206.07 216H205.33L205.63 213.78H204.22L204.32 213.07H205.73L205.97 211.33H204.55L204.65 210.62ZM206.71 211.33L206.47 213.07H208.03L208.27 211.33H206.71ZM213.68 215.37C214.55 215.37 215.3 214.74 215.3 213.62C215.3 212.42 214.46 211.9 213.67 211.9C212.92 211.9 212.43 212.34 212.27 212.7L211.36 212.65L211.83 208.75H215.99V209.6H212.57L212.32 211.66C212.71 211.29 213.28 211.11 213.88 211.11C215.15 211.11 216.26 212.01 216.26 213.61C216.26 215.27 215.03 216.13 213.68 216.13C212.01 216.13 211.23 215.07 211.1 213.9H212.04C212.19 214.82 212.67 215.37 213.68 215.37ZM217.594 216V208.75H222.514V209.63H218.614V211.83H222.284V212.71H218.614V215.12H222.514V216H217.594ZM228.817 213.69H229.807C229.487 215.29 228.237 216.13 226.667 216.13C224.587 216.13 223.377 214.56 223.377 212.36C223.377 210.12 224.707 208.62 226.747 208.62C228.247 208.62 229.447 209.51 229.767 211.06H228.777C228.567 210.15 227.847 209.48 226.697 209.48C225.417 209.48 224.417 210.48 224.417 212.36C224.417 214.2 225.377 215.27 226.727 215.27C227.887 215.27 228.587 214.62 228.817 213.69ZM234.673 211.07C234.673 210.07 234.063 209.38 233.103 209.38C232.163 209.38 231.513 210.08 231.513 211.07C231.513 212.06 232.163 212.78 233.093 212.78C234.043 212.78 234.673 212.06 234.673 211.07ZM233.003 215.37C234.123 215.37 234.743 214.25 234.793 212.57C234.463 213.14 233.833 213.58 232.873 213.58C231.533 213.58 230.543 212.58 230.543 211.11C230.543 209.77 231.543 208.62 233.093 208.62C234.903 208.62 235.733 209.88 235.733 212.12C235.733 214.16 234.983 216.13 232.903 216.13C231.483 216.13 230.823 215.24 230.663 214.32H231.653C231.773 214.97 232.253 215.37 233.003 215.37ZM239.357 208.62C240.837 208.62 241.777 209.4 241.777 210.47C241.777 211.07 241.497 211.74 240.777 212.14C241.707 212.51 241.997 213.3 241.997 213.96C241.997 215.35 240.837 216.13 239.357 216.13C237.867 216.13 236.707 215.35 236.707 213.96C236.707 213.31 236.987 212.51 237.937 212.14C237.217 211.74 236.937 211.07 236.937 210.47C236.937 209.4 237.877 208.62 239.357 208.62ZM239.357 212.52C238.317 212.52 237.677 213.11 237.677 213.96C237.677 214.81 238.317 215.37 239.357 215.37C240.387 215.37 241.037 214.81 241.037 213.96C241.037 213.11 240.387 212.52 239.357 212.52ZM240.857 210.58C240.857 209.86 240.267 209.38 239.357 209.38C238.437 209.38 237.847 209.86 237.847 210.58C237.847 211.31 238.447 211.85 239.357 211.85C240.267 211.85 240.857 211.31 240.857 210.58ZM243.346 216V208.75H245.956C247.306 208.75 248.506 209.1 248.506 210.54C248.506 211.23 248.216 211.85 247.706 212.14C248.396 212.43 248.806 212.97 248.806 213.86C248.806 215.4 247.656 216 246.206 216H243.346ZM244.366 212.66V215.14H246.216C247.256 215.14 247.756 214.7 247.756 213.87C247.756 213.02 247.246 212.66 246.156 212.66H244.366ZM244.366 209.61V211.85H246.116C246.956 211.85 247.476 211.53 247.476 210.68C247.476 209.93 246.926 209.61 246.116 209.61H244.366Z" fill="#29292D"/>
<rect x="204" y="111" width="75" height="75" fill="#5EC98B"/>
<path d="M322.25 193.5C321.09 193.5 320.5 194.49 320.5 196.36C320.5 198.15 321.05 199.25 322.25 199.25C323.13 199.25 323.94 198.86 323.94 197.37V197.14H322.27V196.24H324.81V200H324.09L324.05 199.09C323.62 199.84 323.09 200.13 322.21 200.13C320.33 200.13 319.52 198.56 319.52 196.36C319.52 194.12 320.46 192.62 322.3 192.62C323.66 192.62 324.56 193.51 324.79 194.99H323.81C323.68 194.15 323.3 193.5 322.25 193.5ZM327.665 192.75V199.1H331.225V200H326.715V192.75H327.665ZM335.67 192.75L338.05 200H337.03L336.54 198.45H333.77L333.29 200H332.27L334.65 192.75H335.67ZM335.16 194.02L334.05 197.56H336.26L335.16 194.02ZM343.225 197.75H344.175C343.925 199.31 342.975 200.13 341.655 200.13C339.885 200.13 339.055 198.56 339.055 196.36C339.055 194.11 339.995 192.61 341.725 192.61C342.975 192.61 343.915 193.58 344.155 195.05H343.185C343.055 194.23 342.615 193.5 341.695 193.5C340.645 193.5 340.035 194.49 340.035 196.36C340.035 198.15 340.595 199.25 341.715 199.25C342.645 199.25 343.095 198.63 343.225 197.75ZM345.779 193.65V192.75H350.389V193.65H348.559V199.1H350.389V200H345.779V199.1H347.609V193.65H345.779ZM355.064 192.75L357.444 200H356.424L355.934 198.45H353.164L352.684 200H351.664L354.044 192.75H355.064ZM354.554 194.02L353.444 197.56H355.654L354.554 194.02ZM359.989 192.75V199.1H363.549V200H359.039V192.75H359.989ZM375.649 196.37C375.649 193.9 374.219 193.65 372.869 193.65H372.609V199.1H372.869C374.219 199.1 375.649 198.83 375.649 196.37ZM371.659 192.75H372.899C374.959 192.75 376.619 193.6 376.619 196.37C376.619 199.13 374.959 200 372.899 200H371.659V192.75ZM381.994 200L380.574 196.94C380.404 196.95 380.234 196.95 380.044 196.95H379.224V200H378.274V192.75H380.044C381.624 192.75 382.844 193.09 382.844 194.82C382.844 195.95 382.334 196.51 381.534 196.76L383.074 200H381.994ZM380.154 193.65H379.224V196.05H380.154C381.114 196.05 381.864 195.96 381.864 194.84C381.864 193.72 381.114 193.65 380.154 193.65ZM384.568 193.65V192.75H389.178V193.65H387.348V199.1H389.178V200H384.568V199.1H386.398V193.65H384.568ZM391.413 200V192.75H395.873V193.65H392.363V195.81H395.683V196.71H392.363V200H391.413ZM399.328 200V193.65H397.148V192.75H402.458V193.65H400.278V200H399.328Z" fill="#29292D"/>
<path d="M319.65 210.62H321.07L321.33 208.75H322.07L321.81 210.62H323.37L323.63 208.75H324.37L324.11 210.62H325.45L325.35 211.33H324.01L323.77 213.07H325.12L325.02 213.78H323.67L323.37 216H322.63L322.93 213.78H321.37L321.07 216H320.33L320.63 213.78H319.22L319.32 213.07H320.73L320.97 211.33H319.55L319.65 210.62ZM321.71 211.33L321.47 213.07H323.03L323.27 211.33H321.71ZM328.48 215.37C329.44 215.37 330.12 214.88 330.12 213.97C330.12 212.93 329.19 212.59 328.03 212.59H327.88V211.76H328C329.27 211.76 329.93 211.41 329.93 210.56C329.93 209.79 329.29 209.38 328.52 209.38C327.55 209.38 327.02 209.96 326.94 210.79H326C326.11 209.51 327.02 208.62 328.54 208.62C329.79 208.62 330.89 209.13 330.89 210.46C330.89 211.21 330.47 211.83 329.71 212.14C330.79 212.49 331.09 213.19 331.09 213.96C331.09 215.42 329.86 216.13 328.47 216.13C326.75 216.13 326 215.07 325.89 213.86H326.83C326.94 214.75 327.45 215.37 328.48 215.37ZM336.079 211.07C336.079 210.07 335.469 209.38 334.509 209.38C333.569 209.38 332.919 210.08 332.919 211.07C332.919 212.06 333.569 212.78 334.499 212.78C335.449 212.78 336.079 212.06 336.079 211.07ZM334.409 215.37C335.529 215.37 336.149 214.25 336.199 212.57C335.869 213.14 335.239 213.58 334.279 213.58C332.939 213.58 331.949 212.58 331.949 211.11C331.949 209.77 332.949 208.62 334.499 208.62C336.309 208.62 337.139 209.88 337.139 212.12C337.139 214.16 336.389 216.13 334.309 216.13C332.889 216.13 332.229 215.24 332.069 214.32H333.059C333.179 214.97 333.659 215.37 334.409 215.37ZM337.743 209.6V208.75H342.763V209.6C340.963 211.05 339.863 213.28 339.693 216H338.593C338.753 213.39 339.893 211.17 341.703 209.6H337.743ZM348.71 213.69H349.7C349.38 215.29 348.13 216.13 346.56 216.13C344.48 216.13 343.27 214.56 343.27 212.36C343.27 210.12 344.6 208.62 346.64 208.62C348.14 208.62 349.34 209.51 349.66 211.06H348.67C348.46 210.15 347.74 209.48 346.59 209.48C345.31 209.48 344.31 210.48 344.31 212.36C344.31 214.2 345.27 215.27 346.62 215.27C347.78 215.27 348.48 214.62 348.71 213.69ZM349.918 216L352.608 208.75H353.788L356.518 216H355.418L354.848 214.43H351.518L350.958 216H349.918ZM353.168 209.78L351.828 213.56H354.528L353.168 209.78ZM359.54 208.62C360.88 208.62 361.84 209.29 361.84 210.52C361.84 212.2 360.09 213.68 358.06 215.15H362.04V216H356.82V215.18C359.38 213.29 360.88 211.93 360.88 210.64C360.88 209.88 360.39 209.38 359.52 209.38C358.74 209.38 357.99 209.81 357.96 211.01H357.02C356.99 209.57 357.99 208.62 359.54 208.62Z" fill="#29292D"/>
<rect x="319" y="111" width="75" height="75" fill="#397CA2"/>
<path d="M437.23 192.62C439.04 192.62 439.94 194.18 439.94 196.37C439.94 198.56 439.04 200.13 437.23 200.13C435.42 200.13 434.52 198.56 434.52 196.37C434.52 194.18 435.42 192.62 437.23 192.62ZM437.23 193.5C436.03 193.5 435.5 194.53 435.5 196.37C435.5 198.21 436.03 199.25 437.23 199.25C438.43 199.25 438.96 198.2 438.96 196.37C438.96 194.54 438.43 193.5 437.23 193.5ZM445.295 197.75H446.245C445.995 199.31 445.045 200.13 443.725 200.13C441.955 200.13 441.125 198.56 441.125 196.36C441.125 194.11 442.065 192.61 443.795 192.61C445.045 192.61 445.985 193.58 446.225 195.05H445.255C445.125 194.23 444.685 193.5 443.765 193.5C442.715 193.5 442.105 194.49 442.105 196.36C442.105 198.15 442.665 199.25 443.785 199.25C444.715 199.25 445.165 198.63 445.295 197.75ZM448.05 200V192.75H452.37V193.65H449V195.81H452.17V196.71H449V199.1H452.37V200H448.05ZM457.135 192.75L459.515 200H458.495L458.005 198.45H455.235L454.755 200H453.735L456.115 192.75H457.135ZM456.625 194.02L455.515 197.56H457.725L456.625 194.02ZM465.429 200H464.009L461.689 193.81V200H460.739V192.75H462.159L464.479 198.92V192.75H465.429V200ZM468.974 196.58C468.014 196.37 467.144 195.77 467.144 194.61C467.144 193.36 468.224 192.62 469.524 192.62C470.644 192.62 471.774 193.22 471.934 194.66H470.994C470.884 193.79 470.134 193.5 469.474 193.5C468.814 193.5 468.124 193.83 468.124 194.58C468.124 195.22 468.584 195.53 469.174 195.66L469.894 195.82C471.054 196.08 472.084 196.58 472.084 197.97C472.084 199.32 471.034 200.13 469.634 200.13C468.154 200.13 467.094 199.18 467.014 197.74H467.954C468.064 198.71 468.734 199.25 469.664 199.25C470.384 199.25 471.124 198.88 471.124 198.04C471.124 197.28 470.564 196.96 469.764 196.77L468.974 196.58ZM475.539 200V193.65H473.359V192.75H478.669V193.65H476.489V200H475.539ZM482.484 192.62C484.294 192.62 485.194 194.18 485.194 196.37C485.194 198.56 484.294 200.13 482.484 200.13C480.674 200.13 479.774 198.56 479.774 196.37C479.774 194.18 480.674 192.62 482.484 192.62ZM482.484 193.5C481.284 193.5 480.754 194.53 480.754 196.37C480.754 198.21 481.284 199.25 482.484 199.25C483.684 199.25 484.214 198.2 484.214 196.37C484.214 194.54 483.684 193.5 482.484 193.5ZM491.289 200H489.869L487.549 193.81V200H486.599V192.75H488.019L490.339 198.92V192.75H491.289V200ZM493.304 200V192.75H497.624V193.65H494.254V195.81H497.424V196.71H494.254V199.1H497.624V200H493.304Z" fill="#29292D"/>
<path d="M434.65 210.62H436.07L436.33 208.75H437.07L436.81 210.62H438.37L438.63 208.75H439.37L439.11 210.62H440.45L440.35 211.33H439.01L438.77 213.07H440.12L440.02 213.78H438.67L438.37 216H437.63L437.93 213.78H436.37L436.07 216H435.33L435.63 213.78H434.22L434.32 213.07H435.73L435.97 211.33H434.55L434.65 210.62ZM436.71 211.33L436.47 213.07H438.03L438.27 211.33H436.71ZM443.48 215.37C444.44 215.37 445.12 214.88 445.12 213.97C445.12 212.93 444.19 212.59 443.03 212.59H442.88V211.76H443C444.27 211.76 444.93 211.41 444.93 210.56C444.93 209.79 444.29 209.38 443.52 209.38C442.55 209.38 442.02 209.96 441.94 210.79H441C441.11 209.51 442.02 208.62 443.54 208.62C444.79 208.62 445.89 209.13 445.89 210.46C445.89 211.21 445.47 211.83 444.71 212.14C445.79 212.49 446.09 213.19 446.09 213.96C446.09 215.42 444.86 216.13 443.47 216.13C441.75 216.13 441 215.07 440.89 213.86H441.83C441.94 214.75 442.45 215.37 443.48 215.37ZM451.679 212.37C451.679 210.36 450.959 209.38 449.829 209.38C448.679 209.38 447.979 210.36 447.979 212.37C447.979 214.4 448.679 215.37 449.829 215.37C450.979 215.37 451.679 214.4 451.679 212.37ZM452.649 212.37C452.649 214.66 451.759 216.13 449.829 216.13C447.899 216.13 447.009 214.66 447.009 212.37C447.009 210.08 447.899 208.62 449.829 208.62C451.759 208.62 452.649 210.08 452.649 212.37ZM453.251 209.6V208.75H458.271V209.6C456.471 211.05 455.371 213.28 455.201 216H454.101C454.261 213.39 455.401 211.17 457.211 209.6H453.251ZM461.288 208.62C462.628 208.62 463.588 209.29 463.588 210.52C463.588 212.2 461.838 213.68 459.808 215.15H463.788V216H458.568V215.18C461.128 213.29 462.628 211.93 462.628 210.64C462.628 209.88 462.138 209.38 461.268 209.38C460.488 209.38 459.738 209.81 459.708 211.01H458.768C458.738 209.57 459.738 208.62 461.288 208.62ZM464.276 209.6V208.75H469.296V209.6C467.496 211.05 466.396 213.28 466.226 216H465.126C465.286 213.39 466.426 211.17 468.236 209.6H464.276ZM470.153 216V208.75H472.763C474.113 208.75 475.313 209.1 475.313 210.54C475.313 211.23 475.023 211.85 474.513 212.14C475.203 212.43 475.613 212.97 475.613 213.86C475.613 215.4 474.463 216 473.013 216H470.153ZM471.173 212.66V215.14H473.023C474.063 215.14 474.563 214.7 474.563 213.87C474.563 213.02 474.053 212.66 472.963 212.66H471.173ZM471.173 209.61V211.85H472.923C473.763 211.85 474.283 211.53 474.283 210.68C474.283 209.93 473.733 209.61 472.923 209.61H471.173Z" fill="#29292D"/>
<rect x="434" y="111" width="75" height="75" fill="#30727B"/>
<path d="M92.23 327.62C94.04 327.62 94.94 329.18 94.94 331.37C94.94 333.56 94.04 335.13 92.23 335.13C90.42 335.13 89.52 333.56 89.52 331.37C89.52 329.18 90.42 327.62 92.23 327.62ZM92.23 328.5C91.03 328.5 90.5 329.53 90.5 331.37C90.5 333.21 91.03 334.25 92.23 334.25C93.43 334.25 93.96 333.2 93.96 331.37C93.96 329.54 93.43 328.5 92.23 328.5ZM96.4648 335V327.75H98.6048C99.8148 327.75 100.985 328.1 100.985 329.54C100.985 330.23 100.735 330.84 100.265 331.13C100.895 331.42 101.255 331.96 101.255 332.85C101.255 334.39 100.135 335 98.8248 335H96.4648ZM97.4148 331.68V334.1H98.9048C99.8148 334.1 100.275 333.69 100.275 332.86C100.275 332.01 99.8248 331.68 98.8348 331.68H97.4148ZM97.4148 328.65V330.83H98.8048C99.5648 330.83 100.035 330.53 100.035 329.68C100.035 328.93 99.5348 328.65 98.8048 328.65H97.4148ZM104.58 331.58C103.62 331.37 102.75 330.77 102.75 329.61C102.75 328.36 103.83 327.62 105.13 327.62C106.25 327.62 107.38 328.22 107.54 329.66H106.6C106.49 328.79 105.74 328.5 105.08 328.5C104.42 328.5 103.73 328.83 103.73 329.58C103.73 330.22 104.19 330.53 104.78 330.66L105.5 330.82C106.66 331.08 107.69 331.58 107.69 332.97C107.69 334.32 106.64 335.13 105.24 335.13C103.76 335.13 102.7 334.18 102.62 332.74H103.56C103.67 333.71 104.34 334.25 105.27 334.25C105.99 334.25 106.73 333.88 106.73 333.04C106.73 332.28 106.17 331.96 105.37 331.77L104.58 331.58ZM109.315 328.65V327.75H113.925V328.65H112.095V334.1H113.925V335H109.315V334.1H111.145V328.65H109.315ZM119.789 331.37C119.789 328.9 118.359 328.65 117.009 328.65H116.749V334.1H117.009C118.359 334.1 119.789 333.83 119.789 331.37ZM115.799 327.75H117.039C119.099 327.75 120.759 328.6 120.759 331.37C120.759 334.13 119.099 335 117.039 335H115.799V327.75ZM122.244 328.65V327.75H126.854V328.65H125.024V334.1H126.854V335H122.244V334.1H124.074V328.65H122.244ZM131.529 327.75L133.909 335H132.889L132.399 333.45H129.629L129.149 335H128.129L130.509 327.75H131.529ZM131.019 329.02L129.909 332.56H132.119L131.019 329.02ZM139.824 335H138.404L136.084 328.81V335H135.134V327.75H136.554L138.874 333.92V327.75H139.824V335Z" fill="#29292D"/>
<path d="M89.65 345.62H91.07L91.33 343.75H92.07L91.81 345.62H93.37L93.63 343.75H94.37L94.11 345.62H95.45L95.35 346.33H94.01L93.77 348.07H95.12L95.02 348.78H93.67L93.37 351H92.63L92.93 348.78H91.37L91.07 351H90.33L90.63 348.78H89.22L89.32 348.07H90.73L90.97 346.33H89.55L89.65 345.62ZM91.71 346.33L91.47 348.07H93.03L93.27 346.33H91.71ZM98.6802 343.62C100.02 343.62 100.98 344.29 100.98 345.52C100.98 347.2 99.2302 348.68 97.2002 350.15H101.18V351H95.9602V350.18C98.5202 348.29 100.02 346.93 100.02 345.64C100.02 344.88 99.5302 344.38 98.6602 344.38C97.8802 344.38 97.1302 344.81 97.1002 346.01H96.1602C96.1302 344.57 97.1302 343.62 98.6802 343.62ZM106.109 346.07C106.109 345.07 105.499 344.38 104.539 344.38C103.599 344.38 102.949 345.08 102.949 346.07C102.949 347.06 103.599 347.78 104.529 347.78C105.479 347.78 106.109 347.06 106.109 346.07ZM104.439 350.37C105.559 350.37 106.179 349.25 106.229 347.57C105.899 348.14 105.269 348.58 104.309 348.58C102.969 348.58 101.979 347.58 101.979 346.11C101.979 344.77 102.979 343.62 104.529 343.62C106.339 343.62 107.169 344.88 107.169 347.12C107.169 349.16 106.419 351.13 104.339 351.13C102.919 351.13 102.259 350.24 102.099 349.32H103.089C103.209 349.97 103.689 350.37 104.439 350.37ZM110.682 343.62C112.022 343.62 112.982 344.29 112.982 345.52C112.982 347.2 111.232 348.68 109.202 350.15H113.182V351H107.962V350.18C110.522 348.29 112.022 346.93 112.022 345.64C112.022 344.88 111.532 344.38 110.662 344.38C109.882 344.38 109.132 344.81 109.102 346.01H108.162C108.132 344.57 109.132 343.62 110.682 343.62ZM118.111 346.07C118.111 345.07 117.501 344.38 116.541 344.38C115.601 344.38 114.951 345.08 114.951 346.07C114.951 347.06 115.601 347.78 116.531 347.78C117.481 347.78 118.111 347.06 118.111 346.07ZM116.441 350.37C117.561 350.37 118.181 349.25 118.231 347.57C117.901 348.14 117.271 348.58 116.311 348.58C114.971 348.58 113.981 347.58 113.981 346.11C113.981 344.77 114.981 343.62 116.531 343.62C118.341 343.62 119.171 344.88 119.171 347.12C119.171 349.16 118.421 351.13 116.341 351.13C114.921 351.13 114.261 350.24 114.101 349.32H115.091C115.211 349.97 115.691 350.37 116.441 350.37ZM122.684 343.62C124.024 343.62 124.984 344.29 124.984 345.52C124.984 347.2 123.234 348.68 121.204 350.15H125.184V351H119.964V350.18C122.524 348.29 124.024 346.93 124.024 345.64C124.024 344.88 123.534 344.38 122.664 344.38C121.884 344.38 121.134 344.81 121.104 346.01H120.164C120.134 344.57 121.134 343.62 122.684 343.62ZM131.313 347.37C131.313 344.91 129.863 344.61 128.373 344.61H127.443V350.14H128.373C129.863 350.14 131.313 349.84 131.313 347.37ZM126.423 343.75H128.403C130.693 343.75 132.353 344.62 132.353 347.37C132.353 350.13 130.693 351 128.403 351H126.423V343.75Z" fill="#29292D"/>
<rect x="89" y="246" width="75" height="75" fill="#29292D"/>
<path d="M204.79 327.75H205.74V332.16C205.74 333.58 205.99 334.25 207.22 334.25C208.46 334.25 208.72 333.48 208.72 332.05V327.75H209.67V331.97C209.67 334.09 209.11 335.13 207.22 335.13C205.41 335.13 204.79 334.31 204.79 332.05V327.75ZM215.275 335L213.855 331.94C213.685 331.95 213.515 331.95 213.325 331.95H212.505V335H211.555V327.75H213.325C214.905 327.75 216.125 328.09 216.125 329.82C216.125 330.95 215.615 331.51 214.815 331.76L216.355 335H215.275ZM213.435 328.65H212.505V331.05H213.435C214.395 331.05 215.145 330.96 215.145 329.84C215.145 328.72 214.395 328.65 213.435 328.65ZM217.93 335V327.75H220.07C221.28 327.75 222.45 328.1 222.45 329.54C222.45 330.23 222.2 330.84 221.73 331.13C222.36 331.42 222.72 331.96 222.72 332.85C222.72 334.39 221.6 335 220.29 335H217.93ZM218.88 331.68V334.1H220.37C221.28 334.1 221.74 333.69 221.74 332.86C221.74 332.01 221.29 331.68 220.3 331.68H218.88ZM218.88 328.65V330.83H220.27C221.03 330.83 221.5 330.53 221.5 329.68C221.5 328.93 221 328.65 220.27 328.65H218.88ZM227.135 327.75L229.515 335H228.495L228.005 333.45H225.235L224.755 335H223.735L226.115 327.75H227.135ZM226.625 329.02L225.515 332.56H227.725L226.625 329.02ZM235.429 335H234.009L231.689 328.81V335H230.739V327.75H232.159L234.479 333.92V327.75H235.429V335ZM244.089 335V327.75H248.549V328.65H245.039V330.81H248.359V331.71H245.039V335H244.089ZM252.484 327.62C254.294 327.62 255.194 329.18 255.194 331.37C255.194 333.56 254.294 335.13 252.484 335.13C250.674 335.13 249.774 333.56 249.774 331.37C249.774 329.18 250.674 327.62 252.484 327.62ZM252.484 328.5C251.284 328.5 250.754 329.53 250.754 331.37C250.754 333.21 251.284 334.25 252.484 334.25C253.684 334.25 254.214 333.2 254.214 331.37C254.214 329.54 253.684 328.5 252.484 328.5ZM258.969 328.5C257.809 328.5 257.219 329.49 257.219 331.36C257.219 333.15 257.769 334.25 258.969 334.25C259.849 334.25 260.659 333.86 260.659 332.37V332.14H258.989V331.24H261.529V335H260.809L260.769 334.09C260.339 334.84 259.809 335.13 258.929 335.13C257.049 335.13 256.239 333.56 256.239 331.36C256.239 329.12 257.179 327.62 259.019 327.62C260.379 327.62 261.279 328.51 261.509 329.99H260.529C260.399 329.15 260.019 328.5 258.969 328.5Z" fill="#29292D"/>
<path d="M204.65 345.62H206.07L206.33 343.75H207.07L206.81 345.62H208.37L208.63 343.75H209.37L209.11 345.62H210.45L210.35 346.33H209.01L208.77 348.07H210.12L210.02 348.78H208.67L208.37 351H207.63L207.93 348.78H206.37L206.07 351H205.33L205.63 348.78H204.22L204.32 348.07H205.73L205.97 346.33H204.55L204.65 345.62ZM206.71 346.33L206.47 348.07H208.03L208.27 346.33H206.71ZM210.77 344.6V343.75H215.79V344.6C213.99 346.05 212.89 348.28 212.72 351H211.62C211.78 348.39 212.92 346.17 214.73 344.6H210.77ZM218.607 350.37C219.567 350.37 220.247 349.88 220.247 348.97C220.247 347.93 219.317 347.59 218.157 347.59H218.007V346.76H218.127C219.397 346.76 220.057 346.41 220.057 345.56C220.057 344.79 219.417 344.38 218.647 344.38C217.677 344.38 217.147 344.96 217.067 345.79H216.127C216.237 344.51 217.147 343.62 218.667 343.62C219.917 343.62 221.017 344.13 221.017 345.46C221.017 346.21 220.597 346.83 219.837 347.14C220.917 347.49 221.217 348.19 221.217 348.96C221.217 350.42 219.987 351.13 218.597 351.13C216.877 351.13 216.127 350.07 216.017 348.86H216.957C217.067 349.75 217.577 350.37 218.607 350.37ZM221.766 344.6V343.75H226.786V344.6C224.986 346.05 223.886 348.28 223.716 351H222.616C222.776 348.39 223.916 346.17 225.726 344.6H221.766ZM229.603 350.37C230.563 350.37 231.243 349.88 231.243 348.97C231.243 347.93 230.313 347.59 229.153 347.59H229.003V346.76H229.123C230.393 346.76 231.053 346.41 231.053 345.56C231.053 344.79 230.413 344.38 229.643 344.38C228.673 344.38 228.143 344.96 228.063 345.79H227.123C227.233 344.51 228.143 343.62 229.663 343.62C230.913 343.62 232.013 344.13 232.013 345.46C232.013 346.21 231.593 346.83 230.833 347.14C231.913 347.49 232.213 348.19 232.213 348.96C232.213 350.42 230.983 351.13 229.593 351.13C227.873 351.13 227.123 350.07 227.013 348.86H227.953C228.063 349.75 228.573 350.37 229.603 350.37ZM232.762 344.6V343.75H237.782V344.6C235.982 346.05 234.882 348.28 234.712 351H233.612C233.772 348.39 234.912 346.17 236.722 344.6H232.762ZM240.599 350.37C241.559 350.37 242.239 349.88 242.239 348.97C242.239 347.93 241.309 347.59 240.149 347.59H239.999V346.76H240.119C241.389 346.76 242.049 346.41 242.049 345.56C242.049 344.79 241.409 344.38 240.639 344.38C239.669 344.38 239.139 344.96 239.059 345.79H238.119C238.229 344.51 239.139 343.62 240.659 343.62C241.909 343.62 243.009 344.13 243.009 345.46C243.009 346.21 242.589 346.83 241.829 347.14C242.909 347.49 243.209 348.19 243.209 348.96C243.209 350.42 241.979 351.13 240.589 351.13C238.869 351.13 238.119 350.07 238.009 348.86H238.949C239.059 349.75 239.569 350.37 240.599 350.37Z" fill="#29292D"/>
<rect x="204" y="246" width="75" height="75" fill="#737373"/>
<path d="M322.71 332.5H321.75L320.69 328.68V335H319.74V327.75H321.23L322.23 331.46L323.23 327.75H324.72V335H323.77V328.68L322.71 332.5ZM328.695 327.62C330.505 327.62 331.405 329.18 331.405 331.37C331.405 333.56 330.505 335.13 328.695 335.13C326.885 335.13 325.985 333.56 325.985 331.37C325.985 329.18 326.885 327.62 328.695 327.62ZM328.695 328.5C327.495 328.5 326.965 329.53 326.965 331.37C326.965 333.21 327.495 334.25 328.695 334.25C329.895 334.25 330.425 333.2 330.425 331.37C330.425 329.54 329.895 328.5 328.695 328.5ZM335.16 327.62C336.97 327.62 337.87 329.18 337.87 331.37C337.87 333.56 336.97 335.13 335.16 335.13C333.35 335.13 332.45 333.56 332.45 331.37C332.45 329.18 333.35 327.62 335.16 327.62ZM335.16 328.5C333.96 328.5 333.43 329.53 333.43 331.37C333.43 333.21 333.96 334.25 335.16 334.25C336.36 334.25 336.89 333.2 336.89 331.37C336.89 329.54 336.36 328.5 335.16 328.5ZM343.965 335H342.545L340.225 328.81V335H339.275V327.75H340.695L343.015 333.92V327.75H343.965V335ZM347.509 331.58C346.549 331.37 345.679 330.77 345.679 329.61C345.679 328.36 346.759 327.62 348.059 327.62C349.179 327.62 350.309 328.22 350.469 329.66H349.529C349.419 328.79 348.669 328.5 348.009 328.5C347.349 328.5 346.659 328.83 346.659 329.58C346.659 330.22 347.119 330.53 347.709 330.66L348.429 330.82C349.589 331.08 350.619 331.58 350.619 332.97C350.619 334.32 349.569 335.13 348.169 335.13C346.689 335.13 345.629 334.18 345.549 332.74H346.489C346.599 333.71 347.269 334.25 348.199 334.25C348.919 334.25 349.659 333.88 349.659 333.04C349.659 332.28 349.099 331.96 348.299 331.77L347.509 331.58ZM354.074 335V328.65H351.894V327.75H357.204V328.65H355.024V335H354.074ZM361.019 327.62C362.829 327.62 363.729 329.18 363.729 331.37C363.729 333.56 362.829 335.13 361.019 335.13C359.209 335.13 358.309 333.56 358.309 331.37C358.309 329.18 359.209 327.62 361.019 327.62ZM361.019 328.5C359.819 328.5 359.289 329.53 359.289 331.37C359.289 333.21 359.819 334.25 361.019 334.25C362.219 334.25 362.749 333.2 362.749 331.37C362.749 329.54 362.219 328.5 361.019 328.5ZM369.824 335H368.404L366.084 328.81V335H365.134V327.75H366.554L368.874 333.92V327.75H369.824V335ZM371.839 335V327.75H376.159V328.65H372.789V330.81H375.959V331.71H372.789V334.1H376.159V335H371.839Z" fill="#29292D"/>
<path d="M319.65 345.62H321.07L321.33 343.75H322.07L321.81 345.62H323.37L323.63 343.75H324.37L324.11 345.62H325.45L325.35 346.33H324.01L323.77 348.07H325.12L325.02 348.78H323.67L323.37 351H322.63L322.93 348.78H321.37L321.07 351H320.33L320.63 348.78H319.22L319.32 348.07H320.73L320.97 346.33H319.55L319.65 345.62ZM321.71 346.33L321.47 348.07H323.03L323.27 346.33H321.71ZM331.61 348.69H332.6C332.28 350.29 331.03 351.13 329.46 351.13C327.38 351.13 326.17 349.56 326.17 347.36C326.17 345.12 327.5 343.62 329.54 343.62C331.04 343.62 332.24 344.51 332.56 346.06H331.57C331.36 345.15 330.64 344.48 329.49 344.48C328.21 344.48 327.21 345.48 327.21 347.36C327.21 349.2 328.17 350.27 329.52 350.27C330.68 350.27 331.38 349.62 331.61 348.69ZM333.776 351V343.75H338.486V344.63H334.796V346.83H338.276V347.71H334.796V351H333.776ZM344.462 348.69H345.452C345.132 350.29 343.882 351.13 342.312 351.13C340.232 351.13 339.022 349.56 339.022 347.36C339.022 345.12 340.352 343.62 342.392 343.62C343.892 343.62 345.092 344.51 345.412 346.06H344.422C344.212 345.15 343.492 344.48 342.342 344.48C341.062 344.48 340.062 345.48 340.062 347.36C340.062 349.2 341.022 350.27 342.372 350.27C343.532 350.27 344.232 349.62 344.462 348.69ZM346.628 351V343.75H351.338V344.63H347.648V346.83H351.128V347.71H347.648V351H346.628ZM357.313 348.69H358.303C357.983 350.29 356.733 351.13 355.163 351.13C353.083 351.13 351.873 349.56 351.873 347.36C351.873 345.12 353.203 343.62 355.243 343.62C356.743 343.62 357.943 344.51 358.263 346.06H357.273C357.063 345.15 356.343 344.48 355.193 344.48C353.913 344.48 352.913 345.48 352.913 347.36C352.913 349.2 353.873 350.27 355.223 350.27C356.383 350.27 357.083 349.62 357.313 348.69ZM359.479 351V343.75H364.189V344.63H360.499V346.83H363.979V347.71H360.499V351H359.479Z" fill="#29292D"/>
<rect x="319" y="246" width="75" height="75" fill="#CFCFCF"/>
<path d="M436.65 331.58C435.69 331.37 434.82 330.77 434.82 329.61C434.82 328.36 435.9 327.62 437.2 327.62C438.32 327.62 439.45 328.22 439.61 329.66H438.67C438.56 328.79 437.81 328.5 437.15 328.5C436.49 328.5 435.8 328.83 435.8 329.58C435.8 330.22 436.26 330.53 436.85 330.66L437.57 330.82C438.73 331.08 439.76 331.58 439.76 332.97C439.76 334.32 438.71 335.13 437.31 335.13C435.83 335.13 434.77 334.18 434.69 332.74H435.63C435.74 333.71 436.41 334.25 437.34 334.25C438.06 334.25 438.8 333.88 438.8 333.04C438.8 332.28 438.24 331.96 437.44 331.77L436.65 331.58ZM446.035 335H444.615L442.295 328.81V335H441.345V327.75H442.765L445.085 333.92V327.75H446.035V335ZM450.16 327.62C451.97 327.62 452.87 329.18 452.87 331.37C452.87 333.56 451.97 335.13 450.16 335.13C448.35 335.13 447.45 333.56 447.45 331.37C447.45 329.18 448.35 327.62 450.16 327.62ZM450.16 328.5C448.96 328.5 448.43 329.53 448.43 331.37C448.43 333.21 448.96 334.25 450.16 334.25C451.36 334.25 451.89 333.2 451.89 331.37C451.89 329.54 451.36 328.5 450.16 328.5ZM457.135 329.96L457.935 333.62L458.475 327.75H459.425L458.695 335H457.465L456.625 331.22L455.785 335H454.545L453.825 327.75H454.775L455.305 333.62L456.105 329.96H457.135ZM462.579 335L460.299 327.75H461.319L463.079 333.73L464.849 327.75H465.869L463.589 335H462.579ZM467.444 335V327.75H471.764V328.65H468.394V330.81H471.564V331.71H468.394V334.1H471.764V335H467.444ZM473.709 328.65V327.75H478.319V328.65H476.489V334.1H478.319V335H473.709V334.1H475.539V328.65H473.709ZM481.454 327.75V334.1H485.014V335H480.504V327.75H481.454Z" fill="#29292D"/>
<path d="M434.65 345.62H436.07L436.33 343.75H437.07L436.81 345.62H438.37L438.63 343.75H439.37L439.11 345.62H440.45L440.35 346.33H439.01L438.77 348.07H440.12L440.02 348.78H438.67L438.37 351H437.63L437.93 348.78H436.37L436.07 351H435.33L435.63 348.78H434.22L434.32 348.07H435.73L435.97 346.33H434.55L434.65 345.62ZM436.71 346.33L436.47 348.07H438.03L438.27 346.33H436.71ZM441.52 351V343.75H446.44V344.63H442.54V346.83H446.21V347.71H442.54V350.12H446.44V351H441.52ZM447.653 351V343.75H452.573V344.63H448.673V346.83H452.343V347.71H448.673V350.12H452.573V351H447.653ZM453.786 351V343.75H458.706V344.63H454.806V346.83H458.476V347.71H454.806V350.12H458.706V351H453.786ZM459.919 351V343.75H464.839V344.63H460.939V346.83H464.609V347.71H460.939V350.12H464.839V351H459.919ZM466.051 351V343.75H470.971V344.63H467.071V346.83H470.741V347.71H467.071V350.12H470.971V351H466.051ZM472.184 351V343.75H477.104V344.63H473.204V346.83H476.874V347.71H473.204V350.12H477.104V351H472.184Z" fill="#29292D"/>
<rect x="434" y="246" width="75" height="75" fill="#EEEEEE"/>
<path d="M92.74 464.96L93.54 468.62L94.08 462.75H95.03L94.3 470H93.07L92.23 466.22L91.39 470H90.15L89.43 462.75H90.38L90.91 468.62L91.71 464.96H92.74ZM99.2048 462.75L101.585 470H100.565L100.075 468.45H97.3048L96.8248 470H95.8048L98.1848 462.75H99.2048ZM98.6948 464.02L97.5848 467.56H99.7948L98.6948 464.02ZM102.85 463.65V462.75H107.46V463.65H105.63V469.1H107.46V470H102.85V469.1H104.68V463.65H102.85ZM111.145 470V463.65H108.965V462.75H114.275V463.65H112.095V470H111.145ZM117.059 462.75V469.1H120.619V470H116.109V462.75H117.059ZM122.244 463.65V462.75H126.854V463.65H125.024V469.1H126.854V470H122.244V469.1H124.074V463.65H122.244ZM130.439 466.58C129.479 466.37 128.609 465.77 128.609 464.61C128.609 463.36 129.689 462.62 130.989 462.62C132.109 462.62 133.239 463.22 133.399 464.66H132.459C132.349 463.79 131.599 463.5 130.939 463.5C130.279 463.5 129.589 463.83 129.589 464.58C129.589 465.22 130.049 465.53 130.639 465.66L131.359 465.82C132.519 466.08 133.549 466.58 133.549 467.97C133.549 469.32 132.499 470.13 131.099 470.13C129.619 470.13 128.559 469.18 128.479 467.74H129.419C129.529 468.71 130.199 469.25 131.129 469.25C131.849 469.25 132.589 468.88 132.589 468.04C132.589 467.28 132.029 466.96 131.229 466.77L130.439 466.58ZM137.004 470V463.65H134.824V462.75H140.134V463.65H137.954V470H137.004ZM150.414 466.3L152.274 462.75H153.384L150.884 467.28V470H149.934V467.28L147.434 462.75H148.544L150.414 466.3ZM155.848 462.75V469.1H159.408V470H154.898V462.75H155.848ZM163.853 464.96L164.653 468.62L165.193 462.75H166.143L165.413 470H164.183L163.343 466.22L162.503 470H161.263L160.543 462.75H161.493L162.023 468.62L162.823 464.96H163.853Z" fill="#29292D"/>
<path d="M89.65 480.62H91.07L91.33 478.75H92.07L91.81 480.62H93.37L93.63 478.75H94.37L94.11 480.62H95.45L95.35 481.33H94.01L93.77 483.07H95.12L95.02 483.78H93.67L93.37 486H92.63L92.93 483.78H91.37L91.07 486H90.33L90.63 483.78H89.22L89.32 483.07H90.73L90.97 481.33H89.55L89.65 480.62ZM91.71 481.33L91.47 483.07H93.03L93.27 481.33H91.71ZM96.5202 486V478.75H101.44V479.63H97.5402V481.83H101.21V482.71H97.5402V485.12H101.44V486H96.5202ZM107.743 483.69H108.733C108.413 485.29 107.163 486.13 105.593 486.13C103.513 486.13 102.303 484.56 102.303 482.36C102.303 480.12 103.633 478.62 105.673 478.62C107.173 478.62 108.373 479.51 108.693 481.06H107.703C107.493 480.15 106.773 479.48 105.623 479.48C104.343 479.48 103.343 480.48 103.343 482.36C103.343 484.2 104.303 485.27 105.653 485.27C106.813 485.27 107.513 484.62 107.743 483.69ZM114.999 483.69H115.989C115.669 485.29 114.419 486.13 112.849 486.13C110.769 486.13 109.559 484.56 109.559 482.36C109.559 480.12 110.889 478.62 112.929 478.62C114.429 478.62 115.629 479.51 115.949 481.06H114.959C114.749 480.15 114.029 479.48 112.879 479.48C111.599 479.48 110.599 480.48 110.599 482.36C110.599 484.2 111.559 485.27 112.909 485.27C114.069 485.27 114.769 484.62 114.999 483.69ZM117.165 486V478.75H122.085V479.63H118.185V481.83H121.855V482.71H118.185V485.12H122.085V486H117.165ZM123.968 483.68C123.968 484.68 124.588 485.37 125.548 485.37C126.468 485.37 127.138 484.67 127.138 483.68C127.138 482.69 126.488 481.96 125.558 481.96C124.608 481.96 123.968 482.69 123.968 483.68ZM125.638 479.38C124.508 479.38 123.907 480.5 123.858 482.18C124.188 481.61 124.808 481.17 125.768 481.17C127.118 481.17 128.108 482.18 128.108 483.63C128.108 484.98 127.108 486.13 125.558 486.13C123.748 486.13 122.918 484.87 122.918 482.63C122.918 480.59 123.638 478.62 125.748 478.62C127.168 478.62 127.828 479.51 127.988 480.43H126.998C126.878 479.78 126.388 479.38 125.638 479.38ZM132.36 480L129.77 483.35H132.36V480ZM134.61 483.35V484.21H133.28V486H132.36V484.21H128.76V483.35L132.35 478.75H133.28V483.35H134.61Z" fill="#29292D"/>
<rect x="89" y="381" width="75" height="75" fill="#ECCE64"/>
<path d="M207.74 464.96L208.54 468.62L209.08 462.75H210.03L209.3 470H208.07L207.23 466.22L206.39 470H205.15L204.43 462.75H205.38L205.91 468.62L206.71 464.96H207.74ZM214.205 462.75L216.585 470H215.565L215.075 468.45H212.305L211.825 470H210.805L213.185 462.75H214.205ZM213.695 464.02L212.585 467.56H214.795L213.695 464.02ZM221.74 470L220.32 466.94C220.15 466.95 219.98 466.95 219.79 466.95H218.97V470H218.02V462.75H219.79C221.37 462.75 222.59 463.09 222.59 464.82C222.59 465.95 222.08 466.51 221.28 466.76L222.82 470H221.74ZM219.9 463.65H218.97V466.05H219.9C220.86 466.05 221.61 465.96 221.61 464.84C221.61 463.72 220.86 463.65 219.9 463.65ZM228.965 470H227.545L225.225 463.81V470H224.275V462.75H225.695L228.015 468.92V462.75H228.965V470ZM230.779 463.65V462.75H235.389V463.65H233.559V469.1H235.389V470H230.779V469.1H232.609V463.65H230.779ZM241.894 470H240.474L238.154 463.81V470H237.204V462.75H238.624L240.944 468.92V462.75H241.894V470ZM246.039 463.5C244.879 463.5 244.289 464.49 244.289 466.36C244.289 468.15 244.839 469.25 246.039 469.25C246.919 469.25 247.729 468.86 247.729 467.37V467.14H246.059V466.24H248.599V470H247.879L247.839 469.09C247.409 469.84 246.879 470.13 245.999 470.13C244.119 470.13 243.309 468.56 243.309 466.36C243.309 464.12 244.249 462.62 246.089 462.62C247.449 462.62 248.349 463.51 248.579 464.99H247.599C247.469 464.15 247.089 463.5 246.039 463.5ZM260.529 470L259.109 466.94C258.939 466.95 258.769 466.95 258.579 466.95H257.759V470H256.809V462.75H258.579C260.159 462.75 261.379 463.09 261.379 464.82C261.379 465.95 260.869 466.51 260.069 466.76L261.609 470H260.529ZM258.689 463.65H257.759V466.05H258.689C259.649 466.05 260.399 465.96 260.399 464.84C260.399 463.72 259.649 463.65 258.689 463.65ZM263.304 470V462.75H267.624V463.65H264.254V465.81H267.424V466.71H264.254V469.1H267.624V470H263.304ZM273.578 466.37C273.578 463.9 272.148 463.65 270.798 463.65H270.538V469.1H270.798C272.148 469.1 273.578 468.83 273.578 466.37ZM269.588 462.75H270.828C272.888 462.75 274.548 463.6 274.548 466.37C274.548 469.13 272.888 470 270.828 470H269.588V462.75Z" fill="#29292D"/>
<path d="M204.65 480.62H206.07L206.33 478.75H207.07L206.81 480.62H208.37L208.63 478.75H209.37L209.11 480.62H210.45L210.35 481.33H209.01L208.77 483.07H210.12L210.02 483.78H208.67L208.37 486H207.63L207.93 483.78H206.37L206.07 486H205.33L205.63 483.78H204.22L204.32 483.07H205.73L205.97 481.33H204.55L204.65 480.62ZM206.71 481.33L206.47 483.07H208.03L208.27 481.33H206.71ZM216.61 483.69H217.6C217.28 485.29 216.03 486.13 214.46 486.13C212.38 486.13 211.17 484.56 211.17 482.36C211.17 480.12 212.5 478.62 214.54 478.62C216.04 478.62 217.24 479.51 217.56 481.06H216.57C216.36 480.15 215.64 479.48 214.49 479.48C213.21 479.48 212.21 480.48 212.21 482.36C212.21 484.2 213.17 485.27 214.52 485.27C215.68 485.27 216.38 484.62 216.61 483.69ZM218.026 479.6V478.75H223.046V479.6C221.246 481.05 220.146 483.28 219.976 486H218.876C219.036 483.39 220.176 481.17 221.986 479.6H218.026ZM225.817 480L223.227 483.35H225.817V480ZM228.067 483.35V484.21H226.737V486H225.817V484.21H222.217V483.35L225.807 478.75H226.737V483.35H228.067ZM232.837 481.07C232.837 480.07 232.227 479.38 231.267 479.38C230.327 479.38 229.677 480.08 229.677 481.07C229.677 482.06 230.327 482.78 231.257 482.78C232.207 482.78 232.837 482.06 232.837 481.07ZM231.167 485.37C232.287 485.37 232.907 484.25 232.957 482.57C232.627 483.14 231.997 483.58 231.037 483.58C229.697 483.58 228.707 482.58 228.707 481.11C228.707 479.77 229.707 478.62 231.257 478.62C233.067 478.62 233.897 479.88 233.897 482.12C233.897 484.16 233.147 486.13 231.067 486.13C229.647 486.13 228.987 485.24 228.827 484.32H229.817C229.937 484.97 230.417 485.37 231.167 485.37ZM238.161 480L235.571 483.35H238.161V480ZM240.411 483.35V484.21H239.081V486H238.161V484.21H234.561V483.35L238.151 478.75H239.081V483.35H240.411ZM245.181 481.07C245.181 480.07 244.571 479.38 243.611 479.38C242.671 479.38 242.021 480.08 242.021 481.07C242.021 482.06 242.671 482.78 243.601 482.78C244.551 482.78 245.181 482.06 245.181 481.07ZM243.511 485.37C244.631 485.37 245.251 484.25 245.301 482.57C244.971 483.14 244.341 483.58 243.381 483.58C242.041 483.58 241.051 482.58 241.051 481.11C241.051 479.77 242.051 478.62 243.601 478.62C245.411 478.62 246.241 479.88 246.241 482.12C246.241 484.16 245.491 486.13 243.411 486.13C241.991 486.13 241.331 485.24 241.171 484.32H242.161C242.281 484.97 242.761 485.37 243.511 485.37Z" fill="#29292D"/>
<rect x="204" y="381" width="75" height="75" fill="#C74949"/>
<path d="M322.74 464.96L323.54 468.62L324.08 462.75H325.03L324.3 470H323.07L322.23 466.22L321.39 470H320.15L319.43 462.75H320.38L320.91 468.62L321.71 464.96H322.74ZM329.205 462.75L331.585 470H330.565L330.075 468.45H327.305L326.825 470H325.805L328.185 462.75H329.205ZM328.695 464.02L327.585 467.56H329.795L328.695 464.02ZM336.74 470L335.32 466.94C335.15 466.95 334.98 466.95 334.79 466.95H333.97V470H333.02V462.75H334.79C336.37 462.75 337.59 463.09 337.59 464.82C337.59 465.95 337.08 466.51 336.28 466.76L337.82 470H336.74ZM334.9 463.65H333.97V466.05H334.9C335.86 466.05 336.61 465.96 336.61 464.84C336.61 463.72 335.86 463.65 334.9 463.65ZM343.965 470H342.545L340.225 463.81V470H339.275V462.75H340.695L343.015 468.92V462.75H343.965V470ZM345.779 463.65V462.75H350.389V463.65H348.559V469.1H350.389V470H345.779V469.1H347.609V463.65H345.779ZM356.894 470H355.474L353.154 463.81V470H352.204V462.75H353.624L355.944 468.92V462.75H356.894V470ZM361.039 463.5C359.879 463.5 359.289 464.49 359.289 466.36C359.289 468.15 359.839 469.25 361.039 469.25C361.919 469.25 362.729 468.86 362.729 467.37V467.14H361.059V466.24H363.599V470H362.879L362.839 469.09C362.409 469.84 361.879 470.13 360.999 470.13C359.119 470.13 358.309 468.56 358.309 466.36C358.309 464.12 359.249 462.62 361.089 462.62C362.449 462.62 363.349 463.51 363.579 464.99H362.599C362.469 464.15 362.089 463.5 361.039 463.5ZM375.529 470L374.109 466.94C373.939 466.95 373.769 466.95 373.579 466.95H372.759V470H371.809V462.75H373.579C375.159 462.75 376.379 463.09 376.379 464.82C376.379 465.95 375.869 466.51 375.069 466.76L376.609 470H375.529ZM373.689 463.65H372.759V466.05H373.689C374.649 466.05 375.399 465.96 375.399 464.84C375.399 463.72 374.649 463.65 373.689 463.65ZM378.304 470V462.75H382.624V463.65H379.254V465.81H382.424V466.71H379.254V469.1H382.624V470H378.304ZM388.578 466.37C388.578 463.9 387.148 463.65 385.798 463.65H385.538V469.1H385.798C387.148 469.1 388.578 468.83 388.578 466.37ZM384.588 462.75H385.828C387.888 462.75 389.548 463.6 389.548 466.37C389.548 469.13 387.888 470 385.828 470H384.588V462.75Z" fill="#29292D"/>
<path d="M319.65 480.62H321.07L321.33 478.75H322.07L321.81 480.62H323.37L323.63 478.75H324.37L324.11 480.62H325.45L325.35 481.33H324.01L323.77 483.07H325.12L325.02 483.78H323.67L323.37 486H322.63L322.93 483.78H321.37L321.07 486H320.33L320.63 483.78H319.22L319.32 483.07H320.73L320.97 481.33H319.55L319.65 480.62ZM321.71 481.33L321.47 483.07H323.03L323.27 481.33H321.71ZM326.52 486V478.75H331.44V479.63H327.54V481.83H331.21V482.71H327.54V485.12H331.44V486H326.52ZM332.653 486V478.75H335.263C336.613 478.75 337.813 479.1 337.813 480.54C337.813 481.23 337.523 481.85 337.013 482.14C337.703 482.43 338.113 482.97 338.113 483.86C338.113 485.4 336.963 486 335.513 486H332.653ZM333.673 482.66V485.14H335.523C336.563 485.14 337.063 484.7 337.063 483.87C337.063 483.02 336.553 482.66 335.463 482.66H333.673ZM333.673 479.61V481.85H335.423C336.263 481.85 336.783 481.53 336.783 480.68C336.783 479.93 336.233 479.61 335.423 479.61H333.673ZM341.532 485.37C342.402 485.37 343.152 484.74 343.152 483.62C343.152 482.42 342.312 481.9 341.522 481.9C340.772 481.9 340.282 482.34 340.122 482.7L339.212 482.65L339.682 478.75H343.842V479.6H340.422L340.172 481.66C340.562 481.29 341.132 481.11 341.732 481.11C343.002 481.11 344.112 482.01 344.112 483.61C344.112 485.27 342.882 486.13 341.532 486.13C339.862 486.13 339.082 485.07 338.952 483.9H339.892C340.042 484.82 340.522 485.37 341.532 485.37ZM344.696 479.6V478.75H349.716V479.6C347.916 481.05 346.816 483.28 346.646 486H345.546C345.706 483.39 346.846 481.17 348.656 479.6H344.696ZM352.733 485.37C353.603 485.37 354.353 484.74 354.353 483.62C354.353 482.42 353.513 481.9 352.723 481.9C351.973 481.9 351.483 482.34 351.323 482.7L350.413 482.65L350.883 478.75H355.043V479.6H351.623L351.373 481.66C351.763 481.29 352.333 481.11 352.933 481.11C354.203 481.11 355.313 482.01 355.313 483.61C355.313 485.27 354.083 486.13 352.733 486.13C351.063 486.13 350.283 485.07 350.153 483.9H351.093C351.243 484.82 351.723 485.37 352.733 485.37ZM355.897 479.6V478.75H360.917V479.6C359.117 481.05 358.017 483.28 357.847 486H356.747C356.907 483.39 358.047 481.17 359.857 479.6H355.897Z" fill="#29292D"/>
<rect x="319" y="381" width="75" height="75" fill="#EB5757"/>
<path d="M438.83 467.75H439.78C439.53 469.31 438.58 470.13 437.26 470.13C435.49 470.13 434.66 468.56 434.66 466.36C434.66 464.11 435.6 462.61 437.33 462.61C438.58 462.61 439.52 463.58 439.76 465.05H438.79C438.66 464.23 438.22 463.5 437.3 463.5C436.25 463.5 435.64 464.49 435.64 466.36C435.64 468.15 436.2 469.25 437.32 469.25C438.25 469.25 438.7 468.63 438.83 467.75ZM441.585 470V462.75H445.905V463.65H442.535V465.81H445.705V466.71H442.535V469.1H445.905V470H441.585ZM451.74 470L450.32 466.94C450.15 466.95 449.98 466.95 449.79 466.95H448.97V470H448.02V462.75H449.79C451.37 462.75 452.59 463.09 452.59 464.82C452.59 465.95 452.08 466.51 451.28 466.76L452.82 470H451.74ZM449.9 463.65H448.97V466.05H449.9C450.86 466.05 451.61 465.96 451.61 464.84C451.61 463.72 450.86 463.65 449.9 463.65ZM454.185 462.75H455.135V467.16C455.135 468.58 455.385 469.25 456.615 469.25C457.855 469.25 458.115 468.48 458.115 467.05V462.75H459.065V466.97C459.065 469.09 458.505 470.13 456.615 470.13C454.805 470.13 454.185 469.31 454.185 467.05V462.75ZM462.059 462.75V469.1H465.619V470H461.109V462.75H462.059ZM470.064 462.75L472.444 470H471.424L470.934 468.45H468.164L467.684 470H466.664L469.044 462.75H470.064ZM469.554 464.02L468.444 467.56H470.654L469.554 464.02ZM478.359 470H476.939L474.619 463.81V470H473.669V462.75H475.089L477.409 468.92V462.75H478.359V470ZM488.469 470V463.65H486.289V462.75H491.599V463.65H489.419V470H488.469ZM493.104 463.65V462.75H497.714V463.65H495.884V469.1H497.714V470H493.104V469.1H494.934V463.65H493.104ZM503.578 466.37C503.578 463.9 502.148 463.65 500.798 463.65H500.538V469.1H500.798C502.148 469.1 503.578 468.83 503.578 466.37ZM499.588 462.75H500.828C502.888 462.75 504.548 463.6 504.548 466.37C504.548 469.13 502.888 470 500.828 470H499.588V462.75ZM506.233 470V462.75H510.553V463.65H507.183V465.81H510.353V466.71H507.183V469.1H510.553V470H506.233Z" fill="#29292D"/>
<path d="M434.65 480.62H436.07L436.33 478.75H437.07L436.81 480.62H438.37L438.63 478.75H439.37L439.11 480.62H440.45L440.35 481.33H439.01L438.77 483.07H440.12L440.02 483.78H438.67L438.37 486H437.63L437.93 483.78H436.37L436.07 486H435.33L435.63 483.78H434.22L434.32 483.07H435.73L435.97 481.33H434.55L434.65 480.62ZM436.71 481.33L436.47 483.07H438.03L438.27 481.33H436.71ZM443.68 478.62C445.02 478.62 445.98 479.29 445.98 480.52C445.98 482.2 444.23 483.68 442.2 485.15H446.18V486H440.96V485.18C443.52 483.29 445.02 481.93 445.02 480.64C445.02 479.88 444.53 479.38 443.66 479.38C442.88 479.38 442.13 479.81 442.1 481.01H441.16C441.13 479.57 442.13 478.62 443.68 478.62ZM449.269 486H448.359V480.33H446.679V479.71C447.709 479.68 448.259 479.53 448.649 478.75H449.269V486ZM454.79 481.07C454.79 480.07 454.18 479.38 453.22 479.38C452.28 479.38 451.63 480.08 451.63 481.07C451.63 482.06 452.28 482.78 453.21 482.78C454.16 482.78 454.79 482.06 454.79 481.07ZM453.12 485.37C454.24 485.37 454.86 484.25 454.91 482.57C454.58 483.14 453.95 483.58 452.99 483.58C451.65 483.58 450.66 482.58 450.66 481.11C450.66 479.77 451.66 478.62 453.21 478.62C455.02 478.62 455.85 479.88 455.85 482.12C455.85 484.16 455.1 486.13 453.02 486.13C451.6 486.13 450.94 485.24 450.78 484.32H451.77C451.89 484.97 452.37 485.37 453.12 485.37ZM457.874 483.68C457.874 484.68 458.494 485.37 459.454 485.37C460.374 485.37 461.044 484.67 461.044 483.68C461.044 482.69 460.394 481.96 459.464 481.96C458.514 481.96 457.874 482.69 457.874 483.68ZM459.544 479.38C458.414 479.38 457.814 480.5 457.764 482.18C458.094 481.61 458.714 481.17 459.674 481.17C461.024 481.17 462.014 482.18 462.014 483.63C462.014 484.98 461.014 486.13 459.464 486.13C457.654 486.13 456.824 484.87 456.824 482.63C456.824 480.59 457.544 478.62 459.654 478.62C461.074 478.62 461.734 479.51 461.894 480.43H460.904C460.784 479.78 460.294 479.38 459.544 479.38ZM463.356 486V478.75H468.066V479.63H464.376V481.83H467.856V482.71H464.376V486H463.356ZM470.912 485.37C471.872 485.37 472.552 484.88 472.552 483.97C472.552 482.93 471.622 482.59 470.462 482.59H470.312V481.76H470.432C471.702 481.76 472.362 481.41 472.362 480.56C472.362 479.79 471.722 479.38 470.952 479.38C469.982 479.38 469.452 479.96 469.372 480.79H468.432C468.542 479.51 469.452 478.62 470.972 478.62C472.222 478.62 473.322 479.13 473.322 480.46C473.322 481.21 472.902 481.83 472.142 482.14C473.222 482.49 473.522 483.19 473.522 483.96C473.522 485.42 472.292 486.13 470.902 486.13C469.182 486.13 468.432 485.07 468.322 483.86H469.262C469.372 484.75 469.882 485.37 470.912 485.37Z" fill="#29292D"/>
<rect x="434" y="381" width="75" height="75" fill="#2196F3"/>
</svg>
