<svg width="729" height="100" viewBox="0 0 729 100" fill="none" xmlns="http://www.w3.org/2000/svg">
<path d="M680.41 98.0006V4.19141H728.566V17.6374H695.42V34.8357H721.269V47.969H695.42V84.2419H728.566V98.0006H680.41Z" fill="#333333"/>
<path d="M599.035 17.9501V4.19141H662.617V17.9501H638.643V98.0006H623.009V17.9501H599.035Z" fill="#333333"/>
<path d="M560.947 99.6681C555.318 99.6681 550.072 98.591 545.208 96.4369C540.413 94.2827 536.591 91.6422 533.742 88.5152L538.016 70.8999C540.239 74.9302 543.436 78.4394 547.605 81.4274C551.774 84.4154 556.395 85.9094 561.468 85.9094C565.776 85.9094 569.285 84.6239 571.995 82.0528C574.706 79.4122 576.061 76.2158 576.061 72.4634C576.061 69.5449 575.366 67.1476 573.976 65.2714C572.656 63.3952 571.092 61.9012 569.285 60.7894C567.479 59.6081 565.985 58.7395 564.803 58.1836L553.546 52.555C551.045 51.2347 548.404 49.6018 545.625 47.6561C542.845 45.7104 540.483 43.1741 538.537 40.0471C536.591 36.8507 535.618 32.8203 535.618 27.9562C535.618 22.953 536.765 18.5405 539.058 14.7186C541.351 10.8968 544.582 7.90878 548.752 5.75464C552.921 3.60051 557.75 2.52344 563.24 2.52344C568.521 2.52344 573.212 3.42679 577.311 5.23348C581.411 6.97069 584.677 8.81213 587.109 10.7578L582.94 28.1646C580.716 24.8987 577.763 22.0844 574.08 19.7218C570.467 17.2897 566.61 16.0737 562.51 16.0737C558.758 16.0737 555.805 17.1507 553.651 19.3049C551.496 21.3895 550.419 23.9606 550.419 27.0181C550.419 29.1722 550.906 31.0136 551.879 32.5424C552.921 34.0711 554.172 35.3567 555.631 36.399C557.16 37.3718 558.654 38.2404 560.113 39.0048L571.579 44.7376C573.177 45.502 575.053 46.579 577.207 47.9688C579.431 49.2891 581.585 50.9915 583.67 53.0762C585.754 55.1608 587.457 57.6972 588.777 60.6852C590.167 63.6731 590.862 67.2518 590.862 71.4211C590.862 76.8412 589.576 81.7054 587.005 86.0136C584.503 90.2524 581.029 93.5879 576.582 96.0199C572.134 98.452 566.923 99.6681 560.947 99.6681Z" fill="#333333"/>
<path d="M497.582 98.0006V4.19141H513.217V98.0006H497.582Z" fill="#333333"/>
<path d="M419.068 98.0006V4.19141H444.918C451.241 4.19141 456.592 5.16424 460.97 7.10991C465.417 8.98609 468.996 11.4877 471.706 14.6146C474.416 17.6721 476.396 21.0423 477.647 24.7252C478.898 28.3386 479.523 31.8825 479.523 35.3569C479.523 38.8313 478.898 42.3752 477.647 45.9886C476.466 49.602 474.52 52.9722 471.81 56.0992C469.1 59.2261 465.521 61.7625 461.074 63.7081C456.696 65.5843 451.311 66.5224 444.918 66.5224H434.078V98.0006H419.068ZM434.078 52.9722H444.084C449.087 52.9722 453.048 52.1036 455.967 50.3664C458.885 48.5597 460.97 46.3361 462.221 43.6955C463.541 40.9855 464.201 38.2059 464.201 35.3569C464.201 32.6469 463.576 29.9368 462.325 27.2268C461.144 24.4472 459.059 22.1541 456.071 20.3474C453.152 18.5407 449.157 17.6374 444.084 17.6374H434.078V52.9722Z" fill="#333333"/>
<path d="M272.25 17.9501V4.19141H335.832V17.9501H311.858V98.0006H296.223V17.9501H272.25Z" fill="#333333"/>
<path d="M227.5 98.0006V4.19141H243.135V84.2419H273.467V98.0006H227.5Z" fill="#333333"/>
<path d="M131.564 98.0013L172.111 0.960938H172.319L212.866 98.0013H197.127L188.163 75.7998H155.746L146.678 98.0013H131.564ZM160.854 63.2919H182.951L177.322 49.2206C176.28 46.7885 175.307 44.3911 174.404 42.0285C173.57 39.6659 172.736 36.8864 171.902 33.6899C171.069 36.8864 170.235 39.6659 169.401 42.0285C168.567 44.3216 167.629 46.719 166.587 49.2206L160.854 63.2919Z" fill="#333333"/>
<path d="M0 98.0404L40.5464 1H40.7549L81.3013 98.0404H65.5622L56.5982 75.8389L0 98.0404Z" fill="#333333"/>
<path d="M57 0H72L113 98H98L57 0Z" fill="#333333"/>
<path d="M348 1H363L404 99H389L348 1Z" fill="#333333"/>
</svg>
