<svg width="730" height="200" viewBox="0 0 730 200" fill="none" xmlns="http://www.w3.org/2000/svg">
<path d="M126.563 150L167.11 52.9596H167.318L207.865 150H192.126L183.162 127.798H150.745L141.677 150H126.563ZM155.853 115.291H177.95L172.322 101.219C171.279 98.7871 170.306 96.3898 169.403 94.0272C168.569 91.6646 167.735 88.885 166.901 85.6886C166.068 88.885 165.234 91.6646 164.4 94.0272C163.566 96.3203 162.628 98.7176 161.586 101.219L155.853 115.291ZM222.499 150V56.1908H238.134V136.241H268.466V150H222.499ZM267.25 69.9495V56.1908H330.832V69.9495H306.858V150H291.223V69.9495H267.25ZM414.069 150V56.1908H439.919C446.242 56.1908 451.593 57.1636 455.971 59.1093C460.418 60.9855 463.997 63.4871 466.707 66.614C469.417 69.6715 471.397 73.0417 472.648 76.7246C473.899 80.338 474.524 83.8819 474.524 87.3563C474.524 90.8307 473.899 94.3746 472.648 97.988C471.466 101.601 469.521 104.972 466.811 108.099C464.101 111.226 460.522 113.762 456.075 115.708C451.697 117.584 446.312 118.522 439.919 118.522H429.079V150H414.069ZM429.079 104.972H439.085C444.088 104.972 448.049 104.103 450.967 102.366C453.886 100.559 455.971 98.3354 457.221 95.6949C458.542 92.9848 459.202 90.2053 459.202 87.3563C459.202 84.6463 458.576 81.9362 457.326 79.2262C456.144 76.4466 454.06 74.1535 451.072 72.3468C448.153 70.5401 444.158 69.6368 439.085 69.6368H429.079V104.972ZM492.582 150V56.1908H508.216V150H492.582ZM555.948 151.668C550.319 151.668 545.073 150.591 540.209 148.437C535.414 146.282 531.592 143.642 528.743 140.515L533.017 122.9C535.24 126.93 538.437 130.439 542.606 133.427C546.775 136.415 551.396 137.909 556.469 137.909C560.777 137.909 564.286 136.624 566.996 134.052C569.706 131.412 571.061 128.215 571.061 124.463C571.061 121.545 570.367 119.147 568.977 117.271C567.657 115.395 566.093 113.901 564.286 112.789C562.48 111.608 560.986 110.739 559.804 110.183L548.547 104.555C546.046 103.234 543.405 101.601 540.626 99.6557C537.846 97.7101 535.483 95.1737 533.538 92.0468C531.592 88.8503 530.619 84.82 530.619 79.9558C530.619 74.9526 531.766 70.5401 534.059 66.7183C536.352 62.8964 539.583 59.9084 543.753 57.7543C547.922 55.6001 552.751 54.5231 558.241 54.5231C563.522 54.5231 568.212 55.4264 572.312 57.2331C576.412 58.9703 579.678 60.8118 582.11 62.7574L577.941 80.1643C575.717 76.8983 572.764 74.084 569.081 71.7214C565.468 69.2893 561.611 68.0733 557.511 68.0733C553.759 68.0733 550.806 69.1504 548.651 71.3045C546.497 73.3891 545.42 75.9602 545.42 79.0177C545.42 81.1718 545.907 83.0133 546.88 84.542C547.922 86.0708 549.173 87.3563 550.632 88.3986C552.161 89.3715 553.655 90.2401 555.114 91.0044L566.579 96.7372C568.178 97.5016 570.054 98.5787 572.208 99.9684C574.432 101.289 576.586 102.991 578.67 105.076C580.755 107.16 582.458 109.697 583.778 112.685C585.168 115.673 585.862 119.251 585.862 123.421C585.862 128.841 584.577 133.705 582.006 138.013C579.504 142.252 576.03 145.587 571.583 148.02C567.135 150.452 561.924 151.668 555.948 151.668ZM594.034 69.9495V56.1908H657.616V69.9495H633.643V150H618.008V69.9495H594.034ZM675.41 150V56.1908H723.565V69.6368H690.419V86.8351H716.269V99.9684H690.419V136.241H723.565V150H675.41Z" fill="#333333"/>
<path d="M0 150.04L40.5464 53H40.7549L81.3013 150.04H65.5622L56.5982 127.839L0 150.04Z" fill="#7D7D7D"/>
<path d="M55 52H70L111 150H96L55 52Z" fill="#7D7D7D"/>
<path d="M343 53H358L399 151H384L343 53Z" fill="#333333"/>
</svg>
