<svg width="154" height="153" viewBox="0 0 154 153" fill="none" xmlns="http://www.w3.org/2000/svg">
<rect width="56" height="13" transform="matrix(-1 0 0 1 56 127)" fill="#B2B0B2"/>
<rect width="22" height="13" transform="matrix(-1 0 0 1 42 140)" fill="#B2B0B2"/>
<rect width="28" height="13" transform="matrix(-1 0 0 1 84 140)" fill="#B2B0B2"/>
<rect width="27" height="13" transform="matrix(-1 0 0 1 125 140)" fill="#B2B0B2"/>
<rect width="27" height="13" transform="matrix(-1 0 0 1 139 127)" fill="#B2B0B2"/>
<rect width="28" height="13" transform="matrix(-1 0 0 1 98 127)" fill="#B2B0B2"/>
<rect x="56" y="112" width="14" height="28" fill="#453035"/>
<rect width="14" height="28" transform="matrix(-1 0 0 1 112 112)" fill="#453035"/>
<rect x="42" y="140" width="14" height="13" fill="#453035"/>
<rect width="14" height="13" transform="matrix(-1 0 0 1 98 140)" fill="#453035"/>
<rect x="56" width="41" height="14" fill="#453035"/>
<rect x="84" y="14" width="28" height="14" fill="#453035"/>
<rect x="56" y="14" width="14" height="14" fill="#453035"/>
<rect x="42" y="28" width="55" height="14" fill="#453035"/>
<rect width="16" height="14" transform="matrix(-1 0 0 1 86 14)" fill="#B2B0B2"/>
<rect x="42" y="42" width="70" height="14" fill="#453035"/>
<rect x="42" y="56" width="83" height="14" fill="#453035"/>
<rect x="42" y="70" width="112" height="14" fill="#453035"/>
<rect x="42" y="84" width="98" height="14" fill="#453035"/>
<rect x="56" y="98" width="69" height="14" fill="#453035"/>
</svg>
