<svg width="254" height="153" viewBox="0 0 254 153" fill="none" xmlns="http://www.w3.org/2000/svg">
<rect x="30" y="14" width="40" height="14" fill="#453035"/>
<rect x="86" y="14" width="27" height="14" fill="#453035"/>
<rect x="58" y="28" width="69" height="14" fill="#453035"/>
<rect width="16" height="14" transform="matrix(-1 0 0 1 86 14)" fill="#B2B0B2"/>
<rect x="72" y="42" width="112" height="14" fill="#453035"/>
<rect x="72" y="56" width="140" height="14" fill="#453035"/>
<rect x="86" y="70" width="168" height="14" fill="#453035"/>
<rect x="99" y="84" width="101" height="14" fill="#453035"/>
<rect x="114" y="98" width="56" height="14" fill="#453035"/>
<rect x="114" y="112" width="14" height="28" fill="#453035"/>
<rect width="14" height="28" transform="matrix(-1 0 0 1 156 112)" fill="#453035"/>
<rect x="100" y="127" width="14" height="13" fill="#453035"/>
<rect x="86" y="140" width="14" height="13" fill="#453035"/>
<rect x="128" y="140" width="14" height="13" fill="#453035"/>
<rect width="14" height="13" transform="matrix(-1 0 0 1 170 127)" fill="#453035"/>
<rect width="42" height="13" transform="matrix(-1 0 0 1 212 127)" fill="#B2B0B2"/>
<rect width="42" height="13" transform="matrix(-1 0 0 1 184 140)" fill="#B2B0B2"/>
<rect width="28" height="13" transform="matrix(-1 0 0 1 128 140)" fill="#B2B0B2"/>
<rect width="57" height="13" transform="matrix(-1 0 0 1 86 140)" fill="#B2B0B2"/>
<rect width="15" height="13" transform="matrix(-1 0 0 1 15 140)" fill="#B2B0B2"/>
<rect width="41" height="13" transform="matrix(-1 0 0 1 100 127)" fill="#B2B0B2"/>
<rect width="14" height="13" transform="matrix(-1 0 0 1 142 127)" fill="#B2B0B2"/>
<rect x="58" width="41" height="14" fill="#453035"/>
</svg>
