<svg width="226" height="182" viewBox="0 0 226 182" fill="none" xmlns="http://www.w3.org/2000/svg">
<rect width="41" height="14" transform="matrix(-1 0 0 1 226 154)" fill="#B2B0B2"/>
<rect width="15" height="14" transform="matrix(-1 0 0 1 157 154)" fill="#B2B0B2"/>
<rect width="56" height="14" transform="matrix(-1 0 0 1 128 154)" fill="#B2B0B2"/>
<rect width="170" height="14" transform="matrix(-1 0 0 1 200 168)" fill="#B2B0B2"/>
<rect width="14" height="14" transform="matrix(-1 0 0 1 14 168)" fill="#B2B0B2"/>
<rect x="143" y="28" width="71" height="14" fill="#453035"/>
<rect x="129" y="42" width="70" height="14" fill="#453035"/>
<rect x="129" y="56" width="56" height="14" fill="#453035"/>
<rect x="115" y="70" width="70" height="14" fill="#453035"/>
<rect x="100" y="84" width="85" height="14" fill="#453035"/>
<rect x="100" y="98" width="85" height="14" fill="#453035"/>
<rect x="86" y="112" width="85" height="14" fill="#453035"/>
<rect x="72" y="126" width="99" height="14" fill="#453035"/>
<rect x="44" y="140" width="56" height="14" fill="#453035"/>
<rect x="114" y="140" width="14" height="14" fill="#453035"/>
<rect x="128" y="154" width="14" height="14" fill="#453035"/>
<rect x="143" y="140" width="14" height="14" fill="#453035"/>
<rect x="157" y="154" width="28" height="14" fill="#453035"/>
<rect x="185" y="14" width="14" height="14" fill="#453035"/>
<rect x="171" width="28" height="14" fill="#453035"/>
<rect x="157" width="14" height="28" fill="#453035"/>
</svg>
