<svg width="600" height="600" viewBox="0 0 600 600" fill="none" xmlns="http://www.w3.org/2000/svg">
<rect x="0.413208" y="0.414062" width="194.866" height="144.6" fill="#E3DDE4"/>
<path d="M16.8297 17.604V26.7522H21.9585V28.0488H15.4611V17.604H16.8297ZM24.5875 28.0488V17.604H30.8111V18.9006H25.9561V22.0125H30.523V23.3091H25.9561V26.7522H30.8111V28.0488H24.5875ZM36.9697 18.6845C35.2986 18.6845 34.4486 20.1108 34.4486 22.8048C34.4486 25.3836 35.2409 26.9683 36.9697 26.9683C38.2375 26.9683 39.4044 26.4065 39.4044 24.2599V23.9285H36.9985V22.6319H40.6578V28.0488H39.6205L39.5629 26.7378C38.9434 27.8183 38.1799 28.2361 36.9121 28.2361C34.2037 28.2361 33.0367 25.9743 33.0367 22.8048C33.0367 19.5777 34.3909 17.4167 37.0418 17.4167C39.0011 17.4167 40.2977 18.6989 40.629 20.8311H39.2172C39.0299 19.621 38.4824 18.6845 36.9697 18.6845ZM46.9893 17.604L50.4181 28.0488H48.9486L48.2427 25.8158H44.252L43.5605 28.0488H42.091L45.5198 17.604H46.9893ZM46.2546 19.4337L44.6554 24.5336H47.8393L46.2546 19.4337ZM57.8733 24.8073H59.2419C58.8817 27.0548 57.5131 28.2361 55.6114 28.2361C53.0615 28.2361 51.8657 25.9743 51.8657 22.8048C51.8657 19.5633 53.2199 17.4023 55.7123 17.4023C57.5131 17.4023 58.8673 18.7998 59.2131 20.9176H57.8156C57.6284 19.7362 56.9945 18.6845 55.6691 18.6845C54.1564 18.6845 53.2776 20.1108 53.2776 22.8048C53.2776 25.3836 54.0843 26.9683 55.6979 26.9683C57.0377 26.9683 57.686 26.0751 57.8733 24.8073ZM64.8819 22.7184L67.5615 17.604H69.1606L65.559 24.1302V28.0488H64.1903V24.1302L60.5887 17.604H62.1878L64.8819 22.7184ZM17.478 42.1218C16.095 41.8192 14.8416 40.9548 14.8416 39.2837C14.8416 37.4828 16.3975 36.4167 18.2704 36.4167C19.8839 36.4167 21.5119 37.2811 21.7424 39.3557H20.3882C20.2297 38.1023 19.1492 37.6845 18.1984 37.6845C17.2475 37.6845 16.2535 38.1599 16.2535 39.2404C16.2535 40.1625 16.9162 40.6091 17.7662 40.7964L18.8034 41.0269C20.4746 41.4014 21.9585 42.1218 21.9585 44.1243C21.9585 46.0692 20.4458 47.2361 18.4289 47.2361C16.2967 47.2361 14.7696 45.8675 14.6543 43.7929H16.0086C16.167 45.1904 17.1323 45.9683 18.4721 45.9683C19.5094 45.9683 20.5755 45.4353 20.5755 44.2251C20.5755 43.1302 19.7687 42.6692 18.6162 42.3955L17.478 42.1218ZM27.6273 41.7184L30.3069 36.604H31.906L28.3044 43.1302V47.0488H26.9357V43.1302L23.3341 36.604H24.9332L27.6273 41.7184ZM36.1053 42.1218C34.7223 41.8192 33.4689 40.9548 33.4689 39.2837C33.4689 37.4828 35.0248 36.4167 36.8977 36.4167C38.5112 36.4167 40.1392 37.2811 40.3697 39.3557H39.0155C38.857 38.1023 37.7765 37.6845 36.8257 37.6845C35.8748 37.6845 34.8808 38.1599 34.8808 39.2404C34.8808 40.1625 35.5435 40.6091 36.3935 40.7964L37.4307 41.0269C39.1019 41.4014 40.5858 42.1218 40.5858 44.1243C40.5858 46.0692 39.0731 47.2361 37.0562 47.2361C34.924 47.2361 33.3969 45.8675 33.2816 43.7929H34.6359C34.7943 45.1904 35.7596 45.9683 37.0994 45.9683C38.1367 45.9683 39.2027 45.4353 39.2027 44.2251C39.2027 43.1302 38.396 42.6692 37.2434 42.3955L36.1053 42.1218ZM45.563 47.0488V37.9006H42.4224V36.604H50.0723V37.9006H46.9317V47.0488H45.563ZM52.5284 47.0488V36.604H58.7521V37.9006H53.897V41.0125H58.4639V42.3091H53.897V45.7522H58.7521V47.0488H52.5284ZM65.5734 43.4472H64.1903L62.6632 37.9439V47.0488H61.2946V36.604H63.4412L64.8819 41.9489L66.3225 36.604H68.4691V47.0488H67.1005V37.9439L65.5734 43.4472ZM73.3599 42.1218C71.9769 41.8192 70.7235 40.9548 70.7235 39.2837C70.7235 37.4828 72.2794 36.4167 74.1523 36.4167C75.7658 36.4167 77.3938 37.2811 77.6243 39.3557H76.2701C76.1116 38.1023 75.0311 37.6845 74.0803 37.6845C73.1294 37.6845 72.1354 38.1599 72.1354 39.2404C72.1354 40.1625 72.7981 40.6091 73.6481 40.7964L74.6853 41.0269C76.3565 41.4014 77.8404 42.1218 77.8404 44.1243C77.8404 46.0692 76.3277 47.2361 74.3108 47.2361C72.1786 47.2361 70.6515 45.8675 70.5362 43.7929H71.8904C72.0489 45.1904 73.0142 45.9683 74.354 45.9683C75.3913 45.9683 76.4573 45.4353 76.4573 44.2251C76.4573 43.1302 75.6506 42.6692 74.498 42.3955L73.3599 42.1218Z" fill="#29292D"/>
<path d="M16.8297 17.604V26.7522H21.9585V28.0488H15.4611V17.604H16.8297ZM24.5875 28.0488V17.604H30.8111V18.9006H25.9561V22.0125H30.523V23.3091H25.9561V26.7522H30.8111V28.0488H24.5875ZM36.9697 18.6845C35.2986 18.6845 34.4486 20.1108 34.4486 22.8048C34.4486 25.3836 35.2409 26.9683 36.9697 26.9683C38.2375 26.9683 39.4044 26.4065 39.4044 24.2599V23.9285H36.9985V22.6319H40.6578V28.0488H39.6205L39.5629 26.7378C38.9434 27.8183 38.1799 28.2361 36.9121 28.2361C34.2037 28.2361 33.0367 25.9743 33.0367 22.8048C33.0367 19.5777 34.3909 17.4167 37.0418 17.4167C39.0011 17.4167 40.2977 18.6989 40.629 20.8311H39.2172C39.0299 19.621 38.4824 18.6845 36.9697 18.6845ZM46.9893 17.604L50.4181 28.0488H48.9486L48.2427 25.8158H44.252L43.5605 28.0488H42.091L45.5198 17.604H46.9893ZM46.2546 19.4337L44.6554 24.5336H47.8393L46.2546 19.4337ZM57.8733 24.8073H59.2419C58.8817 27.0548 57.5131 28.2361 55.6114 28.2361C53.0615 28.2361 51.8657 25.9743 51.8657 22.8048C51.8657 19.5633 53.2199 17.4023 55.7123 17.4023C57.5131 17.4023 58.8673 18.7998 59.2131 20.9176H57.8156C57.6284 19.7362 56.9945 18.6845 55.6691 18.6845C54.1564 18.6845 53.2776 20.1108 53.2776 22.8048C53.2776 25.3836 54.0843 26.9683 55.6979 26.9683C57.0377 26.9683 57.686 26.0751 57.8733 24.8073ZM64.8819 22.7184L67.5615 17.604H69.1606L65.559 24.1302V28.0488H64.1903V24.1302L60.5887 17.604H62.1878L64.8819 22.7184ZM17.478 42.1218C16.095 41.8192 14.8416 40.9548 14.8416 39.2837C14.8416 37.4828 16.3975 36.4167 18.2704 36.4167C19.8839 36.4167 21.5119 37.2811 21.7424 39.3557H20.3882C20.2297 38.1023 19.1492 37.6845 18.1984 37.6845C17.2475 37.6845 16.2535 38.1599 16.2535 39.2404C16.2535 40.1625 16.9162 40.6091 17.7662 40.7964L18.8034 41.0269C20.4746 41.4014 21.9585 42.1218 21.9585 44.1243C21.9585 46.0692 20.4458 47.2361 18.4289 47.2361C16.2967 47.2361 14.7696 45.8675 14.6543 43.7929H16.0086C16.167 45.1904 17.1323 45.9683 18.4721 45.9683C19.5094 45.9683 20.5755 45.4353 20.5755 44.2251C20.5755 43.1302 19.7687 42.6692 18.6162 42.3955L17.478 42.1218ZM27.6273 41.7184L30.3069 36.604H31.906L28.3044 43.1302V47.0488H26.9357V43.1302L23.3341 36.604H24.9332L27.6273 41.7184ZM36.1053 42.1218C34.7223 41.8192 33.4689 40.9548 33.4689 39.2837C33.4689 37.4828 35.0248 36.4167 36.8977 36.4167C38.5112 36.4167 40.1392 37.2811 40.3697 39.3557H39.0155C38.857 38.1023 37.7765 37.6845 36.8257 37.6845C35.8748 37.6845 34.8808 38.1599 34.8808 39.2404C34.8808 40.1625 35.5435 40.6091 36.3935 40.7964L37.4307 41.0269C39.1019 41.4014 40.5858 42.1218 40.5858 44.1243C40.5858 46.0692 39.0731 47.2361 37.0562 47.2361C34.924 47.2361 33.3969 45.8675 33.2816 43.7929H34.6359C34.7943 45.1904 35.7596 45.9683 37.0994 45.9683C38.1367 45.9683 39.2027 45.4353 39.2027 44.2251C39.2027 43.1302 38.396 42.6692 37.2434 42.3955L36.1053 42.1218ZM45.563 47.0488V37.9006H42.4224V36.604H50.0723V37.9006H46.9317V47.0488H45.563ZM52.5284 47.0488V36.604H58.7521V37.9006H53.897V41.0125H58.4639V42.3091H53.897V45.7522H58.7521V47.0488H52.5284ZM65.5734 43.4472H64.1903L62.6632 37.9439V47.0488H61.2946V36.604H63.4412L64.8819 41.9489L66.3225 36.604H68.4691V47.0488H67.1005V37.9439L65.5734 43.4472ZM73.3599 42.1218C71.9769 41.8192 70.7235 40.9548 70.7235 39.2837C70.7235 37.4828 72.2794 36.4167 74.1523 36.4167C75.7658 36.4167 77.3938 37.2811 77.6243 39.3557H76.2701C76.1116 38.1023 75.0311 37.6845 74.0803 37.6845C73.1294 37.6845 72.1354 38.1599 72.1354 39.2404C72.1354 40.1625 72.7981 40.6091 73.6481 40.7964L74.6853 41.0269C76.3565 41.4014 77.8404 42.1218 77.8404 44.1243C77.8404 46.0692 76.3277 47.2361 74.3108 47.2361C72.1786 47.2361 70.6515 45.8675 70.5362 43.7929H71.8904C72.0489 45.1904 73.0142 45.9683 74.354 45.9683C75.3913 45.9683 76.4573 45.4353 76.4573 44.2251C76.4573 43.1302 75.6506 42.6692 74.498 42.3955L73.3599 42.1218Z" fill="#29292D"/>
<rect x="0.413574" y="152.658" width="194.866" height="144.6" fill="#E3DDE4"/>
<path d="M20.3305 169.988H21.6992V180.447H20.3305V175.707H16.2967V180.447H14.9281V169.988H16.2967V174.411H20.3305V169.988ZM24.2993 171.299V170.002H30.9408V171.299H28.3044V179.151H30.9408V180.447H24.2993V179.151H26.9357V171.299H24.2993ZM39.39 175.218C39.39 171.659 37.3299 171.299 35.385 171.299H35.0104V179.151H35.385C37.3299 179.151 39.39 178.762 39.39 175.218ZM33.6418 170.002H35.4282C38.396 170.002 40.7875 171.227 40.7875 175.218C40.7875 179.194 38.396 180.447 35.4282 180.447H33.6418V170.002ZM48.7037 175.218C48.7037 171.659 46.6435 171.299 44.6986 171.299H44.3241V179.151H44.6986C46.6435 179.151 48.7037 178.762 48.7037 175.218ZM42.9554 170.002H44.7419C47.7096 170.002 50.1011 171.227 50.1011 175.218C50.1011 179.194 47.7096 180.447 44.7419 180.447H42.9554V170.002ZM52.5284 180.447V170.002H58.7521V171.299H53.897V174.411H58.4639V175.707H53.897V179.151H58.7521V180.447H52.5284ZM68.253 180.447H66.2073L62.8649 171.53V180.447H61.4963V170.002H63.542L66.8844 178.891V170.002H68.253V180.447ZM20.5899 199.447L18.5441 195.039C18.2992 195.053 18.0543 195.053 17.7806 195.053H16.5992V199.447H15.2306V189.002H17.7806C20.0568 189.002 21.8144 189.492 21.8144 191.985C21.8144 193.613 21.0797 194.419 19.9272 194.78L22.1458 199.447H20.5899ZM17.939 190.299H16.5992V193.757H17.939C19.3221 193.757 20.4026 193.627 20.4026 192.013C20.4026 190.4 19.3221 190.299 17.939 190.299ZM27.6273 188.815C30.2349 188.815 31.5315 191.063 31.5315 194.218C31.5315 197.373 30.2349 199.635 27.6273 199.635C25.0197 199.635 23.7231 197.373 23.7231 194.218C23.7231 191.063 25.0197 188.815 27.6273 188.815ZM27.6273 190.083C25.8985 190.083 25.1349 191.567 25.1349 194.218C25.1349 196.868 25.8985 198.367 27.6273 198.367C29.3561 198.367 30.1196 196.854 30.1196 194.218C30.1196 191.581 29.3561 190.083 27.6273 190.083ZM37.6756 189.002L41.1044 199.447H39.6349L38.929 197.214H34.9384L34.2469 199.447H32.7774L36.2062 189.002H37.6756ZM36.9409 190.832L35.3418 195.932H38.5256L36.9409 190.832ZM48.7037 194.218C48.7037 190.659 46.6435 190.299 44.6986 190.299H44.3241V198.151H44.6986C46.6435 198.151 48.7037 197.762 48.7037 194.218ZM42.9554 189.002H44.7419C47.7096 189.002 50.1011 190.227 50.1011 194.218C50.1011 198.194 47.7096 199.447 44.7419 199.447H42.9554V189.002ZM52.3555 199.447V189.002H55.4385C57.1817 189.002 58.8673 189.507 58.8673 191.581C58.8673 192.575 58.5072 193.454 57.83 193.872C58.7377 194.29 59.2563 195.068 59.2563 196.35C59.2563 198.568 57.6428 199.447 55.7555 199.447H52.3555ZM53.7242 194.664V198.151H55.8707C57.1817 198.151 57.8445 197.56 57.8445 196.364C57.8445 195.14 57.1962 194.664 55.7699 194.664H53.7242ZM53.7242 190.299V193.44H55.7267C56.8216 193.44 57.4987 193.008 57.4987 191.783C57.4987 190.702 56.7784 190.299 55.7267 190.299H53.7242ZM63.398 189.002V198.151H68.5267V199.447H62.0293V189.002H63.398ZM74.1955 188.815C76.8031 188.815 78.0997 191.063 78.0997 194.218C78.0997 197.373 76.8031 199.635 74.1955 199.635C71.5879 199.635 70.2913 197.373 70.2913 194.218C70.2913 191.063 71.5879 188.815 74.1955 188.815ZM74.1955 190.083C72.4667 190.083 71.7032 191.567 71.7032 194.218C71.7032 196.868 72.4667 198.367 74.1955 198.367C75.9243 198.367 76.6878 196.854 76.6878 194.218C76.6878 191.581 75.9243 190.083 74.1955 190.083ZM85.8142 196.206H87.1828C86.8227 198.453 85.454 199.635 83.5524 199.635C81.0024 199.635 79.8067 197.373 79.8067 194.203C79.8067 190.962 81.1609 188.801 83.6532 188.801C85.454 188.801 86.8083 190.198 87.154 192.316H85.7566C85.5693 191.135 84.9354 190.083 83.61 190.083C82.0973 190.083 81.2185 191.509 81.2185 194.203C81.2185 196.782 82.0253 198.367 83.6388 198.367C84.9786 198.367 85.6269 197.474 85.8142 196.206ZM91.094 189.002V194.002L94.8253 189.002H96.4389L93.2838 193.08L96.8422 199.447H95.2719L92.3906 194.232L91.094 195.903V199.447H89.7254V189.002H91.094ZM101.301 194.52C99.9178 194.218 98.6645 193.353 98.6645 191.682C98.6645 189.881 100.22 188.815 102.093 188.815C103.707 188.815 105.335 189.68 105.565 191.754H104.211C104.053 190.501 102.972 190.083 102.021 190.083C101.07 190.083 100.076 190.558 100.076 191.639C100.076 192.561 100.739 193.008 101.589 193.195L102.626 193.425C104.297 193.8 105.781 194.52 105.781 196.523C105.781 198.468 104.269 199.635 102.252 199.635C100.12 199.635 98.5924 198.266 98.4772 196.191H99.8314C99.9899 197.589 100.955 198.367 102.295 198.367C103.332 198.367 104.398 197.834 104.398 196.624C104.398 195.529 103.592 195.068 102.439 194.794L101.301 194.52Z" fill="#29292D"/>
<rect x="0.413574" y="304.979" width="397.291" height="293.966" fill="#E3DDE4"/>
<path d="M17.478 327.417C16.095 327.114 14.8416 326.25 14.8416 324.579C14.8416 322.778 16.3975 321.712 18.2704 321.712C19.8839 321.712 21.5119 322.576 21.7424 324.651H20.3882C20.2297 323.397 19.1492 322.979 18.1984 322.979C17.2475 322.979 16.2535 323.455 16.2535 324.535C16.2535 325.457 16.9162 325.904 17.7662 326.091L18.8034 326.322C20.4746 326.696 21.9585 327.417 21.9585 329.419C21.9585 331.364 20.4458 332.531 18.4289 332.531C16.2967 332.531 14.7696 331.162 14.6543 329.088H16.0086C16.167 330.485 17.1323 331.263 18.4721 331.263C19.5094 331.263 20.5755 330.73 20.5755 329.52C20.5755 328.425 19.7687 327.964 18.6162 327.69L17.478 327.417ZM26.9357 332.344V323.196H23.7951V321.899H31.445V323.196H28.3044V332.344H26.9357ZM39.2172 332.344L37.1714 327.935C36.9265 327.95 36.6816 327.95 36.4079 327.95H35.2265V332.344H33.8579V321.899H36.4079C38.6841 321.899 40.4417 322.389 40.4417 324.881C40.4417 326.509 39.707 327.316 38.5545 327.676L40.7731 332.344H39.2172ZM36.5663 323.196H35.2265V326.653H36.5663C37.9494 326.653 39.0299 326.523 39.0299 324.91C39.0299 323.296 37.9494 323.196 36.5663 323.196ZM43.2148 332.344V321.899H49.4384V323.196H44.5834V326.307H49.1503V327.604H44.5834V331.047H49.4384V332.344H43.2148ZM54.8767 332.344V323.196H51.736V321.899H59.386V323.196H56.2453V332.344H54.8767ZM67.1869 329.102H68.5555C68.1954 331.35 66.8267 332.531 64.9251 332.531C62.3751 332.531 61.1794 330.269 61.1794 327.1C61.1794 323.858 62.5336 321.697 65.0259 321.697C66.8267 321.697 68.181 323.095 68.5267 325.212H67.1293C66.942 324.031 66.3081 322.979 64.9827 322.979C63.47 322.979 62.5912 324.406 62.5912 327.1C62.5912 329.679 63.398 331.263 65.0115 331.263C66.3513 331.263 66.9996 330.37 67.1869 329.102ZM76.2124 321.885H77.5811V332.344H76.2124V327.604H72.1786V332.344H70.8099V321.885H72.1786V326.307H76.2124V321.885ZM80.4694 332.344V321.899H86.693V323.196H81.838V326.307H86.4049V327.604H81.838V331.047H86.693V332.344H80.4694ZM95.2719 327.114C95.2719 323.556 93.2118 323.196 91.2669 323.196H90.8923V331.047H91.2669C93.2118 331.047 95.2719 330.658 95.2719 327.114ZM89.5237 321.899H91.3101C94.2779 321.899 96.6694 323.124 96.6694 327.114C96.6694 331.09 94.2779 332.344 91.3101 332.344H89.5237V321.899ZM20.5899 351.344L18.5441 346.935C18.2992 346.95 18.0543 346.95 17.7806 346.95H16.5992V351.344H15.2306V340.899H17.7806C20.0568 340.899 21.8144 341.389 21.8144 343.881C21.8144 345.509 21.0797 346.316 19.9272 346.676L22.1458 351.344H20.5899ZM17.939 342.196H16.5992V345.653H17.939C19.3221 345.653 20.4026 345.523 20.4026 343.91C20.4026 342.296 19.3221 342.196 17.939 342.196ZM24.5875 351.344V340.899H30.8111V342.196H25.9561V345.307H30.523V346.604H25.9561V350.047H30.8111V351.344H24.5875ZM36.1053 346.417C34.7223 346.114 33.4689 345.25 33.4689 343.579C33.4689 341.778 35.0248 340.712 36.8977 340.712C38.5112 340.712 40.1392 341.576 40.3697 343.651H39.0155C38.857 342.397 37.7765 341.979 36.8257 341.979C35.8748 341.979 34.8808 342.455 34.8808 343.535C34.8808 344.457 35.5435 344.904 36.3935 345.091L37.4307 345.322C39.1019 345.696 40.5858 346.417 40.5858 348.419C40.5858 350.364 39.0731 351.531 37.0562 351.531C34.924 351.531 33.3969 350.162 33.2816 348.088H34.6359C34.7943 349.485 35.7596 350.263 37.0994 350.263C38.1367 350.263 39.2027 349.73 39.2027 348.52C39.2027 347.425 38.396 346.964 37.2434 346.69L36.1053 346.417ZM46.2546 340.712C48.8622 340.712 50.1587 342.959 50.1587 346.114C50.1587 349.269 48.8622 351.531 46.2546 351.531C43.647 351.531 42.3504 349.269 42.3504 346.114C42.3504 342.959 43.647 340.712 46.2546 340.712ZM46.2546 341.979C44.5258 341.979 43.7622 343.463 43.7622 346.114C43.7622 348.765 44.5258 350.263 46.2546 350.263C47.9834 350.263 48.7469 348.751 48.7469 346.114C48.7469 343.478 47.9834 341.979 46.2546 341.979ZM52.053 340.899H53.4216V347.252C53.4216 349.298 53.7818 350.263 55.5538 350.263C57.3402 350.263 57.7148 349.154 57.7148 347.094V340.899H59.0834V346.979C59.0834 350.033 58.2766 351.531 55.5538 351.531C52.9462 351.531 52.053 350.35 52.053 347.094V340.899ZM67.1581 351.344L65.1124 346.935C64.8674 346.95 64.6225 346.95 64.3488 346.95H63.1675V351.344H61.7988V340.899H64.3488C66.6251 340.899 68.3827 341.389 68.3827 343.881C68.3827 345.509 67.6479 346.316 66.4954 346.676L68.714 351.344H67.1581ZM64.5073 342.196H63.1675V345.653H64.5073C65.8903 345.653 66.9708 345.523 66.9708 343.91C66.9708 342.296 65.8903 342.196 64.5073 342.196ZM76.5006 348.102H77.8692C77.509 350.35 76.1404 351.531 74.2387 351.531C71.6888 351.531 70.493 349.269 70.493 346.1C70.493 342.858 71.8472 340.697 74.3396 340.697C76.1404 340.697 77.4946 342.095 77.8404 344.212H76.4429C76.2556 343.031 75.6218 341.979 74.2963 341.979C72.7837 341.979 71.9049 343.406 71.9049 346.1C71.9049 348.679 72.7116 350.263 74.3252 350.263C75.665 350.263 76.3133 349.37 76.5006 348.102ZM80.4694 351.344V340.899H86.693V342.196H81.838V345.307H86.4049V346.604H81.838V350.047H86.693V351.344H80.4694ZM91.9872 346.417C90.6042 346.114 89.3508 345.25 89.3508 343.579C89.3508 341.778 90.9067 340.712 92.7796 340.712C94.3931 340.712 96.0211 341.576 96.2516 343.651H94.8974C94.7389 342.397 93.6584 341.979 92.7075 341.979C91.7567 341.979 90.7627 342.455 90.7627 343.535C90.7627 344.457 91.4254 344.904 92.2753 345.091L93.3126 345.322C94.9838 345.696 96.4677 346.417 96.4677 348.419C96.4677 350.364 94.955 351.531 92.9381 351.531C90.8059 351.531 89.2788 350.162 89.1635 348.088H90.5177C90.6762 349.485 91.6415 350.263 92.9813 350.263C94.0185 350.263 95.0846 349.73 95.0846 348.52C95.0846 347.425 94.2779 346.964 93.1253 346.69L91.9872 346.417Z" fill="#29292D"/>
<rect x="202.474" y="0.414062" width="195.465" height="144.6" fill="#E3DDE4"/>
<rect x="202.474" y="152.658" width="195.465" height="144.6" fill="#E3DDE4"/>
<path d="M222.801 180.447L220.755 176.039C220.511 176.053 220.266 176.053 219.992 176.053H218.811V180.447H217.442V170.002H219.992C222.268 170.002 224.026 170.492 224.026 172.985C224.026 174.613 223.291 175.419 222.138 175.78L224.357 180.447H222.801ZM220.15 171.299H218.811V174.757H220.15C221.533 174.757 222.614 174.627 222.614 173.013C222.614 171.4 221.533 171.299 220.15 171.299ZM226.799 180.447V170.002H233.022V171.299H228.167V174.411H232.734V175.707H228.167V179.151H233.022V180.447H226.799ZM241.601 175.218C241.601 171.659 239.541 171.299 237.596 171.299H237.222V179.151H237.596C239.541 179.151 241.601 178.762 241.601 175.218ZM235.853 170.002H237.64C240.607 170.002 242.999 171.227 242.999 175.218C242.999 179.194 240.607 180.447 237.64 180.447H235.853V170.002ZM244.951 170.002H246.319V176.356C246.319 178.402 246.679 179.367 248.451 179.367C250.238 179.367 250.612 178.257 250.612 176.197V170.002H251.981V176.082C251.981 179.136 251.174 180.635 248.451 180.635C245.844 180.635 244.951 179.453 244.951 176.197V170.002ZM260.085 177.206H261.453C261.093 179.453 259.724 180.635 257.823 180.635C255.273 180.635 254.077 178.373 254.077 175.203C254.077 171.962 255.431 169.801 257.924 169.801C259.724 169.801 261.079 171.198 261.424 173.316H260.027C259.84 172.135 259.206 171.083 257.88 171.083C256.368 171.083 255.489 172.509 255.489 175.203C255.489 177.782 256.296 179.367 257.909 179.367C259.249 179.367 259.897 178.474 260.085 177.206ZM264.053 180.447V170.002H270.277V171.299H265.422V174.411H269.989V175.707H265.422V179.151H270.277V180.447H264.053ZM219.689 194.52C218.306 194.218 217.053 193.353 217.053 191.682C217.053 189.881 218.609 188.815 220.482 188.815C222.095 188.815 223.723 189.68 223.954 191.754H222.599C222.441 190.501 221.361 190.083 220.41 190.083C219.459 190.083 218.465 190.558 218.465 191.639C218.465 192.561 219.127 193.008 219.977 193.195L221.015 193.425C222.686 193.8 224.17 194.52 224.17 196.523C224.17 198.468 222.657 199.635 220.64 199.635C218.508 199.635 216.981 198.266 216.866 196.191H218.22C218.378 197.589 219.344 198.367 220.683 198.367C221.721 198.367 222.787 197.834 222.787 196.624C222.787 195.529 221.98 195.068 220.827 194.794L219.689 194.52ZM226.323 189.002H227.692V195.356C227.692 197.402 228.052 198.367 229.824 198.367C231.611 198.367 231.985 197.257 231.985 195.197V189.002H233.354V195.082C233.354 198.136 232.547 199.635 229.824 199.635C227.217 199.635 226.323 198.453 226.323 195.197V189.002ZM236.242 189.002H238.806C241.097 189.002 242.855 189.622 242.855 192.215C242.855 194.808 241.097 195.428 238.806 195.428H237.611V199.447H236.242V189.002ZM238.979 190.299H237.611V194.131H238.979C240.377 194.131 241.443 193.915 241.443 192.215C241.443 190.515 240.377 190.299 238.979 190.299ZM245.556 189.002H248.12C250.411 189.002 252.168 189.622 252.168 192.215C252.168 194.808 250.411 195.428 248.12 195.428H246.924V199.447H245.556V189.002ZM248.293 190.299H246.924V194.131H248.293C249.69 194.131 250.757 193.915 250.757 192.215C250.757 190.515 249.69 190.299 248.293 190.299ZM257.78 188.815C260.387 188.815 261.684 191.063 261.684 194.218C261.684 197.373 260.387 199.635 257.78 199.635C255.172 199.635 253.875 197.373 253.875 194.218C253.875 191.063 255.172 188.815 257.78 188.815ZM257.78 190.083C256.051 190.083 255.287 191.567 255.287 194.218C255.287 196.868 256.051 198.367 257.78 198.367C259.508 198.367 260.272 196.854 260.272 194.218C260.272 191.581 259.508 190.083 257.78 190.083ZM269.369 199.447L267.324 195.039C267.079 195.053 266.834 195.053 266.56 195.053H265.379V199.447H264.01V189.002H266.56C268.836 189.002 270.594 189.492 270.594 191.985C270.594 193.613 269.859 194.419 268.707 194.78L270.925 199.447H269.369ZM266.719 190.299H265.379V193.757H266.719C268.102 193.757 269.182 193.627 269.182 192.013C269.182 190.4 268.102 190.299 266.719 190.299ZM275.715 199.447V190.299H272.575V189.002H280.225V190.299H277.084V199.447H275.715ZM297.051 188.988H298.42V199.447H297.051V194.707H293.017V199.447H291.649V188.988H293.017V193.411H297.051V188.988ZM304.348 188.815C306.955 188.815 308.252 191.063 308.252 194.218C308.252 197.373 306.955 199.635 304.348 199.635C301.74 199.635 300.444 197.373 300.444 194.218C300.444 191.063 301.74 188.815 304.348 188.815ZM304.348 190.083C302.619 190.083 301.855 191.567 301.855 194.218C301.855 196.868 302.619 198.367 304.348 198.367C306.077 198.367 306.84 196.854 306.84 194.218C306.84 191.581 306.077 190.083 304.348 190.083ZM310.146 189.002H311.515V195.356C311.515 197.402 311.875 198.367 313.647 198.367C315.433 198.367 315.808 197.257 315.808 195.197V189.002H317.177V195.082C317.177 198.136 316.37 199.635 313.647 199.635C311.039 199.635 310.146 198.453 310.146 195.197V189.002ZM325.251 199.447L323.206 195.039C322.961 195.053 322.716 195.053 322.442 195.053H321.261V199.447H319.892V189.002H322.442C324.718 189.002 326.476 189.492 326.476 191.985C326.476 193.613 325.741 194.419 324.589 194.78L326.807 199.447H325.251ZM322.6 190.299H321.261V193.757H322.6C323.984 193.757 325.064 193.627 325.064 192.013C325.064 190.4 323.984 190.299 322.6 190.299ZM331.453 194.52C330.07 194.218 328.817 193.353 328.817 191.682C328.817 189.881 330.373 188.815 332.245 188.815C333.859 188.815 335.487 189.68 335.717 191.754H334.363C334.205 190.501 333.124 190.083 332.173 190.083C331.223 190.083 330.229 190.558 330.229 191.639C330.229 192.561 330.891 193.008 331.741 193.195L332.779 193.425C334.45 193.8 335.934 194.52 335.934 196.523C335.934 198.468 334.421 199.635 332.404 199.635C330.272 199.635 328.745 198.266 328.629 196.191H329.984C330.142 197.589 331.107 198.367 332.447 198.367C333.484 198.367 334.551 197.834 334.551 196.624C334.551 195.529 333.744 195.068 332.591 194.794L331.453 194.52Z" fill="#29292D"/>
<rect x="405.135" y="0.414062" width="194.866" height="144.6" fill="#E3DDE4"/>
<path d="M425.925 26.4538C424.542 26.1513 423.288 25.2869 423.288 23.6157C423.288 21.8149 424.844 20.7488 426.717 20.7488C428.33 20.7488 429.958 21.6132 430.189 23.6877H428.835C428.676 22.4344 427.596 22.0166 426.645 22.0166C425.694 22.0166 424.7 22.492 424.7 23.5725C424.7 24.4945 425.363 24.9411 426.213 25.1284L427.25 25.3589C428.921 25.7335 430.405 26.4538 430.405 28.4563C430.405 30.4012 428.892 31.5681 426.875 31.5681C424.743 31.5681 423.216 30.1995 423.101 28.125H424.455C424.614 29.5224 425.579 30.3004 426.919 30.3004C427.956 30.3004 429.022 29.7673 429.022 28.5572C429.022 27.4623 428.215 27.0012 427.063 26.7275L425.925 26.4538ZM438.091 20.9217H439.459V31.3809H438.091V26.6411H434.057V31.3809H432.688V20.9217H434.057V25.3445H438.091V20.9217ZM442.06 22.2327V20.9361H448.701V22.2327H446.065V30.0843H448.701V31.3809H442.06V30.0843H444.696V22.2327H442.06ZM451.488 31.3809V20.9361H454.571C456.315 20.9361 458 21.4403 458 23.5149C458 24.5089 457.64 25.3877 456.963 25.8055C457.871 26.2233 458.389 27.0012 458.389 28.2834C458.389 30.5021 456.776 31.3809 454.888 31.3809H451.488ZM452.857 26.5979V30.0843H455.004C456.315 30.0843 456.977 29.4936 456.977 28.2978C456.977 27.0733 456.329 26.5979 454.903 26.5979H452.857ZM452.857 22.2327V25.3733H454.86C455.954 25.3733 456.632 24.9411 456.632 23.7165C456.632 22.636 455.911 22.2327 454.86 22.2327H452.857ZM460.802 31.3809V20.9361H463.885C465.628 20.9361 467.314 21.4403 467.314 23.5149C467.314 24.5089 466.954 25.3877 466.277 25.8055C467.184 26.2233 467.703 27.0012 467.703 28.2834C467.703 30.5021 466.089 31.3809 464.202 31.3809H460.802ZM462.171 26.5979V30.0843H464.317C465.628 30.0843 466.291 29.4936 466.291 28.2978C466.291 27.0733 465.643 26.5979 464.216 26.5979H462.171ZM462.171 22.2327V25.3733H464.173C465.268 25.3733 465.945 24.9411 465.945 23.7165C465.945 22.636 465.225 22.2327 464.173 22.2327H462.171ZM473.328 20.7488C475.936 20.7488 477.233 22.9962 477.233 26.1513C477.233 29.3063 475.936 31.5681 473.328 31.5681C470.721 31.5681 469.424 29.3063 469.424 26.1513C469.424 22.9962 470.721 20.7488 473.328 20.7488ZM473.328 22.0166C471.6 22.0166 470.836 23.5004 470.836 26.1513C470.836 28.8021 471.6 30.3004 473.328 30.3004C475.057 30.3004 475.821 28.7877 475.821 26.1513C475.821 23.5149 475.057 22.0166 473.328 22.0166ZM481.158 20.9361V30.0843H486.287V31.3809H479.79V20.9361H481.158ZM488.916 31.3809V20.9361H495.14V22.2327H490.285V25.3445H494.851V26.6411H490.285V30.0843H495.14V31.3809H488.916ZM500.578 31.3809V22.2327H497.437V20.9361H505.087V22.2327H501.946V31.3809H500.578ZM512.6 20.9217H513.969V31.3809H512.6V26.6411H508.566V31.3809H507.197V20.9217H508.566V25.3445H512.6V20.9217Z" fill="#29292D"/>
<path d="M219.266 17.604V26.7522H224.394V28.0488H217.897V17.604H219.266ZM226.735 18.9006V17.604H233.377V18.9006H230.74V26.7522H233.377V28.0488H226.735V26.7522H229.372V18.9006H226.735ZM240.068 24.4472H238.685L237.158 18.9439V28.0488H235.789V17.604H237.936L239.377 22.9489L240.817 17.604H242.964V28.0488H241.595V18.9439L240.068 24.4472ZM245.362 18.9006V17.604H252.004V18.9006H249.367V26.7522H252.004V28.0488H245.362V26.7522H247.999V18.9006H245.362ZM257.312 28.0488V18.9006H254.172V17.604H261.822V18.9006H258.681V28.0488H257.312ZM264.278 28.0488V17.604H270.502V18.9006H265.646V22.0125H270.213V23.3091H265.646V26.7522H270.502V28.0488H264.278ZM279.08 22.8192C279.08 19.2608 277.02 18.9006 275.075 18.9006H274.701V26.7522H275.075C277.02 26.7522 279.08 26.3633 279.08 22.8192ZM273.332 17.604H275.119C278.086 17.604 280.478 18.8286 280.478 22.8192C280.478 26.7955 278.086 28.0488 275.119 28.0488H273.332V17.604ZM217.421 37.9006V36.604H224.063V37.9006H221.427V45.7522H224.063V47.0488H217.421V45.7522H220.058V37.9006H217.421ZM233.434 47.0488H231.388L228.046 38.1311V47.0488H226.677V36.604H228.723L232.066 45.4929V36.604H233.434V47.0488ZM238.685 47.0488V37.9006H235.545V36.604H243.194V37.9006H240.054V47.0488H238.685ZM245.651 47.0488V36.604H251.874V37.9006H247.019V41.0125H251.586V42.3091H247.019V45.7522H251.874V47.0488H245.651ZM258.033 37.6845C256.362 37.6845 255.512 39.1108 255.512 41.8048C255.512 44.3836 256.304 45.9683 258.033 45.9683C259.301 45.9683 260.468 45.4065 260.468 43.2599V42.9285H258.062V41.6319H261.721V47.0488H260.684L260.626 45.7378C260.007 46.8183 259.243 47.2361 257.975 47.2361C255.267 47.2361 254.1 44.9743 254.1 41.8048C254.1 38.5777 255.454 36.4167 258.105 36.4167C260.064 36.4167 261.361 37.6989 261.692 39.8311H260.28C260.093 38.621 259.546 37.6845 258.033 37.6845ZM269.594 47.0488L267.548 42.6404C267.303 42.6548 267.058 42.6548 266.785 42.6548H265.603V47.0488H264.235V36.604H266.785C269.061 36.604 270.818 37.0939 270.818 39.5862C270.818 41.2142 270.084 42.0209 268.931 42.3811L271.15 47.0488H269.594ZM266.943 37.9006H265.603V41.3582H266.943C268.326 41.3582 269.407 41.2286 269.407 39.615C269.407 38.0015 268.326 37.9006 266.943 37.9006ZM277.366 36.604L280.795 47.0488H279.325L278.619 44.8158H274.629L273.937 47.0488H272.468L275.897 36.604H277.366ZM276.631 38.4337L275.032 43.5336H278.216L276.631 38.4337ZM285.253 47.0488V37.9006H282.113V36.604H289.763V37.9006H286.622V47.0488H285.253ZM291.931 37.9006V36.604H298.572V37.9006H295.936V45.7522H298.572V47.0488H291.931V45.7522H294.567V37.9006H291.931ZM304.572 36.4167C307.18 36.4167 308.476 38.6642 308.476 41.8192C308.476 44.9743 307.18 47.2361 304.572 47.2361C301.965 47.2361 300.668 44.9743 300.668 41.8192C300.668 38.6642 301.965 36.4167 304.572 36.4167ZM304.572 37.6845C302.843 37.6845 302.08 39.1684 302.08 41.8192C302.08 44.47 302.843 45.9683 304.572 45.9683C306.301 45.9683 307.065 44.4556 307.065 41.8192C307.065 39.1828 306.301 37.6845 304.572 37.6845ZM317.257 47.0488H315.211L311.869 38.1311V47.0488H310.5V36.604H312.546L315.888 45.4929V36.604H317.257V47.0488ZM322.364 42.1218C320.981 41.8192 319.728 40.9548 319.728 39.2837C319.728 37.4828 321.283 36.4167 323.156 36.4167C324.77 36.4167 326.398 37.2811 326.628 39.3557H325.274C325.116 38.1023 324.035 37.6845 323.084 37.6845C322.133 37.6845 321.139 38.1599 321.139 39.2404C321.139 40.1625 321.802 40.6091 322.652 40.7964L323.689 41.0269C325.361 41.4014 326.844 42.1218 326.844 44.1243C326.844 46.0692 325.332 47.2361 323.315 47.2361C321.183 47.2361 319.656 45.8675 319.54 43.7929H320.894C321.053 45.1904 322.018 45.9683 323.358 45.9683C324.395 45.9683 325.461 45.4353 325.461 44.2251C325.461 43.1302 324.655 42.6692 323.502 42.3955L322.364 42.1218Z" fill="#29292D"/>
<rect x="405.135" y="152.578" width="194.866" height="144.6" fill="#E3DDE4"/>
<path d="M426.927 180.447V171.299H423.787V170.002H431.437V171.299H428.296V180.447H426.927ZM436.933 169.815C439.54 169.815 440.837 172.063 440.837 175.218C440.837 178.373 439.54 180.635 436.933 180.635C434.325 180.635 433.028 178.373 433.028 175.218C433.028 172.063 434.325 169.815 436.933 169.815ZM436.933 171.083C435.204 171.083 434.44 172.567 434.44 175.218C434.44 177.868 435.204 179.367 436.933 179.367C438.661 179.367 439.425 177.854 439.425 175.218C439.425 172.581 438.661 171.083 436.933 171.083ZM442.731 170.002H444.1V176.356C444.1 178.402 444.46 179.367 446.232 179.367C448.018 179.367 448.393 178.257 448.393 176.197V170.002H449.761V176.082C449.761 179.136 448.955 180.635 446.232 180.635C443.624 180.635 442.731 179.453 442.731 176.197V170.002ZM457.865 177.206H459.234C458.873 179.453 457.505 180.635 455.603 180.635C453.053 180.635 451.857 178.373 451.857 175.203C451.857 171.962 453.212 169.801 455.704 169.801C457.505 169.801 458.859 171.198 459.205 173.316H457.807C457.62 172.135 456.986 171.083 455.661 171.083C454.148 171.083 453.269 172.509 453.269 175.203C453.269 177.782 454.076 179.367 455.69 179.367C457.029 179.367 457.678 178.474 457.865 177.206ZM466.89 169.988H468.259V180.447H466.89V175.707H462.857V180.447H461.488V169.988H462.857V174.411H466.89V169.988ZM477.558 180.447H475.513L472.17 171.53V180.447H470.802V170.002H472.847L476.19 178.891V170.002H477.558V180.447ZM480.461 180.447V170.002H486.685V171.299H481.83V174.411H486.397V175.707H481.83V179.151H486.685V180.447H480.461ZM492.123 180.447V171.299H488.982V170.002H496.632V171.299H493.492V180.447H492.123Z" fill="#29292D"/>
<rect x="405.135" y="304.82" width="194.866" height="144.6" fill="#E3DDE4"/>
<path d="M422.224 327.544C420.841 327.241 419.587 326.377 419.587 324.706C419.587 322.905 421.143 321.839 423.016 321.839C424.63 321.839 426.258 322.703 426.488 324.778H425.134C424.976 323.524 423.895 323.106 422.944 323.106C421.993 323.106 420.999 323.582 420.999 324.662C420.999 325.584 421.662 326.031 422.512 326.218L423.549 326.449C425.22 326.823 426.704 327.544 426.704 329.546C426.704 331.491 425.192 332.658 423.175 332.658C421.043 332.658 419.515 331.289 419.4 329.215H420.754C420.913 330.612 421.878 331.39 423.218 331.39C424.255 331.39 425.321 330.857 425.321 329.647C425.321 328.552 424.515 328.091 423.362 327.817L422.224 327.544ZM431.682 332.471V323.323H428.541V322.026H436.191V323.323H433.05V332.471H431.682ZM443.963 332.471L441.917 328.062C441.672 328.077 441.427 328.077 441.154 328.077H439.972V332.471H438.604V322.026H441.154C443.43 322.026 445.188 322.516 445.188 325.008C445.188 326.636 444.453 327.443 443.3 327.803L445.519 332.471H443.963ZM441.312 323.323H439.972V326.78H441.312C442.695 326.78 443.776 326.65 443.776 325.037C443.776 323.423 442.695 323.323 441.312 323.323ZM447.961 332.471V322.026H454.184V323.323H449.329V326.434H453.896V327.731H449.329V331.174H454.184V332.471H447.961ZM461.049 322.026L464.478 332.471H463.008L462.302 330.238H458.312L457.62 332.471H456.151L459.579 322.026H461.049ZM460.314 323.856L458.715 328.955H461.899L460.314 323.856ZM470.319 328.869H468.936L467.409 323.366V332.471H466.04V322.026H468.187L469.628 327.371L471.068 322.026H473.215V332.471H471.846V323.366L470.319 328.869ZM477.457 322.026V331.174H482.586V332.471H476.089V322.026H477.457ZM484.927 323.323V322.026H491.569V323.323H488.932V331.174H491.569V332.471H484.927V331.174H487.563V323.323H484.927ZM500.94 332.471H498.894L495.552 323.553V332.471H494.183V322.026H496.229L499.571 330.915V322.026H500.94V332.471ZM503.842 332.471V322.026H510.066V323.323H505.211V326.434H509.778V327.731H505.211V331.174H510.066V332.471H503.842ZM423.794 341.026L427.223 351.471H425.753L425.048 349.238H421.057L420.365 351.471H418.896L422.325 341.026H423.794ZM423.059 342.856L421.46 347.955H424.644L423.059 342.856ZM434.822 346.241C434.822 342.683 432.762 342.323 430.817 342.323H430.443V350.174H430.817C432.762 350.174 434.822 349.785 434.822 346.241ZM429.074 341.026H430.86C433.828 341.026 436.22 342.25 436.22 346.241C436.22 350.217 433.828 351.471 430.86 351.471H429.074V341.026ZM442.378 347.869H440.995L439.468 342.366V351.471H438.1V341.026H440.246L441.687 346.371L443.127 341.026H445.274V351.471H443.905V342.366L442.378 347.869ZM447.672 342.323V341.026H454.314V342.323H451.678V350.174H454.314V351.471H447.672V350.174H450.309V342.323H447.672ZM463.685 351.471H461.639L458.297 342.553V351.471H456.929V341.026H458.974L462.317 349.915V341.026H463.685V351.471ZM478.25 351.471V342.323H475.109V341.026H482.759V342.323H479.618V351.471H478.25ZM488.99 341.026L492.419 351.471H490.949L490.243 349.238H486.252L485.561 351.471H484.091L487.52 341.026H488.99ZM488.255 342.856L486.656 347.955H489.84L488.255 342.856ZM496.733 346.544C495.35 346.241 494.097 345.377 494.097 343.706C494.097 341.905 495.653 340.839 497.525 340.839C499.139 340.839 500.767 341.703 500.997 343.778H499.643C499.485 342.524 498.404 342.106 497.453 342.106C496.503 342.106 495.509 342.582 495.509 343.662C495.509 344.584 496.171 345.031 497.021 345.218L498.058 345.449C499.73 345.823 501.214 346.544 501.214 348.546C501.214 350.491 499.701 351.658 497.684 351.658C495.552 351.658 494.025 350.289 493.909 348.215H495.264C495.422 349.612 496.387 350.39 497.727 350.39C498.764 350.39 499.83 349.857 499.83 348.647C499.83 347.552 499.024 347.091 497.871 346.817L496.733 346.544ZM505.153 341.026V346.025L508.885 341.026H510.498L507.343 345.103L510.902 351.471H509.331L506.45 346.256L505.153 347.927V351.471H503.785V341.026H505.153ZM515.36 346.544C513.977 346.241 512.724 345.377 512.724 343.706C512.724 341.905 514.28 340.839 516.153 340.839C517.766 340.839 519.394 341.703 519.625 343.778H518.27C518.112 342.524 517.032 342.106 516.081 342.106C515.13 342.106 514.136 342.582 514.136 343.662C514.136 344.584 514.799 345.031 515.648 345.218L516.686 345.449C518.357 345.823 519.841 346.544 519.841 348.546C519.841 350.491 518.328 351.658 516.311 351.658C514.179 351.658 512.652 350.289 512.537 348.215H513.891C514.049 349.612 515.015 350.39 516.354 350.39C517.392 350.39 518.458 349.857 518.458 348.647C518.458 347.552 517.651 347.091 516.498 346.817L515.36 346.544Z" fill="#29292D"/>
<rect x="404.535" y="455.262" width="194.866" height="144.6" fill="#E3DDE4"/>
<path d="M419.166 472.53H420.535V478.883C420.535 480.929 420.895 481.894 422.667 481.894C424.453 481.894 424.828 480.785 424.828 478.725V472.53H426.197V478.609C426.197 481.664 425.39 483.162 422.667 483.162C420.059 483.162 419.166 481.981 419.166 478.725V472.53ZM435.366 482.975H433.32L429.978 474.057V482.975H428.61V472.53H430.655L433.998 481.419V472.53H435.366V482.975ZM437.981 473.826V472.53H444.622V473.826H441.986V481.678H444.622V482.975H437.981V481.678H440.617V473.826H437.981ZM447.842 482.975V472.53H454.267V473.826H449.211V476.938H453.994V478.235H449.211V482.975H447.842ZM456.608 473.826V472.53H463.25V473.826H460.613V481.678H463.25V482.975H456.608V481.678H459.244V473.826H456.608ZM466.21 482.975V472.53H472.434V473.826H467.578V476.938H472.145V478.235H467.578V481.678H472.434V482.975H466.21ZM481.012 477.745C481.012 474.187 478.952 473.826 477.007 473.826H476.633V481.678H477.007C478.952 481.678 481.012 481.289 481.012 477.745ZM475.264 472.53H477.051C480.018 472.53 482.41 473.754 482.41 477.745C482.41 481.721 480.018 482.975 477.051 482.975H475.264V472.53ZM422.681 491.343C425.289 491.343 426.586 493.59 426.586 496.745C426.586 499.9 425.289 502.162 422.681 502.162C420.074 502.162 418.777 499.9 418.777 496.745C418.777 493.59 420.074 491.343 422.681 491.343ZM422.681 492.61C420.953 492.61 420.189 494.094 420.189 496.745C420.189 499.396 420.953 500.894 422.681 500.894C424.41 500.894 425.174 499.381 425.174 496.745C425.174 494.109 424.41 492.61 422.681 492.61ZM435.366 501.975H433.32L429.978 493.057V501.975H428.61V491.53H430.655L433.998 500.419V491.53H435.366V501.975ZM438.096 501.975V491.53H441.179C442.922 491.53 444.608 492.034 444.608 494.109C444.608 495.103 444.248 495.981 443.571 496.399C444.478 496.817 444.997 497.595 444.997 498.877C444.997 501.096 443.383 501.975 441.496 501.975H438.096ZM439.465 497.192V500.678H441.611C442.922 500.678 443.585 500.087 443.585 498.892C443.585 497.667 442.937 497.192 441.51 497.192H439.465ZM439.465 492.826V495.967H441.467C442.562 495.967 443.239 495.535 443.239 494.31C443.239 493.23 442.519 492.826 441.467 492.826H439.465ZM450.622 491.343C453.23 491.343 454.527 493.59 454.527 496.745C454.527 499.9 453.23 502.162 450.622 502.162C448.015 502.162 446.718 499.9 446.718 496.745C446.718 493.59 448.015 491.343 450.622 491.343ZM450.622 492.61C448.894 492.61 448.13 494.094 448.13 496.745C448.13 499.396 448.894 500.894 450.622 500.894C452.351 500.894 453.115 499.381 453.115 496.745C453.115 494.109 452.351 492.61 450.622 492.61ZM460.671 491.53L464.1 501.975H462.63L461.924 499.742H457.933L457.242 501.975H455.772L459.201 491.53H460.671ZM459.936 493.359L458.337 498.459H461.521L459.936 493.359ZM471.526 501.975L469.48 497.566C469.235 497.581 468.99 497.581 468.717 497.581H467.535V501.975H466.167V491.53H468.717C470.993 491.53 472.75 492.02 472.75 494.512C472.75 496.14 472.016 496.947 470.863 497.307L473.082 501.975H471.526ZM468.875 492.826H467.535V496.284H468.875C470.258 496.284 471.339 496.154 471.339 494.541C471.339 492.927 470.258 492.826 468.875 492.826ZM481.012 496.745C481.012 493.187 478.952 492.826 477.007 492.826H476.633V500.678H477.007C478.952 500.678 481.012 500.289 481.012 496.745ZM475.264 491.53H477.051C480.018 491.53 482.41 492.754 482.41 496.745C482.41 500.721 480.018 501.975 477.051 501.975H475.264V491.53ZM484.549 492.826V491.53H491.19V492.826H488.554V500.678H491.19V501.975H484.549V500.678H487.185V492.826H484.549ZM500.562 501.975H498.516L495.174 493.057V501.975H493.805V491.53H495.851L499.193 500.419V491.53H500.562V501.975ZM506.533 492.61C504.862 492.61 504.012 494.037 504.012 496.731C504.012 499.309 504.804 500.894 506.533 500.894C507.801 500.894 508.968 500.332 508.968 498.186V497.854H506.562V496.558H510.221V501.975H509.184L509.126 500.664C508.507 501.744 507.743 502.162 506.475 502.162C503.767 502.162 502.6 499.9 502.6 496.731C502.6 493.504 503.954 491.343 506.605 491.343C508.564 491.343 509.861 492.625 510.192 494.757H508.78C508.593 493.547 508.046 492.61 506.533 492.61Z" fill="#29292D"/>
</svg>
