<svg width="125" height="20" viewBox="0 0 125 20" fill="none" xmlns="http://www.w3.org/2000/svg">
<g id="logo">
<g id="Union">
<path fill-rule="evenodd" clip-rule="evenodd" d="M32.7616 0.000416649C31.1404 0.000416649 29.9065 0.449981 29.0605 1.34869C28.214 2.24782 27.7912 3.50735 27.7912 5.12687V6.06141H25.4398V9.07879H27.7912V19.5188H31.4523V9.07879H35.3806V6.06141H31.4523V5.02021C31.4523 4.34399 31.6216 3.83192 31.9601 3.48485C32.2983 3.13779 32.8241 2.96404 33.5367 2.96404C33.9462 2.96404 34.3252 3.00862 34.6726 3.09737C35.0199 3.18653 35.3273 3.31111 35.5945 3.47111V0.667889C35.2914 0.472064 34.8953 0.31207 34.4053 0.187076C33.9149 0.0629141 33.3674 0 32.7616 0V0.000416649ZM46.6308 6.56888C45.5621 5.9639 44.3412 5.661 42.9697 5.661C41.5983 5.661 40.4086 5.9639 39.3491 6.56888C38.2891 7.17427 37.4652 8.01965 36.8772 9.10544C36.2893 10.1916 35.9953 11.4283 35.9953 12.8169C35.9953 14.2056 36.2935 15.4381 36.8906 16.5151C37.4873 17.5922 38.3158 18.4288 39.3758 19.025C40.4357 19.6213 41.6341 19.9196 42.9701 19.9196C44.3062 19.9196 45.5625 19.6213 46.6312 19.025C47.6999 18.4288 48.5327 17.5926 49.1298 16.5151C49.7265 15.4381 50.025 14.2052 50.025 12.8169C50.025 11.4287 49.7265 10.1916 49.1298 9.10544C48.5327 8.01965 47.7004 7.17427 46.6312 6.56888H46.6308ZM45.8961 14.886C45.6376 15.4827 45.2589 15.9452 44.7602 16.2747C44.2611 16.6043 43.6644 16.7685 42.9697 16.7685C42.275 16.7685 41.7138 16.6043 41.2326 16.2747C40.7518 15.9456 40.3774 15.4827 40.1101 14.886C39.8428 14.2898 39.7094 13.6003 39.7094 12.8165C39.7094 12.0328 39.8382 11.317 40.0967 10.7204C40.3549 10.1241 40.7289 9.65708 41.2193 9.31876C41.7088 8.98086 42.2921 8.81129 42.9693 8.81129C43.6465 8.81129 44.2607 8.98086 44.7598 9.31876C45.2581 9.65708 45.6371 10.1287 45.8957 10.7337C46.1538 11.3391 46.2831 12.0332 46.2831 12.8165C46.2831 13.5998 46.1538 14.2894 45.8957 14.886H45.8961ZM59.5776 16.021C60.0321 15.5406 60.259 14.8731 60.259 14.0186H60.2586V6.06183H63.9196V14.259C63.9196 15.3806 63.6744 16.3777 63.1849 17.2497C62.6945 18.1222 61.9823 18.7988 61.0471 19.2792C60.1118 19.7596 58.9847 20 57.72 20C56.4553 20 55.364 19.7596 54.4467 19.2792C53.5289 18.7984 52.8251 18.1222 52.3355 17.2497C51.8456 16.3777 51.6008 15.3806 51.6008 14.259V6.06183H55.2352V14.0186C55.2352 14.8556 55.4579 15.5189 55.9032 16.0081C56.3481 16.4976 56.9365 16.7422 57.7204 16.7422C58.5043 16.7422 59.1231 16.5014 59.5776 16.021ZM76.5329 6.31514C75.8382 5.87891 75.0005 5.661 74.021 5.661C72.8092 5.661 71.8072 5.9639 71.0146 6.56888C70.4475 7.00178 70.008 7.54592 69.6915 8.19756V6.06182H66.0838V19.5188H69.7182V12.2828C69.7182 11.197 69.9721 10.3383 70.4796 9.70625C70.9875 9.07461 71.6955 8.75837 72.6041 8.75837C73.5127 8.75837 74.1094 9.01669 74.5013 9.5325C74.8929 10.0491 75.0893 10.8408 75.0893 11.9087V19.5183H78.7237V11.0808C78.7237 9.95957 78.5319 8.99419 78.1491 8.18381C77.7659 7.37384 77.2271 6.75137 76.5324 6.31472L76.5329 6.31514ZM97.4556 5.66142C98.7558 5.66142 99.8783 5.90641 100.823 6.39556C101.767 6.88554 102.484 7.57968 102.974 8.47839C103.463 9.37752 103.709 10.45 103.709 11.6958V19.5192H100.128V17.8513C99.8533 18.3601 99.4763 18.788 98.9918 19.1321C98.2521 19.6571 97.3656 19.92 96.3327 19.92C95.46 19.92 94.6802 19.7329 93.9947 19.3592C93.3088 18.9855 92.7742 18.4692 92.3914 17.8105C92.0082 17.1522 91.8168 16.4135 91.8168 15.5943C91.8168 14.7044 92.0216 13.9348 92.4314 13.2849C92.8413 12.6353 93.4068 12.1324 94.1285 11.7762C94.8499 11.4204 95.6651 11.242 96.6271 11.242C97.5891 11.242 98.3997 11.4383 99.0589 11.8295C99.493 12.0878 99.8478 12.4007 100.128 12.767V12.0699C100.128 11.0016 99.8245 10.1783 99.219 9.60001C98.6132 9.0217 97.7671 8.73213 96.6805 8.73213C95.879 8.73213 95.1214 8.87462 94.4092 9.15919C93.6962 9.44418 93.0732 9.84458 92.5386 10.3608V7.15678C93.1974 6.7118 93.9367 6.3514 94.7565 6.07516C95.5759 5.79934 96.4757 5.66142 97.4556 5.66142ZM97.6962 17.4363C98.1945 17.4363 98.6315 17.343 99.0055 17.1559L99.0051 17.1551C99.3796 16.9685 99.6644 16.7193 99.8604 16.4076C100.056 16.0964 100.154 15.7448 100.154 15.3531C100.154 14.7656 99.9312 14.2894 99.4863 13.9244C99.041 13.5598 98.4893 13.3774 97.7229 13.3774C96.9565 13.3774 96.3552 13.5557 95.9191 13.9115C95.4825 14.2681 95.2644 14.7569 95.2644 15.3802C95.2644 16.0035 95.4783 16.5018 95.9057 16.8755C96.3335 17.2493 96.9298 17.4363 97.6962 17.4363ZM123.977 8.18423C123.594 7.37426 123.055 6.75179 122.361 6.31514C121.666 5.87891 120.828 5.661 119.849 5.661C118.637 5.661 117.635 5.9639 116.842 6.56888C116.275 7.00178 115.836 7.54592 115.519 8.19756V6.06182H111.911V19.5188H115.546V12.2828C115.546 11.197 115.8 10.3383 116.307 9.70625C116.815 9.07461 117.523 8.75837 118.432 8.75837C119.34 8.75837 119.937 9.01669 120.329 9.5325C120.721 10.0491 120.917 10.8408 120.917 11.9087V19.5183H124.551V11.0808C124.551 9.95957 124.36 8.99419 123.977 8.18381L123.977 8.18423ZM88.2638 16.956C88.7271 16.956 89.1098 16.8981 89.413 16.7822L89.4126 16.7818C89.7153 16.6664 90.0093 16.5197 90.2945 16.3414L90.3212 16.3148V19.145C89.8754 19.43 89.4213 19.6434 88.9581 19.7859C88.4944 19.9284 87.9064 19.9996 87.1942 19.9996C86.2143 19.9996 85.3812 19.8034 84.6957 19.4121C84.0098 19.0209 83.4931 18.4776 83.1458 17.7834C82.7984 17.0889 82.625 16.2706 82.625 15.3269V9.0788H79.8992V6.06143H82.625V2.32325H86.2861V6.06143H90.1606V9.0788H86.2861V14.8731C86.2861 15.5673 86.4554 16.0881 86.7939 16.4352C87.1321 16.7822 87.6225 16.956 88.2638 16.956ZM109.641 6.06141H105.98V19.5188H109.641V6.06141ZM105.593 2.32325C105.593 1.11413 106.574 0.133759 107.784 0.133759C108.994 0.133759 109.975 1.11413 109.975 2.32325C109.975 3.53237 108.994 4.51274 107.784 4.51274C106.574 4.51274 105.593 3.53237 105.593 2.32325ZM15.7126 19.5192C17.7788 19.5192 19.4538 17.8455 19.4538 15.781C19.4538 13.7165 17.7788 12.0428 15.7126 12.0428C13.0836 12.0428 11.1429 13.9736 10.2585 17.2764H9.19523C8.3104 13.9736 6.3702 12.0428 3.74114 12.0428C1.67501 12.0428 0 13.7165 0 15.781C0 17.8455 1.67501 19.5192 3.74114 19.5192H15.7126ZM10.2585 7.5572C11.1429 4.25442 13.0836 2.32367 15.7126 2.32367C17.7787 2.32367 19.4538 3.99735 19.4538 6.06185C19.4538 8.12634 17.7787 9.80002 15.7126 9.80002C13.2153 9.80002 11.1592 10.9716 9.72688 13.0499C8.29455 10.9716 6.23843 9.80002 3.74114 9.80002C1.67501 9.80002 0 8.12634 0 6.06185C0 3.99735 1.67501 2.32367 3.74114 2.32367C6.37019 2.32367 8.3104 4.25442 9.19523 7.5572H10.2585Z" fill="#2C0976" style="mix-blend-mode:plus-darker"/>
</g>
</g>
</svg>
