<svg width="270" height="50" viewBox="0 0 270 50" fill="none" xmlns="http://www.w3.org/2000/svg">
<path d="M24.9999 0C11.1928 0 -0.00012207 11.1929 -0.00012207 25C-0.00012207 38.8071 11.1928 50 24.9999 50H49.9999V25C36.1928 25 24.9999 36.1929 24.9999 50V0Z" fill="#00FF88"/>
<path d="M39.9999 20C45.5227 20 49.9999 15.5228 49.9999 10C49.9999 4.47715 45.5227 0 39.9999 0C34.477 0 29.9999 4.47715 29.9999 10C29.9999 15.5228 34.477 20 39.9999 20Z" fill="#00FF88"/>
<path d="M110.229 4.24001C110.229 6.58169 108.331 8.48 105.989 8.48C103.647 8.48 101.749 6.58169 101.749 4.24001C101.749 1.89832 103.647 0 105.989 0C108.331 0 110.229 1.89832 110.229 4.24001Z" fill="black"/>
<path d="M102.511 11.7974H109.468V38.9713H102.511V11.7974Z" fill="black"/>
<path fill-rule="evenodd" clip-rule="evenodd" d="M90.8695 11.9565H97.1738V35.1087C97.1738 38.1884 96.4129 40.8333 94.8912 43.0435C93.3695 45.2899 91.1593 47.0109 88.2608 48.2065C85.3984 49.4022 81.9564 50 77.9347 50L76.8477 44.1304C81.2318 44.058 84.547 43.279 86.7934 41.7935C88.8683 40.4432 90.0001 38.5539 90.1889 36.1258C89.4591 36.9019 88.5809 37.5954 87.5542 38.2065C86.0325 39.0761 84.2209 39.5109 82.1195 39.5109C79.7281 39.5109 77.6267 38.9312 75.8151 37.7717C74.0035 36.6123 72.5723 35 71.5216 32.9348C70.5071 30.8333 69.9999 28.3695 69.9999 25.5435C69.9999 22.7174 70.5071 20.2536 71.5216 18.1521C72.5723 16.0507 74.0035 14.4384 75.8151 13.3152C77.6267 12.1558 79.7281 11.5761 82.1195 11.5761C83.3514 11.5761 84.4926 11.7572 85.5434 12.1195C86.6303 12.4456 87.5724 12.8985 88.3695 13.4782C89.2028 14.0217 89.8912 14.6377 90.4347 15.3261L90.8695 11.9565ZM77.4999 25.5435C77.4999 27.8261 78.0796 29.6739 79.239 31.0869C80.3984 32.4638 81.9564 33.1522 83.9129 33.1522C85.0361 33.1522 86.0687 32.8623 87.0108 32.2826C87.9528 31.6667 88.7137 30.779 89.2934 29.6196C89.9093 28.4601 90.2173 27.1014 90.2173 25.5435C90.2173 23.913 89.9093 22.5362 89.2934 21.413C88.7137 20.2898 87.9347 19.4384 86.9564 18.8587C86.0144 18.2427 84.9999 17.9348 83.9129 17.9348C81.9564 17.9348 80.3984 18.6413 79.239 20.0543C78.0796 21.4311 77.4999 23.2609 77.4999 25.5435Z" fill="black"/>
<path fill-rule="evenodd" clip-rule="evenodd" d="M140.805 11.9565H134.501L134.066 15.3261C133.522 14.6377 132.834 14.0217 132.001 13.4782C131.204 12.8985 130.261 12.4456 129.175 12.1195C128.124 11.7572 126.982 11.5761 125.751 11.5761C123.359 11.5761 121.258 12.1558 119.446 13.3152C117.635 14.4384 116.203 16.0507 115.153 18.1521C114.138 20.2536 113.631 22.7174 113.631 25.5435C113.631 28.3695 114.138 30.8333 115.153 32.9348C116.203 35 117.635 36.6123 119.446 37.7717C121.258 38.9312 123.359 39.5109 125.751 39.5109C127.852 39.5109 129.664 39.0761 131.185 38.2065C132.212 37.5954 133.09 36.9019 133.82 36.1258C133.631 38.5539 132.499 40.4432 130.425 41.7935C128.178 43.279 124.863 44.058 120.479 44.1304L121.566 50C125.588 50 129.03 49.4022 131.892 48.2065C134.79 47.0109 137.001 45.2899 138.522 43.0435C140.044 40.8333 140.805 38.1884 140.805 35.1087V11.9565ZM122.87 31.0869C121.711 29.6739 121.131 27.8261 121.131 25.5435C121.131 23.2609 121.711 21.4311 122.87 20.0543C124.03 18.6413 125.588 17.9348 127.544 17.9348C128.631 17.9348 129.646 18.2427 130.588 18.8587C131.566 19.4384 132.345 20.2898 132.925 21.413C133.54 22.5362 133.848 23.913 133.848 25.5435C133.848 27.1014 133.54 28.4601 132.925 29.6196C132.345 30.779 131.584 31.6667 130.642 32.2826C129.7 32.8623 128.667 33.1522 127.544 33.1522C125.588 33.1522 124.03 32.4638 122.87 31.0869Z" fill="black"/>
<path fill-rule="evenodd" clip-rule="evenodd" d="M203.22 15.1223L203.712 11.9565H210.018V39.1304H203.713L203.279 35.7609C202.409 36.7754 201.25 37.663 199.8 38.4239C198.387 39.1486 196.739 39.5109 194.855 39.5109C192.5 39.5109 190.416 38.9312 188.605 37.7717C186.793 36.6123 185.38 35 184.366 32.9348C183.351 30.8333 182.844 28.3695 182.844 25.5435C182.844 22.7174 183.351 20.2536 184.366 18.1521C185.38 16.0507 186.793 14.4384 188.605 13.3152C190.416 12.1558 192.5 11.5761 194.855 11.5761C196.992 11.5761 198.822 12.0108 200.344 12.8804C201.503 13.5274 202.462 14.2747 203.22 15.1223ZM192.083 31.0869C190.924 29.6739 190.344 27.8261 190.344 25.5435C190.344 23.2609 190.924 21.4311 192.083 20.0543C193.242 18.6413 194.764 17.9348 196.648 17.9348C197.808 17.9348 198.858 18.2427 199.8 18.8587C200.779 19.4384 201.558 20.2898 202.137 21.413C202.753 22.5362 203.061 23.913 203.061 25.5435C203.061 27.1739 202.753 28.5507 202.137 29.6739C201.558 30.7971 200.779 31.6667 199.8 32.2826C198.858 32.8623 197.808 33.1522 196.648 33.1522C194.764 33.1522 193.242 32.4638 192.083 31.0869Z" fill="black"/>
<path fill-rule="evenodd" clip-rule="evenodd" d="M234.021 11.9565H240.325V35.1087C240.325 38.1884 239.564 40.8333 238.043 43.0435C236.521 45.2899 234.311 47.0109 231.412 48.2065C228.55 49.4022 225.108 50 221.086 50L219.999 44.1304C224.383 44.058 227.698 43.279 229.945 41.7935C232.02 40.4432 233.151 38.5539 233.34 36.1258C232.611 36.9019 231.732 37.5954 230.706 38.2065C229.184 39.0761 227.372 39.5109 225.271 39.5109C222.88 39.5109 220.778 38.9312 218.966 37.7717C217.155 36.6123 215.724 35 214.673 32.9348C213.658 30.8333 213.151 28.3695 213.151 25.5435C213.151 22.7174 213.658 20.2536 214.673 18.1521C215.724 16.0507 217.155 14.4384 218.966 13.3152C220.778 12.1558 222.88 11.5761 225.271 11.5761C226.503 11.5761 227.644 11.7572 228.695 12.1195C229.782 12.4456 230.724 12.8985 231.521 13.4782C232.354 14.0217 233.043 14.6377 233.586 15.3261L234.021 11.9565ZM220.651 25.5435C220.651 27.8261 221.231 29.6739 222.39 31.0869C223.55 32.4638 225.108 33.1522 227.064 33.1522C228.188 33.1522 229.22 32.8623 230.162 32.2826C231.104 31.6667 231.865 30.779 232.445 29.6196C233.061 28.4601 233.369 27.1014 233.369 25.5435C233.369 23.913 233.061 22.5362 232.445 21.413C231.865 20.2898 231.086 19.4384 230.108 18.8587C229.166 18.2427 228.151 17.9348 227.064 17.9348C225.108 17.9348 223.55 18.6413 222.39 20.0543C221.231 21.4311 220.651 23.2609 220.651 25.5435Z" fill="black"/>
<path fill-rule="evenodd" clip-rule="evenodd" d="M257.228 39.5109C254.511 39.5109 252.12 38.913 250.054 37.7174C247.989 36.5217 246.377 34.8551 245.217 32.7174C244.094 30.5797 243.533 28.1159 243.533 25.3261C243.533 22.6449 244.094 20.2717 245.217 18.2065C246.341 16.1413 247.899 14.529 249.891 13.3695C251.92 12.1739 254.221 11.5761 256.794 11.5761C259.402 11.5761 261.703 12.1377 263.696 13.2608C265.688 14.384 267.228 15.9601 268.315 17.9891C269.438 19.9819 270 22.3188 270 25C270 25.3985 269.964 25.8514 269.891 26.3587C269.855 26.8297 269.801 27.3369 269.728 27.8804H251.033C251.178 29.0398 251.54 30.0362 252.12 30.8696C252.736 31.6667 253.478 32.3007 254.348 32.7717C255.254 33.2065 256.268 33.4239 257.391 33.4239C258.732 33.4239 259.928 33.1522 260.978 32.6087C262.065 32.029 262.844 31.2862 263.315 30.3804L269.511 32.2283C268.424 34.5471 266.794 36.3406 264.62 37.6087C262.482 38.8768 260.018 39.5109 257.228 39.5109ZM262.391 22.8261C262.355 21.8116 262.083 20.9058 261.576 20.1087C261.069 19.2753 260.399 18.6413 259.565 18.2065C258.732 17.7355 257.808 17.5 256.794 17.5C255.888 17.5 255.036 17.7355 254.239 18.2065C253.442 18.6775 252.754 19.3116 252.174 20.1087C251.63 20.8695 251.268 21.7753 251.087 22.8261H262.391Z" fill="black"/>
<path d="M158.232 39.1305H151.112L143.069 11.9566H150.243L154.754 30.3261L159.536 11.9566H166.493L171.112 30.3261L175.569 11.9566H182.689L174.645 39.1305H167.362L162.852 22.0653L158.232 39.1305Z" fill="black"/>
</svg>
