<svg width="265" height="166" viewBox="0 0 265 166" fill="none" xmlns="http://www.w3.org/2000/svg">
<g clip-path="url(#clip0_5976_45513)">
<path d="M2 30C2 13.4315 15.4315 0 32 0H234C250.569 0 264 13.4315 264 30V165.515H2V30Z" fill="white"/>
<g opacity="0.5">
<path opacity="0.9" d="M-17.5273 -66.3047H265.838V338.155L-17.5273 426.096V-66.3047Z" fill="#ECF2E9"/>
<path opacity="0.9" d="M330.476 15.2518L522.15 223.955L266.536 520.215L-89.4161 321.301L330.476 15.2518Z" fill="url(#paint0_linear_5976_45513)" fill-opacity="0.2"/>
</g>
</g>
<line x1="0.564453" y1="67.8235" x2="262.564" y2="67.8235" stroke="#E0E0E0" stroke-width="0.353023"/>
<path d="M240.879 52.7576C244.678 52.7576 247.758 49.6778 247.758 45.8788C247.758 42.0797 244.678 39 240.879 39C237.08 39 234 42.0797 234 45.8788C234 49.6778 237.08 52.7576 240.879 52.7576Z" stroke="#333333" stroke-width="1.2" stroke-miterlimit="10"/>
<path d="M236.083 50.422C237.093 48.8443 238.86 47.7715 240.879 47.7715C242.899 47.7715 244.666 48.8443 245.675 50.422" stroke="#333333" stroke-width="1.2" stroke-miterlimit="10"/>
<path d="M240.879 45.94C241.96 45.94 242.836 45.0642 242.836 43.9837C242.836 42.9032 241.96 42.0273 240.879 42.0273C239.799 42.0273 238.923 42.9032 238.923 43.9837C238.923 45.0642 239.799 45.94 240.879 45.94Z" stroke="#333333" stroke-width="1.2" stroke-miterlimit="10"/>
<path d="M222.096 40.3535C223.962 40.3535 226.636 41.7065 226.636 46.0006C226.636 48.177 227.009 49.7065 227.88 50.7065C228.067 50.8829 227.942 51.177 227.631 51.177H222.033H216.435C216.186 51.177 216.062 50.8829 216.186 50.7065C217.057 49.7653 217.431 48.177 217.431 46.0006C217.555 41.7065 220.23 40.3535 222.096 40.3535Z" stroke="#29292D" stroke-width="1.2" stroke-miterlimit="10"/>
<path d="M222.718 40H221.412V39.5294C221.412 39.2353 221.661 39 221.972 39H222.159C222.47 39 222.718 39.2353 222.718 39.5294V40V40Z" fill="#29292D"/>
<path d="M221.039 52.2363C221.163 52.6481 221.599 53.001 222.096 53.001C222.594 53.001 223.029 52.7069 223.154 52.2363H221.039Z" fill="#29292D"/>
<path d="M98.9365 48.3507V47.9907C98.9365 47.7387 99.0625 47.6127 99.3145 47.6127H100.845C101.097 47.6127 101.223 47.7387 101.223 47.9907V48.1347C101.223 48.5907 101.313 48.9027 101.493 49.0707C101.673 49.2387 102.003 49.3227 102.483 49.3227H103.329C103.797 49.3227 104.121 49.2327 104.301 49.0527C104.493 48.8727 104.589 48.5367 104.589 48.0447V47.8287C104.589 47.4807 104.445 47.2167 104.157 47.0367C103.881 46.8447 103.533 46.7307 103.113 46.6947C102.693 46.6587 102.237 46.5927 101.745 46.4967C101.265 46.3887 100.815 46.2567 100.395 46.1007C99.9745 45.9327 99.6205 45.6147 99.3325 45.1467C99.0565 44.6667 98.9185 44.0547 98.9185 43.3107V42.6807C98.9185 41.7447 99.1825 41.0187 99.7105 40.5027C100.239 39.9867 100.971 39.7287 101.907 39.7287H103.707C104.655 39.7287 105.393 39.9867 105.921 40.5027C106.449 41.0187 106.713 41.7447 106.713 42.6807V43.0227C106.713 43.2747 106.587 43.4007 106.335 43.4007H104.805C104.553 43.4007 104.427 43.2747 104.427 43.0227V42.9147C104.427 42.4467 104.337 42.1287 104.157 41.9607C103.977 41.7927 103.647 41.7087 103.167 41.7087H102.465C101.973 41.7087 101.637 41.8047 101.457 41.9967C101.289 42.1767 101.205 42.5367 101.205 43.0767V43.4187C101.205 43.9827 101.697 44.3067 102.681 44.3907C103.701 44.4747 104.607 44.6787 105.399 45.0027C105.819 45.1827 106.167 45.5067 106.443 45.9747C106.731 46.4307 106.875 47.0187 106.875 47.7387V48.3507C106.875 49.2867 106.611 50.0127 106.083 50.5287C105.555 51.0447 104.823 51.3027 103.887 51.3027H101.925C100.989 51.3027 100.257 51.0447 99.7285 50.5287C99.2005 50.0127 98.9365 49.2867 98.9365 48.3507ZM113.68 51.3027H111.718C110.77 51.3027 110.038 51.0507 109.522 50.5467C109.006 50.0427 108.748 49.3167 108.748 48.3687V42.6627C108.748 41.7147 109.006 40.9887 109.522 40.4847C110.038 39.9807 110.77 39.7287 111.718 39.7287H113.68C114.616 39.7287 115.342 39.9867 115.858 40.5027C116.386 41.0067 116.65 41.7267 116.65 42.6627V43.5087C116.65 43.7727 116.518 43.9047 116.254 43.9047H114.742C114.49 43.9047 114.364 43.7727 114.364 43.5087V42.7707C114.364 42.3867 114.28 42.1167 114.112 41.9607C113.956 41.7927 113.686 41.7087 113.302 41.7087H112.078C111.706 41.7087 111.436 41.7927 111.268 41.9607C111.112 42.1167 111.034 42.3867 111.034 42.7707V48.2607C111.034 48.6447 111.112 48.9207 111.268 49.0887C111.436 49.2447 111.706 49.3227 112.078 49.3227H113.302C113.686 49.3227 113.956 49.2447 114.112 49.0887C114.28 48.9207 114.364 48.6447 114.364 48.2607V47.5227C114.364 47.2587 114.49 47.1267 114.742 47.1267H116.254C116.518 47.1267 116.65 47.2587 116.65 47.5227V48.3687C116.65 49.3047 116.386 50.0307 115.858 50.5467C115.342 51.0507 114.616 51.3027 113.68 51.3027ZM120.521 51.3027H118.991C118.739 51.3027 118.613 51.1767 118.613 50.9247V40.1067C118.613 39.8547 118.739 39.7287 118.991 39.7287H120.521C120.773 39.7287 120.899 39.8547 120.899 40.1067V44.3367C120.899 44.4687 120.971 44.5347 121.115 44.5347H124.157C124.289 44.5347 124.355 44.4687 124.355 44.3367V40.1067C124.355 39.8547 124.481 39.7287 124.733 39.7287H126.263C126.515 39.7287 126.641 39.8547 126.641 40.1067V50.9247C126.641 51.1767 126.515 51.3027 126.263 51.3027H124.733C124.481 51.3027 124.355 51.1767 124.355 50.9247V46.7127C124.355 46.5807 124.289 46.5147 124.157 46.5147H121.115C120.971 46.5147 120.899 46.5807 120.899 46.7127V50.9247C120.899 51.1767 120.773 51.3027 120.521 51.3027ZM135.248 51.3027H129.362C129.11 51.3027 128.984 51.1767 128.984 50.9247V40.1067C128.984 39.8547 129.11 39.7287 129.362 39.7287H135.248C135.488 39.7287 135.608 39.8547 135.608 40.1067V41.3307C135.608 41.5827 135.488 41.7087 135.248 41.7087H131.486C131.342 41.7087 131.27 41.7747 131.27 41.9067V44.2467C131.27 44.3787 131.342 44.4447 131.486 44.4447H134.564C134.816 44.4447 134.942 44.5707 134.942 44.8227V46.0467C134.942 46.2987 134.816 46.4247 134.564 46.4247H131.486C131.342 46.4247 131.27 46.4907 131.27 46.6227V49.1247C131.27 49.2567 131.342 49.3227 131.486 49.3227H135.248C135.488 49.3227 135.608 49.4487 135.608 49.7007V50.9247C135.608 51.1767 135.488 51.3027 135.248 51.3027ZM140.082 49.3227H142.044C142.428 49.3227 142.698 49.2447 142.854 49.0887C143.022 48.9207 143.106 48.6447 143.106 48.2607V42.7707C143.106 42.3867 143.022 42.1167 142.854 41.9607C142.698 41.7927 142.428 41.7087 142.044 41.7087H140.082C139.95 41.7087 139.884 41.7747 139.884 41.9067V49.1247C139.884 49.2567 139.95 49.3227 140.082 49.3227ZM137.598 50.9247V40.1067C137.598 39.8547 137.724 39.7287 137.976 39.7287H142.422C143.358 39.7287 144.084 39.9867 144.6 40.5027C145.128 41.0067 145.392 41.7267 145.392 42.6627V48.3687C145.392 49.3047 145.128 50.0307 144.6 50.5467C144.084 51.0507 143.358 51.3027 142.422 51.3027H137.976C137.724 51.3027 137.598 51.1767 137.598 50.9247ZM153.469 39.7287H154.981C155.245 39.7287 155.377 39.8487 155.377 40.0887V48.3687C155.377 49.3047 155.113 50.0307 154.585 50.5467C154.069 51.0507 153.343 51.3027 152.407 51.3027H150.427C149.479 51.3027 148.747 51.0507 148.231 50.5467C147.715 50.0427 147.457 49.3167 147.457 48.3687V40.1067C147.457 39.8547 147.583 39.7287 147.835 39.7287H149.365C149.617 39.7287 149.743 39.8547 149.743 40.1067V48.2607C149.743 48.6447 149.821 48.9207 149.977 49.0887C150.145 49.2447 150.415 49.3227 150.787 49.3227H152.029C152.413 49.3227 152.683 49.2447 152.839 49.0887C153.007 48.9207 153.091 48.6447 153.091 48.2607V40.1067C153.091 39.8547 153.217 39.7287 153.469 39.7287ZM163.919 51.3027H157.997C157.745 51.3027 157.619 51.1767 157.619 50.9247V40.1067C157.619 39.8547 157.745 39.7287 157.997 39.7287H159.527C159.779 39.7287 159.905 39.8547 159.905 40.1067V49.1067C159.905 49.2387 159.977 49.3047 160.121 49.3047H163.919C164.159 49.3047 164.279 49.4367 164.279 49.7007V50.9247C164.279 51.1767 164.159 51.3027 163.919 51.3027ZM171.969 51.3027H166.083C165.831 51.3027 165.705 51.1767 165.705 50.9247V40.1067C165.705 39.8547 165.831 39.7287 166.083 39.7287H171.969C172.209 39.7287 172.329 39.8547 172.329 40.1067V41.3307C172.329 41.5827 172.209 41.7087 171.969 41.7087H168.207C168.063 41.7087 167.991 41.7747 167.991 41.9067V44.2467C167.991 44.3787 168.063 44.4447 168.207 44.4447H171.285C171.537 44.4447 171.663 44.5707 171.663 44.8227V46.0467C171.663 46.2987 171.537 46.4247 171.285 46.4247H168.207C168.063 46.4247 167.991 46.4907 167.991 46.6227V49.1247C167.991 49.2567 168.063 49.3227 168.207 49.3227H171.969C172.209 49.3227 172.329 49.4487 172.329 49.7007V50.9247C172.329 51.1767 172.209 51.3027 171.969 51.3027Z" fill="#275D38"/>
<path d="M23.6165 50V43.7H26.5685C27.3245 43.7 27.9005 43.85 28.2965 44.15C28.6925 44.444 28.8905 44.84 28.8905 45.338C28.8905 45.674 28.8125 45.962 28.6565 46.202C28.5005 46.436 28.2905 46.619 28.0265 46.751C27.7685 46.877 27.4865 46.94 27.1805 46.94L27.3425 46.616C27.6965 46.616 28.0145 46.682 28.2965 46.814C28.5785 46.94 28.8005 47.126 28.9625 47.372C29.1305 47.618 29.2145 47.924 29.2145 48.29C29.2145 48.83 29.0075 49.25 28.5935 49.55C28.1795 49.85 27.5645 50 26.7485 50H23.6165ZM24.7865 49.082H26.6765C27.1145 49.082 27.4505 49.01 27.6845 48.866C27.9185 48.722 28.0355 48.491 28.0355 48.173C28.0355 47.861 27.9185 47.633 27.6845 47.489C27.4505 47.339 27.1145 47.264 26.6765 47.264H24.6965V46.355H26.4425C26.8505 46.355 27.1625 46.283 27.3785 46.139C27.6005 45.995 27.7115 45.779 27.7115 45.491C27.7115 45.197 27.6005 44.978 27.3785 44.834C27.1625 44.69 26.8505 44.618 26.4425 44.618H24.7865V49.082ZM33.3162 50V49.028L33.2532 48.821V47.12C33.2532 46.79 33.1542 46.535 32.9562 46.355C32.7582 46.169 32.4582 46.076 32.0562 46.076C31.7862 46.076 31.5192 46.118 31.2552 46.202C30.9972 46.286 30.7782 46.403 30.5982 46.553L30.1572 45.734C30.4152 45.536 30.7212 45.389 31.0752 45.293C31.4352 45.191 31.8072 45.14 32.1912 45.14C32.8872 45.14 33.4242 45.308 33.8022 45.644C34.1862 45.974 34.3782 46.487 34.3782 47.183V50H33.3162ZM31.8042 50.063C31.4442 50.063 31.1292 50.003 30.8592 49.883C30.5892 49.757 30.3792 49.586 30.2292 49.37C30.0852 49.148 30.0132 48.899 30.0132 48.623C30.0132 48.353 30.0762 48.11 30.2022 47.894C30.3342 47.678 30.5472 47.507 30.8412 47.381C31.1352 47.255 31.5252 47.192 32.0112 47.192H33.4062V47.939H32.0922C31.7082 47.939 31.4502 48.002 31.3182 48.128C31.1862 48.248 31.1202 48.398 31.1202 48.578C31.1202 48.782 31.2012 48.944 31.3632 49.064C31.5252 49.184 31.7502 49.244 32.0382 49.244C32.3142 49.244 32.5602 49.181 32.7762 49.055C32.9982 48.929 33.1572 48.743 33.2532 48.497L33.4422 49.172C33.3342 49.454 33.1392 49.673 32.8572 49.829C32.5812 49.985 32.2302 50.063 31.8042 50.063ZM38.0358 50.063C37.5318 50.063 37.0818 49.958 36.6858 49.748C36.2958 49.532 35.9898 49.238 35.7678 48.866C35.5458 48.494 35.4348 48.071 35.4348 47.597C35.4348 47.117 35.5458 46.694 35.7678 46.328C35.9898 45.956 36.2958 45.665 36.6858 45.455C37.0818 45.245 37.5318 45.14 38.0358 45.14C38.5038 45.14 38.9148 45.236 39.2688 45.428C39.6288 45.614 39.9018 45.89 40.0878 46.256L39.2238 46.76C39.0798 46.532 38.9028 46.364 38.6928 46.256C38.4888 46.148 38.2668 46.094 38.0268 46.094C37.7508 46.094 37.5018 46.154 37.2798 46.274C37.0578 46.394 36.8838 46.568 36.7578 46.796C36.6318 47.018 36.5688 47.285 36.5688 47.597C36.5688 47.909 36.6318 48.179 36.7578 48.407C36.8838 48.629 37.0578 48.8 37.2798 48.92C37.5018 49.04 37.7508 49.1 38.0268 49.1C38.2668 49.1 38.4888 49.046 38.6928 48.938C38.9028 48.83 39.0798 48.662 39.2238 48.434L40.0878 48.938C39.9018 49.298 39.6288 49.577 39.2688 49.775C38.9148 49.967 38.5038 50.063 38.0358 50.063ZM41.9343 48.929L41.9613 47.516L44.4723 45.194H45.8223L43.6893 47.336L43.0953 47.831L41.9343 48.929ZM41.0163 50V43.322H42.1413V50H41.0163ZM44.6433 50L42.8883 47.831L43.5993 46.931L46.0113 50H44.6433Z" fill="#29292D"/>
<path fill-rule="evenodd" clip-rule="evenodd" d="M18.9596 49.974C18.8542 50.0794 18.7112 50.1385 18.5621 50.1385C18.4131 50.1385 18.2701 50.0794 18.1646 49.974L15.1646 46.974C15.0593 46.8686 15.0001 46.7256 15.0001 46.5765C15.0001 46.4275 15.0593 46.2845 15.1646 46.179L18.1646 43.179C18.2161 43.1238 18.2782 43.0794 18.3472 43.0487C18.4162 43.018 18.4907 43.0014 18.5662 43.0001C18.6418 42.9988 18.7168 43.0126 18.7868 43.0409C18.8569 43.0692 18.9205 43.1113 18.9739 43.1648C19.0273 43.2182 19.0694 43.2818 19.0977 43.3518C19.126 43.4219 19.1399 43.4969 19.1386 43.5724C19.1373 43.648 19.1207 43.7224 19.09 43.7914C19.0592 43.8604 19.0149 43.9225 18.9596 43.974L16.3571 46.5765L18.9596 49.179C19.065 49.2845 19.1241 49.4275 19.1241 49.5765C19.1241 49.7256 19.065 49.8686 18.9596 49.974Z" fill="#29292D"/>
<path d="M115.308 89.6445V82.7253H118.007C118.613 82.7253 119.13 82.8208 119.559 83.0119C119.987 83.203 120.317 83.4798 120.547 83.8422C120.778 84.2047 120.893 84.6363 120.893 85.1371C120.893 85.638 120.778 86.0696 120.547 86.432C120.317 86.7879 119.987 87.0613 119.559 87.2524C119.13 87.4436 118.613 87.5391 118.007 87.5391H115.852L116.297 87.0844V89.6445H115.308ZM119.934 89.6445L118.175 87.1338H119.233L121.012 89.6445H119.934ZM116.297 87.1833L115.852 86.6989H117.977C118.61 86.6989 119.088 86.5638 119.411 86.2936C119.74 86.0169 119.905 85.6314 119.905 85.1371C119.905 84.6429 119.74 84.2607 119.411 83.9905C119.088 83.7203 118.61 83.5852 117.977 83.5852H115.852L116.297 83.091V87.1833ZM124.685 89.7038C124.124 89.7038 123.63 89.5885 123.202 89.3579C122.78 89.1272 122.451 88.8109 122.213 88.409C121.983 88.007 121.867 87.5457 121.867 87.0251C121.867 86.5045 121.979 86.0432 122.204 85.6413C122.434 85.2393 122.747 84.9263 123.143 84.7022C123.545 84.4716 123.996 84.3562 124.497 84.3562C125.004 84.3562 125.452 84.4683 125.841 84.6923C126.23 84.9164 126.533 85.2327 126.75 85.6413C126.975 86.0432 127.087 86.5144 127.087 87.0548C127.087 87.0943 127.083 87.1404 127.077 87.1931C127.077 87.2459 127.073 87.2953 127.067 87.3414H122.609V86.6594H126.573L126.187 86.8966C126.194 86.5605 126.124 86.2607 125.979 85.9971C125.835 85.7335 125.634 85.5292 125.377 85.3843C125.126 85.2327 124.833 85.1569 124.497 85.1569C124.167 85.1569 123.874 85.2327 123.617 85.3843C123.36 85.5292 123.159 85.7368 123.014 86.007C122.869 86.2706 122.797 86.5737 122.797 86.9164V87.0745C122.797 87.4238 122.876 87.7368 123.034 88.0136C123.199 88.2837 123.426 88.4946 123.716 88.6462C124.006 88.7977 124.339 88.8735 124.714 88.8735C125.024 88.8735 125.304 88.8208 125.554 88.7154C125.811 88.6099 126.035 88.4518 126.227 88.2409L126.75 88.8538C126.513 89.1305 126.217 89.3414 125.861 89.4864C125.512 89.6314 125.12 89.7038 124.685 89.7038ZM130.697 91.6215C130.216 91.6215 129.749 91.5523 129.294 91.4139C128.846 91.2821 128.48 91.091 128.197 90.8406L128.651 90.1091C128.895 90.32 129.195 90.4847 129.551 90.6033C129.907 90.7285 130.279 90.7911 130.668 90.7911C131.287 90.7911 131.742 90.6462 132.032 90.3562C132.322 90.0663 132.467 89.6248 132.467 89.0317V87.9246L132.566 86.8867L132.516 85.8389V84.4057H133.416V88.9328C133.416 89.8554 133.185 90.5341 132.724 90.9691C132.263 91.404 131.587 91.6215 130.697 91.6215ZM130.579 89.4271C130.071 89.4271 129.617 89.3216 129.215 89.1108C128.819 88.8933 128.503 88.5935 128.266 88.2113C128.035 87.8291 127.92 87.3875 127.92 86.8867C127.92 86.3793 128.035 85.9378 128.266 85.5622C128.503 85.18 128.819 84.8834 129.215 84.6726C129.617 84.4617 130.071 84.3562 130.579 84.3562C131.027 84.3562 131.436 84.4485 131.805 84.633C132.174 84.8109 132.467 85.0877 132.684 85.4633C132.908 85.8389 133.02 86.3134 133.02 86.8867C133.02 87.4534 132.908 87.9246 132.684 88.3002C132.467 88.6758 132.174 88.9592 131.805 89.1503C131.436 89.3348 131.027 89.4271 130.579 89.4271ZM130.688 88.5968C131.037 88.5968 131.347 88.5243 131.617 88.3793C131.887 88.2343 132.098 88.0333 132.249 87.7763C132.408 87.5193 132.487 87.2228 132.487 86.8867C132.487 86.5506 132.408 86.2541 132.249 85.9971C132.098 85.7401 131.887 85.5424 131.617 85.404C131.347 85.259 131.037 85.1866 130.688 85.1866C130.338 85.1866 130.025 85.259 129.749 85.404C129.478 85.5424 129.264 85.7401 129.106 85.9971C128.954 86.2541 128.879 86.5506 128.879 86.8867C128.879 87.2228 128.954 87.5193 129.106 87.7763C129.264 88.0333 129.478 88.2343 129.749 88.3793C130.025 88.5243 130.338 88.5968 130.688 88.5968ZM135.229 89.6445V84.4057H136.178V89.6445H135.229ZM135.703 83.3974C135.519 83.3974 135.364 83.3381 135.239 83.2195C135.12 83.1009 135.061 82.9559 135.061 82.7846C135.061 82.6067 135.12 82.4584 135.239 82.3398C135.364 82.2212 135.519 82.1619 135.703 82.1619C135.888 82.1619 136.039 82.2212 136.158 82.3398C136.283 82.4518 136.346 82.5935 136.346 82.7648C136.346 82.9427 136.287 83.0943 136.168 83.2195C136.049 83.3381 135.894 83.3974 135.703 83.3974ZM139.492 89.7038C139.057 89.7038 138.642 89.6445 138.247 89.5259C137.858 89.4073 137.551 89.2623 137.327 89.091L137.723 88.3398C137.947 88.4913 138.224 88.6198 138.553 88.7253C138.883 88.8307 139.219 88.8834 139.561 88.8834C140.003 88.8834 140.319 88.8208 140.51 88.6956C140.708 88.5704 140.807 88.3958 140.807 88.1717C140.807 88.007 140.747 87.8785 140.629 87.7862C140.51 87.694 140.352 87.6248 140.154 87.5786C139.963 87.5325 139.749 87.493 139.512 87.46C139.275 87.4205 139.037 87.3744 138.8 87.3216C138.563 87.2623 138.345 87.1833 138.148 87.0844C137.95 86.979 137.792 86.8373 137.673 86.6594C137.555 86.4749 137.495 86.231 137.495 85.9279C137.495 85.6116 137.584 85.3348 137.762 85.0976C137.94 84.8604 138.191 84.6791 138.514 84.5539C138.843 84.4221 139.232 84.3562 139.68 84.3562C140.023 84.3562 140.369 84.3991 140.718 84.4847C141.074 84.5638 141.364 84.6791 141.588 84.8307L141.182 85.5819C140.945 85.4238 140.698 85.3151 140.441 85.2557C140.184 85.1964 139.927 85.1668 139.67 85.1668C139.255 85.1668 138.945 85.236 138.741 85.3744C138.537 85.5062 138.434 85.6775 138.434 85.8884C138.434 86.0663 138.494 86.2047 138.612 86.3035C138.738 86.3958 138.896 86.4683 139.087 86.521C139.285 86.5737 139.502 86.6198 139.739 86.6594C139.976 86.6923 140.214 86.7384 140.451 86.7978C140.688 86.8505 140.902 86.9263 141.093 87.0251C141.291 87.1239 141.449 87.2623 141.568 87.4403C141.693 87.6182 141.756 87.8554 141.756 88.152C141.756 88.4683 141.663 88.7417 141.479 88.9724C141.294 89.203 141.034 89.3842 140.698 89.516C140.362 89.6412 139.96 89.7038 139.492 89.7038ZM144.741 89.7038C144.213 89.7038 143.805 89.5622 143.515 89.2788C143.225 88.9954 143.08 88.5902 143.08 88.063V83.2591H144.029V88.0234C144.029 88.3068 144.098 88.5243 144.236 88.6758C144.381 88.8274 144.586 88.9032 144.849 88.9032C145.146 88.9032 145.393 88.8208 145.591 88.6561L145.887 89.3381C145.742 89.4633 145.568 89.5556 145.363 89.6149C145.166 89.6742 144.958 89.7038 144.741 89.7038ZM142.19 85.1866V84.4057H145.531V85.1866H142.19ZM149.193 89.7038C148.633 89.7038 148.139 89.5885 147.711 89.3579C147.289 89.1272 146.96 88.8109 146.722 88.409C146.492 88.007 146.376 87.5457 146.376 87.0251C146.376 86.5045 146.488 86.0432 146.712 85.6413C146.943 85.2393 147.256 84.9263 147.651 84.7022C148.053 84.4716 148.505 84.3562 149.006 84.3562C149.513 84.3562 149.961 84.4683 150.35 84.6923C150.739 84.9164 151.042 85.2327 151.259 85.6413C151.483 86.0432 151.595 86.5144 151.595 87.0548C151.595 87.0943 151.592 87.1404 151.586 87.1931C151.586 87.2459 151.582 87.2953 151.576 87.3414H147.118V86.6594H151.081L150.696 86.8966C150.703 86.5605 150.633 86.2607 150.488 85.9971C150.343 85.7335 150.142 85.5292 149.885 85.3843C149.635 85.2327 149.342 85.1569 149.006 85.1569C148.676 85.1569 148.383 85.2327 148.126 85.3843C147.869 85.5292 147.668 85.7368 147.523 86.007C147.378 86.2706 147.306 86.5737 147.306 86.9164V87.0745C147.306 87.4238 147.385 87.7368 147.543 88.0136C147.707 88.2837 147.935 88.4946 148.225 88.6462C148.515 88.7977 148.848 88.8735 149.223 88.8735C149.533 88.8735 149.813 88.8208 150.063 88.7154C150.32 88.6099 150.544 88.4518 150.735 88.2409L151.259 88.8538C151.022 89.1305 150.726 89.3414 150.37 89.4864C150.021 89.6314 149.628 89.7038 149.193 89.7038ZM152.913 89.6445V84.4057H153.823V85.8291L153.734 85.4732C153.879 85.1108 154.122 84.834 154.465 84.6429C154.808 84.4518 155.229 84.3562 155.73 84.3562V85.2755C155.691 85.2689 155.651 85.2656 155.612 85.2656C155.579 85.2656 155.546 85.2656 155.513 85.2656C155.005 85.2656 154.603 85.4172 154.307 85.7203C154.01 86.0235 153.862 86.4617 153.862 87.035V89.6445H152.913Z" fill="#29292D"/>
<path d="M209.082 89.6445V82.7253H211.78C212.387 82.7253 212.904 82.8208 213.332 83.0119C213.761 83.203 214.09 83.4798 214.321 83.8422C214.551 84.2047 214.667 84.6363 214.667 85.1371C214.667 85.638 214.551 86.0696 214.321 86.432C214.09 86.7879 213.761 87.0646 213.332 87.2623C212.904 87.4534 212.387 87.549 211.78 87.549H209.625L210.07 87.0844V89.6445H209.082ZM210.07 87.1833L209.625 86.689H211.751C212.383 86.689 212.861 86.5539 213.184 86.2838C213.513 86.0136 213.678 85.6314 213.678 85.1371C213.678 84.6429 213.513 84.2607 213.184 83.9905C212.861 83.7203 212.383 83.5852 211.751 83.5852H209.625L210.07 83.091V87.1833ZM216.077 89.6445V82.3101H217.026V89.6445H216.077ZM222.09 89.6445V88.5375L222.04 88.3299V86.4419C222.04 86.0399 221.922 85.7302 221.685 85.5128C221.454 85.2887 221.105 85.1767 220.637 85.1767C220.327 85.1767 220.024 85.2294 219.727 85.3348C219.431 85.4337 219.18 85.5688 218.976 85.7401L218.581 85.0284C218.851 84.8109 219.174 84.6462 219.549 84.5342C219.932 84.4156 220.33 84.3562 220.745 84.3562C221.464 84.3562 222.017 84.5309 222.406 84.8801C222.795 85.2294 222.989 85.7632 222.989 86.4814V89.6445H222.09ZM220.37 89.7038C219.981 89.7038 219.638 89.6379 219.342 89.5061C219.052 89.3744 218.828 89.1931 218.67 88.9625C218.512 88.7253 218.432 88.4584 218.432 88.1618C218.432 87.8785 218.498 87.6215 218.63 87.3908C218.769 87.1602 218.989 86.9757 219.292 86.8373C219.602 86.6989 220.017 86.6297 220.538 86.6297H222.199V87.3118H220.577C220.103 87.3118 219.783 87.3908 219.619 87.549C219.454 87.7071 219.372 87.8982 219.372 88.1223C219.372 88.3793 219.474 88.5869 219.678 88.745C219.882 88.8966 220.166 88.9724 220.528 88.9724C220.884 88.9724 221.194 88.8933 221.457 88.7351C221.727 88.577 221.922 88.3463 222.04 88.0432L222.228 88.6956C222.103 89.0053 221.882 89.2524 221.566 89.437C221.25 89.6149 220.851 89.7038 220.37 89.7038ZM227.543 84.3562C227.971 84.3562 228.347 84.4386 228.67 84.6034C228.999 84.7681 229.256 85.0185 229.441 85.3546C229.625 85.6907 229.717 86.1157 229.717 86.6297V89.6445H228.768V86.7384C228.768 86.231 228.643 85.8488 228.393 85.5918C228.149 85.3348 227.803 85.2063 227.355 85.2063C227.019 85.2063 226.726 85.2722 226.475 85.404C226.225 85.5358 226.03 85.7302 225.892 85.9872C225.76 86.2442 225.694 86.5638 225.694 86.946V89.6445H224.745V84.4057H225.655V85.8192L225.506 85.4436C225.678 85.1009 225.941 84.834 226.297 84.6429C226.653 84.4518 227.068 84.3562 227.543 84.3562ZM234.271 84.3562C234.699 84.3562 235.075 84.4386 235.398 84.6034C235.727 84.7681 235.984 85.0185 236.169 85.3546C236.353 85.6907 236.445 86.1157 236.445 86.6297V89.6445H235.497V86.7384C235.497 86.231 235.371 85.8488 235.121 85.5918C234.877 85.3348 234.531 85.2063 234.083 85.2063C233.747 85.2063 233.454 85.2722 233.203 85.404C232.953 85.5358 232.758 85.7302 232.62 85.9872C232.488 86.2442 232.422 86.5638 232.422 86.946V89.6445H231.473V84.4057H232.383V85.8192L232.235 85.4436C232.406 85.1009 232.67 84.834 233.025 84.6429C233.381 84.4518 233.796 84.3562 234.271 84.3562ZM240.534 89.7038C239.974 89.7038 239.48 89.5885 239.052 89.3579C238.63 89.1272 238.3 88.8109 238.063 88.409C237.833 88.007 237.717 87.5457 237.717 87.0251C237.717 86.5045 237.829 86.0432 238.053 85.6413C238.284 85.2393 238.597 84.9263 238.992 84.7022C239.394 84.4716 239.846 84.3562 240.347 84.3562C240.854 84.3562 241.302 84.4683 241.691 84.6923C242.08 84.9164 242.383 85.2327 242.6 85.6413C242.824 86.0432 242.936 86.5144 242.936 87.0548C242.936 87.0943 242.933 87.1404 242.926 87.1931C242.926 87.2459 242.923 87.2953 242.917 87.3414H238.459V86.6594H242.422L242.037 86.8966C242.043 86.5605 241.974 86.2607 241.829 85.9971C241.684 85.7335 241.483 85.5292 241.226 85.3843C240.976 85.2327 240.683 85.1569 240.347 85.1569C240.017 85.1569 239.724 85.2327 239.467 85.3843C239.21 85.5292 239.009 85.7368 238.864 86.007C238.719 86.2706 238.646 86.5737 238.646 86.9164V87.0745C238.646 87.4238 238.725 87.7368 238.884 88.0136C239.048 88.2837 239.276 88.4946 239.566 88.6462C239.856 88.7977 240.188 88.8735 240.564 88.8735C240.874 88.8735 241.154 88.8208 241.404 88.7154C241.661 88.6099 241.885 88.4518 242.076 88.2409L242.6 88.8538C242.363 89.1305 242.066 89.3414 241.711 89.4864C241.361 89.6314 240.969 89.7038 240.534 89.7038ZM244.254 89.6445V84.4057H245.163V85.8291L245.074 85.4732C245.219 85.1108 245.463 84.834 245.806 84.6429C246.149 84.4518 246.57 84.3562 247.071 84.3562V85.2755C247.032 85.2689 246.992 85.2656 246.953 85.2656C246.92 85.2656 246.887 85.2656 246.854 85.2656C246.346 85.2656 245.944 85.4172 245.648 85.7203C245.351 86.0235 245.203 86.4617 245.203 87.035V89.6445H244.254Z" fill="#29292D"/>
<path d="M17.6748 93.2832H66.3244" stroke="#275D38"/>
<path d="M21.2376 89.7631C20.6841 89.7631 20.1536 89.6907 19.6462 89.5457C19.1388 89.3941 18.7302 89.1997 18.4205 88.9625L18.9642 87.7566C19.2607 87.9674 19.61 88.1421 20.0119 88.2805C20.4205 88.4122 20.8324 88.4781 21.2475 88.4781C21.5638 88.4781 21.8175 88.4485 22.0086 88.3892C22.2063 88.3233 22.3513 88.2343 22.4436 88.1223C22.5358 88.0103 22.5819 87.8818 22.5819 87.7368C22.5819 87.5523 22.5094 87.4073 22.3645 87.3019C22.2195 87.1898 22.0284 87.1009 21.7912 87.035C21.5539 86.9625 21.2903 86.8966 21.0004 86.8373C20.717 86.7714 20.4304 86.6923 20.1404 86.6001C19.8571 86.5078 19.5968 86.3892 19.3595 86.2442C19.1223 86.0992 18.9279 85.9081 18.7763 85.6709C18.6314 85.4337 18.5589 85.1305 18.5589 84.7615C18.5589 84.3661 18.6643 84.007 18.8752 83.6841C19.0927 83.3546 19.4156 83.0943 19.8439 82.9032C20.2788 82.7055 20.8225 82.6067 21.4749 82.6067C21.9098 82.6067 22.3381 82.6594 22.7599 82.7648C23.1816 82.8637 23.5539 83.0152 23.8768 83.2195L23.3826 84.4353C23.0597 84.2508 22.7368 84.1157 22.4139 84.0301C22.091 83.9378 21.7747 83.8917 21.465 83.8917C21.1553 83.8917 20.9015 83.9279 20.7039 84.0004C20.5062 84.0729 20.3645 84.1684 20.2788 84.2871C20.1931 84.3991 20.1503 84.5309 20.1503 84.6824C20.1503 84.8604 20.2228 85.0053 20.3678 85.1174C20.5128 85.2228 20.7039 85.3085 20.9411 85.3744C21.1783 85.4403 21.4386 85.5062 21.722 85.5721C22.0119 85.638 22.2986 85.7137 22.5819 85.7994C22.8719 85.8851 23.1355 86.0004 23.3727 86.1454C23.6099 86.2903 23.801 86.4814 23.946 86.7187C24.0976 86.9559 24.1734 87.2557 24.1734 87.6182C24.1734 88.007 24.0646 88.3628 23.8472 88.6857C23.6297 89.0086 23.3035 89.2689 22.8686 89.4666C22.4403 89.6643 21.8966 89.7631 21.2376 89.7631ZM27.7288 89.7236C27.1555 89.7236 26.6448 89.6083 26.1967 89.3776C25.7486 89.1404 25.396 88.8142 25.139 88.3991C24.8886 87.9839 24.7634 87.5127 24.7634 86.9856C24.7634 86.4518 24.8886 85.9806 25.139 85.5721C25.396 85.1569 25.7486 84.834 26.1967 84.6034C26.6448 84.3661 27.1555 84.2475 27.7288 84.2475C28.289 84.2475 28.7766 84.3661 29.1918 84.6034C29.6069 84.834 29.9133 85.1668 30.111 85.6017L28.915 86.2442C28.7766 85.9938 28.602 85.8093 28.3911 85.6907C28.1868 85.5721 27.9628 85.5128 27.7189 85.5128C27.4553 85.5128 27.2181 85.5721 27.0072 85.6907C26.7964 85.8093 26.6283 85.9773 26.5031 86.1948C26.3845 86.4123 26.3252 86.6758 26.3252 86.9856C26.3252 87.2953 26.3845 87.5589 26.5031 87.7763C26.6283 87.9938 26.7964 88.1618 27.0072 88.2805C27.2181 88.3991 27.4553 88.4584 27.7189 88.4584C27.9628 88.4584 28.1868 88.4024 28.3911 88.2903C28.602 88.1717 28.7766 87.9839 28.915 87.7269L30.111 88.3793C29.9133 88.8076 29.6069 89.1404 29.1918 89.3776C28.7766 89.6083 28.289 89.7236 27.7288 89.7236ZM34.2022 84.2475C34.6239 84.2475 34.9995 84.3332 35.329 84.5045C35.6651 84.6693 35.9287 84.9263 36.1198 85.2755C36.3109 85.6182 36.4065 86.0597 36.4065 86.6001V89.6445H34.8645V86.8373C34.8645 86.409 34.7689 86.0926 34.5778 85.8884C34.3933 85.6841 34.1297 85.5819 33.787 85.5819C33.5432 85.5819 33.3225 85.6347 33.1248 85.7401C32.9337 85.8389 32.7821 85.9938 32.6701 86.2047C32.5646 86.4155 32.5119 86.6857 32.5119 87.0152V89.6445H30.9699V82.3101H32.5119V85.7994L32.1659 85.3546C32.3571 84.9987 32.6305 84.7253 32.9864 84.5342C33.3422 84.3431 33.7475 84.2475 34.2022 84.2475ZM40.482 89.7236C39.8758 89.7236 39.342 89.605 38.8807 89.3678C38.426 89.1305 38.0735 88.8076 37.8231 88.3991C37.5726 87.9839 37.4474 87.5127 37.4474 86.9856C37.4474 86.4518 37.5693 85.9806 37.8132 85.5721C38.0636 85.1569 38.403 84.834 38.8313 84.6034C39.2596 84.3661 39.744 84.2475 40.2843 84.2475C40.8049 84.2475 41.2728 84.3595 41.6879 84.5836C42.1097 84.8011 42.4425 85.1174 42.6863 85.5325C42.9301 85.9411 43.052 86.432 43.052 87.0053C43.052 87.0646 43.0487 87.1338 43.0421 87.2129C43.0356 87.2854 43.029 87.3546 43.0224 87.4205H38.7028V86.521H42.2118L41.6188 86.7879C41.6188 86.5111 41.5627 86.2706 41.4507 86.0663C41.3387 85.862 41.1838 85.7039 40.9861 85.5918C40.7884 85.4732 40.5578 85.4139 40.2942 85.4139C40.0306 85.4139 39.7967 85.4732 39.5924 85.5918C39.3947 85.7039 39.2399 85.8653 39.1278 86.0762C39.0158 86.2805 38.9598 86.5243 38.9598 86.8076V87.0449C38.9598 87.3348 39.0224 87.5918 39.1476 87.8159C39.2794 88.0333 39.4606 88.2014 39.6912 88.32C39.9285 88.432 40.2053 88.488 40.5216 88.488C40.8049 88.488 41.052 88.4452 41.2629 88.3595C41.4804 88.2739 41.6781 88.1454 41.856 87.974L42.6764 88.8636C42.4326 89.1404 42.1262 89.3546 41.7571 89.5061C41.3881 89.6511 40.9631 89.7236 40.482 89.7236ZM46.362 89.7236C45.8612 89.7236 45.4098 89.6116 45.0078 89.3875C44.6058 89.1569 44.2862 88.8373 44.049 88.4287C43.8183 88.0202 43.703 87.5391 43.703 86.9856C43.703 86.4254 43.8183 85.9411 44.049 85.5325C44.2862 85.124 44.6058 84.8076 45.0078 84.5836C45.4098 84.3595 45.8612 84.2475 46.362 84.2475C46.8101 84.2475 47.2022 84.3464 47.5383 84.5441C47.8743 84.7417 48.1346 85.0416 48.3192 85.4436C48.5037 85.8455 48.5959 86.3595 48.5959 86.9856C48.5959 87.605 48.507 88.119 48.329 88.5276C48.1511 88.9295 47.8941 89.2294 47.558 89.4271C47.2285 89.6248 46.8299 89.7236 46.362 89.7236ZM46.6289 88.4584C46.8793 88.4584 47.1066 88.3991 47.3109 88.2805C47.5152 88.1618 47.6766 87.9938 47.7953 87.7763C47.9205 87.5523 47.9831 87.2887 47.9831 86.9856C47.9831 86.6758 47.9205 86.4123 47.7953 86.1948C47.6766 85.9773 47.5152 85.8093 47.3109 85.6907C47.1066 85.5721 46.8793 85.5128 46.6289 85.5128C46.3719 85.5128 46.1412 85.5721 45.937 85.6907C45.7327 85.8093 45.5679 85.9773 45.4427 86.1948C45.3241 86.4123 45.2648 86.6758 45.2648 86.9856C45.2648 87.2887 45.3241 87.5523 45.4427 87.7763C45.5679 87.9938 45.7327 88.1618 45.937 88.2805C46.1412 88.3991 46.3719 88.4584 46.6289 88.4584ZM48.0226 89.6445V88.5572L48.0523 86.9757L47.9534 85.404V82.3101H49.4954V89.6445H48.0226ZM53.1664 89.7236C52.7249 89.7236 52.3295 89.6379 51.9803 89.4666C51.6376 89.2953 51.3707 89.035 51.1796 88.6857C50.9885 88.3299 50.8929 87.8785 50.8929 87.3315V84.3266H52.4349V87.1042C52.4349 87.5457 52.5272 87.8719 52.7117 88.0828C52.9028 88.287 53.1697 88.3892 53.5124 88.3892C53.7496 88.3892 53.9605 88.3398 54.145 88.2409C54.3295 88.1355 54.4745 87.9773 54.5799 87.7664C54.6853 87.549 54.7381 87.2788 54.7381 86.9559V84.3266H56.2801V89.6445H54.8171V88.1816L55.084 88.6066C54.9061 88.9757 54.6425 89.2557 54.2933 89.4468C53.9506 89.6314 53.575 89.7236 53.1664 89.7236ZM57.7086 89.6445V82.3101H59.2506V89.6445H57.7086ZM63.3209 89.7236C62.7147 89.7236 62.1809 89.605 61.7196 89.3678C61.2649 89.1305 60.9124 88.8076 60.662 88.3991C60.4116 87.9839 60.2864 87.5127 60.2864 86.9856C60.2864 86.4518 60.4083 85.9806 60.6521 85.5721C60.9025 85.1569 61.2419 84.834 61.6702 84.6034C62.0985 84.3661 62.5829 84.2475 63.1233 84.2475C63.6438 84.2475 64.1117 84.3595 64.5269 84.5836C64.9486 84.8011 65.2814 85.1174 65.5252 85.5325C65.769 85.9411 65.891 86.432 65.891 87.0053C65.891 87.0646 65.8877 87.1338 65.8811 87.2129C65.8745 87.2854 65.8679 87.3546 65.8613 87.4205H61.5417V86.521H65.0508L64.4577 86.7879C64.4577 86.5111 64.4017 86.2706 64.2896 86.0663C64.1776 85.862 64.0228 85.7039 63.8251 85.5918C63.6274 85.4732 63.3967 85.4139 63.1331 85.4139C62.8695 85.4139 62.6356 85.4732 62.4313 85.5918C62.2336 85.7039 62.0788 85.8653 61.9668 86.0762C61.8547 86.2805 61.7987 86.5243 61.7987 86.8076V87.0449C61.7987 87.3348 61.8613 87.5918 61.9865 87.8159C62.1183 88.0333 62.2995 88.2014 62.5302 88.32C62.7674 88.432 63.0442 88.488 63.3605 88.488C63.6438 88.488 63.891 88.4452 64.1018 88.3595C64.3193 88.2739 64.517 88.1454 64.6949 87.974L65.5153 88.8636C65.2715 89.1404 64.9651 89.3546 64.5961 89.5061C64.227 89.6511 63.802 89.7236 63.3209 89.7236Z" fill="#275D38"/>
<path d="M237.904 120.658H235.468V123.196H237.904V120.658Z" fill="#737373"/>
<path fill-rule="evenodd" clip-rule="evenodd" d="M234.946 120.657C234.946 120.357 235.18 120.113 235.468 120.113H237.904C238.193 120.113 238.426 120.357 238.426 120.657V123.195C238.426 123.495 238.193 123.738 237.904 123.738H235.468C235.18 123.738 234.946 123.495 234.946 123.195V120.657ZM235.99 121.201V122.651H237.382V121.201H235.99Z" fill="#737373"/>
<path d="M237.904 125.152H235.468V127.69H237.904V125.152Z" fill="#737373"/>
<path fill-rule="evenodd" clip-rule="evenodd" d="M234.946 125.153C234.946 124.853 235.18 124.609 235.468 124.609H237.904C238.193 124.609 238.426 124.853 238.426 125.153V127.691C238.426 127.991 238.193 128.234 237.904 128.234H235.468C235.18 128.234 234.946 127.991 234.946 127.691V125.153ZM235.99 125.697V127.147H237.382V125.697H235.99Z" fill="#737373"/>
<path d="M237.904 129.721H235.468V132.258H237.904V129.721Z" fill="#737373"/>
<path fill-rule="evenodd" clip-rule="evenodd" d="M234.946 129.72C234.946 129.419 235.18 129.176 235.468 129.176H237.904C238.193 129.176 238.426 129.419 238.426 129.72V132.257C238.426 132.557 238.193 132.801 237.904 132.801H235.468C235.18 132.801 234.946 132.557 234.946 132.257V129.72ZM235.99 130.263V131.713H237.382V130.263H235.99Z" fill="#737373"/>
<path fill-rule="evenodd" clip-rule="evenodd" d="M239.575 121.819C239.575 121.418 239.887 121.094 240.271 121.094H248.275C248.66 121.094 248.971 121.418 248.971 121.819C248.971 122.219 248.66 122.544 248.275 122.544H240.271C239.887 122.544 239.575 122.219 239.575 121.819Z" fill="#737373"/>
<path fill-rule="evenodd" clip-rule="evenodd" d="M239.575 126.457C239.575 126.057 239.887 125.732 240.271 125.732H248.275C248.66 125.732 248.971 126.057 248.971 126.457C248.971 126.858 248.66 127.182 248.275 127.182H240.271C239.887 127.182 239.575 126.858 239.575 126.457Z" fill="#737373"/>
<path fill-rule="evenodd" clip-rule="evenodd" d="M239.575 131.026C239.575 130.625 239.887 130.301 240.271 130.301H248.275C248.66 130.301 248.971 130.625 248.971 131.026C248.971 131.426 248.66 131.751 248.275 131.751H240.271C239.887 131.751 239.575 131.426 239.575 131.026Z" fill="#737373"/>
<rect x="175.056" y="122.254" width="12.528" height="8.7" rx="2.11814" fill="#ECCE64"/>
<path d="M192.245 129.254L190.593 124.312H191.32L192.838 128.873H192.471L194.046 124.312H194.695L196.234 128.873H195.881L197.421 124.312H198.091L196.439 129.254H195.698L194.258 125.025H194.448L193.001 129.254H192.245ZM200.896 129.254V128.463L200.861 128.315V126.966C200.861 126.679 200.776 126.458 200.607 126.303C200.442 126.143 200.193 126.063 199.858 126.063C199.637 126.063 199.421 126.1 199.209 126.176C198.997 126.246 198.818 126.343 198.672 126.465L198.39 125.957C198.583 125.801 198.814 125.684 199.082 125.604C199.355 125.519 199.64 125.477 199.936 125.477C200.449 125.477 200.845 125.601 201.122 125.851C201.4 126.1 201.539 126.481 201.539 126.995V129.254H200.896ZM199.668 129.296C199.39 129.296 199.145 129.249 198.934 129.155C198.726 129.061 198.566 128.931 198.453 128.767C198.34 128.597 198.284 128.407 198.284 128.195C198.284 127.992 198.331 127.809 198.425 127.644C198.524 127.479 198.682 127.348 198.898 127.249C199.119 127.15 199.416 127.1 199.788 127.1H200.974V127.588H199.816C199.477 127.588 199.249 127.644 199.131 127.757C199.014 127.87 198.955 128.007 198.955 128.167C198.955 128.35 199.028 128.498 199.174 128.611C199.32 128.72 199.522 128.774 199.781 128.774C200.035 128.774 200.256 128.717 200.445 128.604C200.637 128.491 200.776 128.327 200.861 128.11L200.995 128.576C200.906 128.797 200.748 128.974 200.522 129.106C200.296 129.233 200.011 129.296 199.668 129.296ZM202.793 129.254V125.512H203.471V129.254H202.793ZM203.132 124.792C203 124.792 202.89 124.749 202.8 124.665C202.716 124.58 202.673 124.476 202.673 124.354C202.673 124.227 202.716 124.121 202.8 124.036C202.89 123.952 203 123.909 203.132 123.909C203.264 123.909 203.372 123.952 203.457 124.036C203.546 124.116 203.591 124.217 203.591 124.34C203.591 124.467 203.549 124.575 203.464 124.665C203.379 124.749 203.269 124.792 203.132 124.792ZM206.05 129.296C205.674 129.296 205.382 129.195 205.175 128.993C204.968 128.79 204.864 128.501 204.864 128.124V124.693H205.542V128.096C205.542 128.298 205.591 128.454 205.69 128.562C205.794 128.67 205.94 128.724 206.128 128.724C206.34 128.724 206.516 128.666 206.657 128.548L206.869 129.035C206.766 129.124 206.641 129.19 206.495 129.233C206.354 129.275 206.206 129.296 206.05 129.296ZM204.229 126.07V125.512H206.615V126.07H204.229ZM207.689 129.254V124.015H208.366V129.254H207.689ZM209.661 129.254V125.512H210.338V129.254H209.661ZM210 124.792C209.868 124.792 209.757 124.749 209.668 124.665C209.583 124.58 209.541 124.476 209.541 124.354C209.541 124.227 209.583 124.121 209.668 124.036C209.757 123.952 209.868 123.909 210 123.909C210.131 123.909 210.24 123.952 210.324 124.036C210.414 124.116 210.458 124.217 210.458 124.34C210.458 124.467 210.416 124.575 210.331 124.665C210.247 124.749 210.136 124.792 210 124.792ZM212.706 129.296C212.395 129.296 212.099 129.254 211.816 129.169C211.538 129.084 211.32 128.981 211.16 128.859L211.442 128.322C211.602 128.43 211.8 128.522 212.035 128.597C212.27 128.673 212.51 128.71 212.755 128.71C213.071 128.71 213.296 128.666 213.433 128.576C213.574 128.487 213.645 128.362 213.645 128.202C213.645 128.084 213.602 127.992 213.518 127.927C213.433 127.861 213.32 127.811 213.179 127.778C213.042 127.745 212.889 127.717 212.72 127.694C212.55 127.665 212.381 127.632 212.212 127.595C212.042 127.552 211.887 127.496 211.746 127.425C211.604 127.35 211.491 127.249 211.407 127.122C211.322 126.99 211.28 126.816 211.28 126.599C211.28 126.373 211.343 126.176 211.47 126.006C211.597 125.837 211.776 125.707 212.007 125.618C212.242 125.524 212.52 125.477 212.84 125.477C213.085 125.477 213.332 125.507 213.581 125.568C213.835 125.625 214.043 125.707 214.203 125.815L213.913 126.352C213.744 126.239 213.567 126.161 213.384 126.119C213.2 126.077 213.016 126.056 212.833 126.056C212.536 126.056 212.315 126.105 212.169 126.204C212.023 126.298 211.95 126.42 211.95 126.571C211.95 126.698 211.993 126.797 212.077 126.867C212.167 126.933 212.28 126.985 212.416 127.023C212.557 127.06 212.713 127.093 212.882 127.122C213.052 127.145 213.221 127.178 213.391 127.22C213.56 127.258 213.713 127.312 213.85 127.383C213.991 127.453 214.104 127.552 214.188 127.679C214.278 127.807 214.323 127.976 214.323 128.188C214.323 128.414 214.257 128.609 214.125 128.774C213.993 128.939 213.807 129.068 213.567 129.162C213.327 129.252 213.04 129.296 212.706 129.296ZM216.455 129.296C216.078 129.296 215.786 129.195 215.579 128.993C215.372 128.79 215.269 128.501 215.269 128.124V124.693H215.946V128.096C215.946 128.298 215.996 128.454 216.095 128.562C216.198 128.67 216.344 128.724 216.532 128.724C216.744 128.724 216.921 128.666 217.062 128.548L217.274 129.035C217.17 129.124 217.045 129.19 216.9 129.233C216.758 129.275 216.61 129.296 216.455 129.296ZM214.633 126.07V125.512H217.02V126.07H214.633Z" fill="#29292D"/>
<rect x="15.3179" y="118.276" width="100.234" height="16.656" rx="2.47116" stroke="#CFCFCF" stroke-width="0.706046"/>
<path d="M71.7607 129.078V128.718L73.8153 126.706C74.0036 126.522 74.1448 126.362 74.2389 126.226C74.3331 126.084 74.3966 125.953 74.4296 125.83C74.4625 125.708 74.479 125.593 74.479 125.484C74.479 125.197 74.3801 124.971 74.1825 124.807C73.9895 124.642 73.7023 124.559 73.3211 124.559C73.0292 124.559 72.7704 124.604 72.5444 124.694C72.3232 124.783 72.1326 124.922 71.9725 125.11L71.6124 124.799C71.8054 124.574 72.0526 124.399 72.3538 124.277C72.655 124.155 72.9916 124.093 73.3634 124.093C73.6976 124.093 73.9871 124.148 74.2319 124.256C74.4766 124.359 74.6649 124.512 74.7967 124.715C74.9332 124.917 75.0015 125.155 75.0015 125.428C75.0015 125.588 74.9779 125.746 74.9309 125.901C74.8885 126.056 74.8085 126.221 74.6908 126.395C74.5778 126.565 74.4107 126.758 74.1895 126.974L72.3044 128.824L72.1632 128.626H75.2274V129.078H71.7607ZM78.0894 125.336C78.3907 125.336 78.6543 125.395 78.8802 125.513C79.1108 125.626 79.2897 125.8 79.4168 126.035C79.5486 126.27 79.6145 126.567 79.6145 126.925V129.078H79.1132V126.974C79.1132 126.583 79.0143 126.289 78.8167 126.092C78.6237 125.889 78.3507 125.788 77.9976 125.788C77.7341 125.788 77.5034 125.842 77.3057 125.95C77.1127 126.054 76.9621 126.207 76.8538 126.409C76.7503 126.607 76.6985 126.847 76.6985 127.129V129.078H76.1972V125.371H76.6773V126.388L76.5997 126.197C76.7173 125.929 76.9056 125.72 77.1645 125.569C77.4234 125.414 77.7317 125.336 78.0894 125.336ZM82.4442 129.113C82.0912 129.113 81.7734 129.033 81.491 128.873C81.2133 128.713 80.9944 128.492 80.8344 128.21C80.6744 127.923 80.5943 127.593 80.5943 127.221C80.5943 126.845 80.6744 126.515 80.8344 126.233C80.9944 125.95 81.2133 125.731 81.491 125.576C81.7734 125.416 82.0912 125.336 82.4442 125.336C82.769 125.336 83.0584 125.409 83.3126 125.555C83.5715 125.701 83.7763 125.915 83.9269 126.197C84.0822 126.475 84.1599 126.816 84.1599 127.221C84.1599 127.621 84.0846 127.963 83.9339 128.245C83.7833 128.527 83.5786 128.744 83.3197 128.895C83.0655 129.04 82.7737 129.113 82.4442 129.113ZM82.4795 128.669C82.7431 128.669 82.9784 128.61 83.1855 128.492C83.3973 128.37 83.5621 128.2 83.6798 127.984C83.8021 127.763 83.8633 127.508 83.8633 127.221C83.8633 126.929 83.8021 126.675 83.6798 126.459C83.5621 126.242 83.3973 126.075 83.1855 125.957C82.9784 125.835 82.7431 125.774 82.4795 125.774C82.2206 125.774 81.9876 125.835 81.7805 125.957C81.5734 126.075 81.4087 126.242 81.2863 126.459C81.1639 126.675 81.1027 126.929 81.1027 127.221C81.1027 127.508 81.1639 127.763 81.2863 127.984C81.4087 128.2 81.5734 128.37 81.7805 128.492C81.9876 128.61 82.2206 128.669 82.4795 128.669ZM83.8775 129.078V127.963L83.9269 127.214L83.8563 126.466V123.839H84.3576V129.078H83.8775ZM87.7074 129.078V124.136H89.8397C90.3904 124.136 90.8164 124.246 91.1176 124.468C91.4236 124.689 91.5766 125.002 91.5766 125.407C91.5766 125.675 91.513 125.901 91.3859 126.084C91.2635 126.268 91.0941 126.407 90.8776 126.501C90.6658 126.595 90.4328 126.642 90.1786 126.642L90.2986 126.473C90.614 126.473 90.8846 126.522 91.1106 126.621C91.3412 126.715 91.5201 126.859 91.6472 127.052C91.7743 127.24 91.8378 127.475 91.8378 127.758C91.8378 128.177 91.6825 128.502 91.3718 128.732C91.0659 128.963 90.6022 129.078 89.9809 129.078H87.7074ZM88.2299 128.647H89.9738C90.4069 128.647 90.7387 128.574 90.9694 128.429C91.2 128.278 91.3153 128.04 91.3153 127.715C91.3153 127.395 91.2 127.162 90.9694 127.016C90.7387 126.866 90.4069 126.791 89.9738 126.791H88.1734V126.36H89.8044C90.1998 126.36 90.5057 126.285 90.7222 126.134C90.9435 125.983 91.0541 125.76 91.0541 125.463C91.0541 125.162 90.9435 124.938 90.7222 124.792C90.5057 124.642 90.1998 124.566 89.8044 124.566H88.2299V128.647ZM92.9244 129.078V123.839H93.4257V129.078H92.9244ZM96.3315 129.113C95.9738 129.113 95.6513 129.033 95.3642 128.873C95.0818 128.709 94.8582 128.485 94.6935 128.203C94.5287 127.916 94.4464 127.588 94.4464 127.221C94.4464 126.849 94.5287 126.522 94.6935 126.24C94.8582 125.957 95.0818 125.736 95.3642 125.576C95.6466 125.416 95.9691 125.336 96.3315 125.336C96.6986 125.336 97.0234 125.416 97.3058 125.576C97.593 125.736 97.8166 125.957 97.9766 126.24C98.1413 126.522 98.2237 126.849 98.2237 127.221C98.2237 127.588 98.1413 127.916 97.9766 128.203C97.8166 128.485 97.593 128.709 97.3058 128.873C97.0187 129.033 96.6939 129.113 96.3315 129.113ZM96.3315 128.669C96.5998 128.669 96.8375 128.61 97.0446 128.492C97.2517 128.37 97.4141 128.2 97.5318 127.984C97.6542 127.763 97.7154 127.508 97.7154 127.221C97.7154 126.929 97.6542 126.675 97.5318 126.459C97.4141 126.242 97.2517 126.075 97.0446 125.957C96.8375 125.835 96.6022 125.774 96.3386 125.774C96.075 125.774 95.8396 125.835 95.6325 125.957C95.4254 126.075 95.2607 126.242 95.1383 126.459C95.0159 126.675 94.9547 126.929 94.9547 127.221C94.9547 127.508 95.0159 127.763 95.1383 127.984C95.2607 128.2 95.4254 128.37 95.6325 128.492C95.8396 128.61 96.0726 128.669 96.3315 128.669ZM100.786 129.113C100.419 129.113 100.09 129.033 99.7979 128.873C99.5107 128.709 99.2848 128.485 99.1201 128.203C98.9553 127.916 98.8729 127.588 98.8729 127.221C98.8729 126.849 98.9553 126.522 99.1201 126.24C99.2848 125.957 99.5107 125.736 99.7979 125.576C100.09 125.416 100.419 125.336 100.786 125.336C101.102 125.336 101.386 125.397 101.641 125.52C101.895 125.642 102.095 125.826 102.241 126.07L101.867 126.325C101.739 126.136 101.582 125.997 101.394 125.908C101.205 125.819 101 125.774 100.779 125.774C100.516 125.774 100.278 125.835 100.066 125.957C99.8543 126.075 99.6872 126.242 99.5649 126.459C99.4425 126.675 99.3813 126.929 99.3813 127.221C99.3813 127.513 99.4425 127.767 99.5649 127.984C99.6872 128.2 99.8543 128.37 100.066 128.492C100.278 128.61 100.516 128.669 100.779 128.669C101 128.669 101.205 128.624 101.394 128.534C101.582 128.445 101.739 128.309 101.867 128.125L102.241 128.379C102.095 128.619 101.895 128.803 101.641 128.93C101.386 129.052 101.102 129.113 100.786 129.113ZM103.566 128.118L103.58 127.475L105.889 125.371H106.503L104.872 126.932L104.59 127.172L103.566 128.118ZM103.17 129.078V123.839H103.672V129.078H103.17ZM106.044 129.078L104.498 127.151L104.823 126.762L106.658 129.078H106.044Z" fill="#737373"/>
<path d="M63.3516 118.276V134.932H19.9072C18.9188 134.932 18.1419 134.933 17.5361 134.852C16.9202 134.769 16.4287 134.595 16.042 134.208C15.6553 133.821 15.4812 133.33 15.3984 132.714C15.317 132.108 15.3184 131.331 15.3184 130.343V122.865C15.3184 121.877 15.317 121.1 15.3984 120.494C15.4812 119.878 15.6553 119.387 16.042 119L16.1914 118.864C16.553 118.571 16.9971 118.429 17.5361 118.356C18.1419 118.275 18.9188 118.276 19.9072 118.276H63.3516Z" fill="#737373" stroke="#737373" stroke-width="0.706046"/>
<path d="M24.5434 129.078V124.489L24.9458 124.905H23.4984V124.136H25.4612V129.078H24.5434ZM27.8749 129.128C27.5595 129.128 27.2559 129.088 26.9641 129.008C26.677 128.923 26.4487 128.822 26.2792 128.704L26.6181 128.033C26.7876 128.141 26.99 128.231 27.2253 128.301C27.4607 128.372 27.696 128.407 27.9314 128.407C28.2091 128.407 28.4091 128.37 28.5315 128.294C28.6586 128.219 28.7222 128.118 28.7222 127.991C28.7222 127.887 28.6798 127.81 28.5951 127.758C28.5103 127.701 28.3997 127.659 28.2632 127.631C28.1267 127.602 27.9738 127.577 27.8043 127.553C27.6396 127.53 27.4725 127.499 27.303 127.461C27.1383 127.419 26.9876 127.36 26.8511 127.285C26.7146 127.205 26.604 127.099 26.5193 126.967C26.4346 126.835 26.3922 126.661 26.3922 126.445C26.3922 126.205 26.4605 125.997 26.597 125.823C26.7335 125.644 26.9241 125.508 27.1689 125.414C27.4183 125.315 27.7125 125.265 28.0514 125.265C28.3056 125.265 28.5621 125.294 28.821 125.35C29.0799 125.407 29.2941 125.487 29.4635 125.59L29.1246 126.261C28.9457 126.153 28.7645 126.08 28.581 126.042C28.4021 126 28.2232 125.979 28.0444 125.979C27.7761 125.979 27.576 126.019 27.4442 126.099C27.3171 126.179 27.2536 126.28 27.2536 126.402C27.2536 126.515 27.2959 126.6 27.3807 126.656C27.4654 126.713 27.576 126.758 27.7125 126.791C27.849 126.823 27.9996 126.852 28.1644 126.875C28.3338 126.894 28.5009 126.925 28.6657 126.967C28.8304 127.009 28.981 127.068 29.1175 127.144C29.2588 127.214 29.3717 127.315 29.4565 127.447C29.5412 127.579 29.5835 127.751 29.5835 127.963C29.5835 128.198 29.5129 128.403 29.3717 128.577C29.2352 128.751 29.0399 128.887 28.7857 128.986C28.5315 129.08 28.2279 129.128 27.8749 129.128ZM31.7627 129.128C31.3485 129.128 31.0285 129.022 30.8025 128.81C30.5766 128.593 30.4636 128.276 30.4636 127.857V124.475H31.3462V127.835C31.3462 128.014 31.3909 128.153 31.4803 128.252C31.5745 128.351 31.7039 128.4 31.8686 128.4C32.0663 128.4 32.2311 128.349 32.3629 128.245L32.61 128.873C32.5064 128.958 32.3794 129.022 32.2287 129.064C32.0781 129.106 31.9228 129.128 31.7627 129.128ZM29.8423 126.042V125.336H32.3558V126.042H29.8423ZM35.372 129.078V124.136H37.6878C38.2809 124.136 38.7328 124.253 39.0435 124.489C39.3541 124.719 39.5094 125.03 39.5094 125.421C39.5094 125.684 39.4482 125.91 39.3259 126.099C39.2035 126.282 39.0387 126.426 38.8316 126.529C38.6292 126.628 38.408 126.678 38.168 126.678L38.295 126.423C38.5728 126.423 38.8222 126.475 39.0435 126.579C39.2647 126.678 39.4388 126.823 39.5659 127.016C39.6977 127.209 39.7636 127.45 39.7636 127.737C39.7636 128.16 39.6012 128.49 39.2764 128.725C38.9517 128.96 38.4692 129.078 37.8291 129.078H35.372ZM36.2899 128.358H37.7726C38.1162 128.358 38.3798 128.301 38.5633 128.189C38.7469 128.076 38.8387 127.894 38.8387 127.645C38.8387 127.4 38.7469 127.221 38.5633 127.108C38.3798 126.991 38.1162 126.932 37.7726 126.932H36.2193V126.219H37.589C37.9091 126.219 38.1538 126.162 38.3233 126.049C38.4974 125.936 38.5845 125.767 38.5845 125.541C38.5845 125.31 38.4974 125.138 38.3233 125.025C38.1538 124.912 37.9091 124.856 37.589 124.856H36.2899V128.358ZM40.6585 129.078V123.839H41.541V129.078H40.6585ZM44.3939 129.128C44.0079 129.128 43.6643 129.045 43.3631 128.88C43.0618 128.711 42.8241 128.48 42.65 128.189C42.4758 127.897 42.3887 127.565 42.3887 127.193C42.3887 126.816 42.4758 126.485 42.65 126.197C42.8241 125.906 43.0618 125.677 43.3631 125.513C43.6643 125.348 44.0079 125.265 44.3939 125.265C44.7846 125.265 45.1305 125.348 45.4318 125.513C45.7377 125.677 45.9754 125.903 46.1449 126.19C46.3191 126.478 46.4061 126.812 46.4061 127.193C46.4061 127.565 46.3191 127.897 46.1449 128.189C45.9754 128.48 45.7377 128.711 45.4318 128.88C45.1305 129.045 44.7846 129.128 44.3939 129.128ZM44.3939 128.372C44.6104 128.372 44.8034 128.325 44.9729 128.231C45.1423 128.137 45.2741 128 45.3682 127.821C45.4671 127.642 45.5165 127.433 45.5165 127.193C45.5165 126.948 45.4671 126.739 45.3682 126.565C45.2741 126.386 45.1423 126.249 44.9729 126.155C44.8034 126.061 44.6128 126.014 44.401 126.014C44.1844 126.014 43.9915 126.061 43.822 126.155C43.6573 126.249 43.5255 126.386 43.4266 126.565C43.3278 126.739 43.2783 126.948 43.2783 127.193C43.2783 127.433 43.3278 127.642 43.4266 127.821C43.5255 128 43.6573 128.137 43.822 128.231C43.9915 128.325 44.1821 128.372 44.3939 128.372ZM48.9799 129.128C48.5845 129.128 48.2315 129.045 47.9208 128.88C47.6149 128.711 47.3748 128.48 47.2007 128.189C47.0265 127.897 46.9394 127.565 46.9394 127.193C46.9394 126.816 47.0265 126.485 47.2007 126.197C47.3748 125.906 47.6149 125.677 47.9208 125.513C48.2315 125.348 48.5845 125.265 48.9799 125.265C49.347 125.265 49.6695 125.341 49.9472 125.491C50.2296 125.637 50.4438 125.854 50.5897 126.141L49.9119 126.536C49.7989 126.357 49.66 126.226 49.4953 126.141C49.3353 126.056 49.1611 126.014 48.9728 126.014C48.7563 126.014 48.561 126.061 48.3868 126.155C48.2127 126.249 48.0762 126.386 47.9773 126.565C47.8785 126.739 47.829 126.948 47.829 127.193C47.829 127.438 47.8785 127.65 47.9773 127.828C48.0762 128.003 48.2127 128.137 48.3868 128.231C48.561 128.325 48.7563 128.372 48.9728 128.372C49.1611 128.372 49.3353 128.33 49.4953 128.245C49.66 128.16 49.7989 128.028 49.9119 127.85L50.5897 128.245C50.4438 128.527 50.2296 128.746 49.9472 128.902C49.6695 129.052 49.347 129.128 48.9799 129.128ZM52.0383 128.238L52.0595 127.129L54.0293 125.308H55.0884L53.4151 126.988L52.9491 127.377L52.0383 128.238ZM51.3181 129.078V123.839H52.2007V129.078H51.3181ZM54.1635 129.078L52.7867 127.377L53.3445 126.671L55.2367 129.078H54.1635Z" fill="white"/>
<defs>
<linearGradient id="paint0_linear_5976_45513" x1="-634.162" y1="-532.286" x2="97.2843" y2="372.949" gradientUnits="userSpaceOnUse">
<stop stop-color="#ECF2E9"/>
<stop offset="1" stop-color="#7DB154"/>
</linearGradient>
<clipPath id="clip0_5976_45513">
<path d="M2 30C2 13.4315 15.4315 0 32 0H234C250.569 0 264 13.4315 264 30V165.515H2V30Z" fill="white"/>
</clipPath>
</defs>
</svg>
