<svg width="263" height="165" viewBox="0 0 263 165" fill="none" xmlns="http://www.w3.org/2000/svg">
<g clip-path="url(#clip0_5976_45387)">
<path d="M0.564453 30C0.564453 13.4315 13.9959 0 30.5645 0H232.564C249.133 0 262.564 13.4315 262.564 30V165H0.564453V30Z" fill="white"/>
<g opacity="0.5">
<path opacity="0.9" d="M-18.9629 -66.3057H264.403V338.154L-18.9629 426.095V-66.3057Z" fill="#ECF2E9"/>
<path opacity="0.9" d="M329.041 15.2508L520.715 223.954L265.1 520.214L-90.8516 321.3L329.041 15.2508Z" fill="url(#paint0_linear_5976_45387)" fill-opacity="0.2"/>
</g>
<path d="M190.79 93.803C193.818 93.803 196.273 91.3827 196.273 88.3971C196.273 85.4115 193.818 82.9912 190.79 82.9912C187.762 82.9912 185.307 85.4115 185.307 88.3971C185.307 91.3827 187.762 93.803 190.79 93.803Z" stroke="#29292D" stroke-width="1.74486" stroke-miterlimit="10"/>
<path d="M194.567 92.3174L197.978 95.6802" stroke="#29292D" stroke-width="1.74486" stroke-miterlimit="10" stroke-linecap="round"/>
<path d="M215.372 86.5444V83.0547M220.955 86.5444V83.0547M213.278 95.6177H223.049C223.419 95.6177 223.774 95.4706 224.036 95.2089C224.298 94.9471 224.445 94.592 224.445 94.2218V85.8465C224.445 85.4763 224.298 85.1212 224.036 84.8594C223.774 84.5976 223.419 84.4506 223.049 84.4506H213.278C212.908 84.4506 212.552 84.5976 212.291 84.8594C212.029 85.1212 211.882 85.4763 211.882 85.8465V94.2218C211.882 94.592 212.029 94.9471 212.291 95.2089C212.552 95.4706 212.908 95.6177 213.278 95.6177Z" stroke="#29292D" stroke-width="1.74486" stroke-linecap="round" stroke-linejoin="round"/>
<rect x="215.371" y="90.0332" width="1.39589" height="1.39589" rx="0.348973" fill="#29292D"/>
<rect x="217.463" y="90.0332" width="1.39589" height="1.39589" rx="0.348973" fill="#29292D"/>
<rect x="219.558" y="90.0332" width="1.39589" height="1.39589" rx="0.348973" fill="#29292D"/>
<path d="M18.2191 94.5072C17.5407 94.5072 16.9084 94.3983 16.3221 94.1806C15.7442 93.9544 15.2417 93.6362 14.8145 93.2258C14.3874 92.8154 14.0524 92.3338 13.8095 91.781C13.575 91.2283 13.4577 90.621 13.4577 89.9594C13.4577 89.2977 13.575 88.6905 13.8095 88.1378C14.0524 87.585 14.3874 87.1034 14.8145 86.693C15.2501 86.2826 15.7568 85.9685 16.3347 85.7508C16.9126 85.5246 17.5449 85.4116 18.2317 85.4116C18.9938 85.4116 19.6806 85.5456 20.292 85.8136C20.9118 86.0732 21.4311 86.4585 21.8498 86.9694L20.5433 88.1754C20.2418 87.8321 19.9067 87.5766 19.5382 87.4091C19.1697 87.2332 18.7677 87.1453 18.3322 87.1453C17.9218 87.1453 17.5449 87.2123 17.2015 87.3463C16.8581 87.4803 16.5608 87.6729 16.3095 87.9242C16.0583 88.1754 15.8615 88.4728 15.7191 88.8162C15.5851 89.1595 15.5181 89.5406 15.5181 89.9594C15.5181 90.3782 15.5851 90.7592 15.7191 91.1026C15.8615 91.446 16.0583 91.7433 16.3095 91.9946C16.5608 92.2459 16.8581 92.4385 17.2015 92.5725C17.5449 92.7065 17.9218 92.7735 18.3322 92.7735C18.7677 92.7735 19.1697 92.6898 19.5382 92.5222C19.9067 92.3464 20.2418 92.0825 20.5433 91.7308L21.8498 92.9368C21.4311 93.4477 20.9118 93.8372 20.292 94.1052C19.6806 94.3732 18.9896 94.5072 18.2191 94.5072ZM23.086 94.3564V87.5975H24.9579V89.5071L24.6941 88.9544C24.8951 88.477 25.2175 88.1168 25.6614 87.8739C26.1053 87.6227 26.6455 87.497 27.2821 87.497V89.3061C27.1983 89.2977 27.1229 89.2936 27.0559 89.2936C26.9889 89.2852 26.9177 89.281 26.8423 89.281C26.3063 89.281 25.8708 89.4359 25.5358 89.7458C25.2092 90.0473 25.0458 90.5205 25.0458 91.1654V94.3564H23.086ZM31.7526 94.4569C30.9821 94.4569 30.3037 94.3062 29.7174 94.0047C29.1395 93.7032 28.6914 93.2928 28.3732 92.7735C28.0549 92.2459 27.8958 91.647 27.8958 90.977C27.8958 90.2986 28.0507 89.6998 28.3606 89.1805C28.6789 88.6528 29.1102 88.2424 29.6546 87.9493C30.199 87.6478 30.8146 87.497 31.5014 87.497C32.163 87.497 32.7577 87.6394 33.2853 87.9242C33.8213 88.2006 34.2443 88.6026 34.5542 89.1302C34.8641 89.6495 35.019 90.2735 35.019 91.0021C35.019 91.0775 35.0148 91.1654 35.0064 91.2659C34.9981 91.3581 34.9897 91.446 34.9813 91.5298H29.4913V90.3865H33.9511L33.1974 90.7257C33.1974 90.374 33.1262 90.0683 32.9838 89.8086C32.8414 89.549 32.6446 89.348 32.3933 89.2056C32.1421 89.0549 31.8489 88.9795 31.5139 88.9795C31.1789 88.9795 30.8816 89.0549 30.6219 89.2056C30.3707 89.348 30.1739 89.5532 30.0315 89.8212C29.8891 90.0808 29.8179 90.3907 29.8179 90.7509V91.0524C29.8179 91.4209 29.8975 91.7475 30.0566 92.0323C30.2241 92.3087 30.4544 92.5222 30.7476 92.673C31.0491 92.8154 31.4009 92.8866 31.8029 92.8866C32.163 92.8866 32.4771 92.8321 32.7451 92.7233C33.0215 92.6144 33.2727 92.4511 33.4989 92.2333L34.5416 93.364C34.2317 93.7157 33.8423 93.9879 33.3732 94.1806C32.9042 94.3648 32.364 94.4569 31.7526 94.4569ZM39.2258 94.4569C38.5893 94.4569 38.0156 94.3146 37.5047 94.0298C36.9938 93.7367 36.5876 93.3305 36.2861 92.8112C35.993 92.2919 35.8464 91.6805 35.8464 90.977C35.8464 90.2651 35.993 89.6495 36.2861 89.1302C36.5876 88.611 36.9938 88.2089 37.5047 87.9242C38.0156 87.6394 38.5893 87.497 39.2258 87.497C39.7954 87.497 40.2937 87.6227 40.7208 87.8739C41.148 88.1252 41.4788 88.5063 41.7133 89.0172C41.9478 89.5281 42.0651 90.1813 42.0651 90.977C42.0651 91.7643 41.952 92.4176 41.7259 92.9368C41.4997 93.4477 41.1731 93.8288 40.746 94.0801C40.3272 94.3313 39.8205 94.4569 39.2258 94.4569ZM39.565 92.8489C39.8833 92.8489 40.1723 92.7735 40.4319 92.6227C40.6915 92.472 40.8967 92.2584 41.0475 91.982C41.2066 91.6973 41.2862 91.3623 41.2862 90.977C41.2862 90.5834 41.2066 90.2483 41.0475 89.972C40.8967 89.6956 40.6915 89.482 40.4319 89.3312C40.1723 89.1805 39.8833 89.1051 39.565 89.1051C39.2384 89.1051 38.9453 89.1805 38.6856 89.3312C38.426 89.482 38.2166 89.6956 38.0575 89.972C37.9067 90.2483 37.8313 90.5834 37.8313 90.977C37.8313 91.3623 37.9067 91.6973 38.0575 91.982C38.2166 92.2584 38.426 92.472 38.6856 92.6227C38.9453 92.7735 39.2384 92.8489 39.565 92.8489ZM41.3364 94.3564V92.9745L41.3741 90.9644L41.2485 88.9669V85.0347H43.2083V94.3564H41.3364ZM45.0222 94.3564V87.5975H46.982V94.3564H45.0222ZM46.0021 86.6553C45.642 86.6553 45.3488 86.5506 45.1227 86.3412C44.8966 86.1319 44.7835 85.8722 44.7835 85.5623C44.7835 85.2524 44.8966 84.9928 45.1227 84.7834C45.3488 84.574 45.642 84.4694 46.0021 84.4694C46.3623 84.4694 46.6554 84.5699 46.8815 84.7709C47.1077 84.9635 47.2207 85.2148 47.2207 85.5246C47.2207 85.8513 47.1077 86.1235 46.8815 86.3412C46.6638 86.5506 46.3706 86.6553 46.0021 86.6553ZM51.5648 94.4569C50.7691 94.4569 50.1493 94.2559 49.7055 93.8539C49.2616 93.4435 49.0396 92.8363 49.0396 92.0323V86.1025H50.9994V92.0072C50.9994 92.2919 51.0748 92.5139 51.2256 92.673C51.3763 92.8238 51.5815 92.8991 51.8412 92.8991C52.1511 92.8991 52.4149 92.8154 52.6326 92.6479L53.1603 94.0298C52.9593 94.1722 52.7164 94.2811 52.4316 94.3564C52.1552 94.4234 51.8663 94.4569 51.5648 94.4569ZM47.9969 89.2559V87.7483H52.6829V89.2559H47.9969ZM56.5343 94.4569C55.9564 94.4569 55.3995 94.3899 54.8635 94.2559C54.3358 94.1136 53.917 93.9377 53.6072 93.7283L54.2604 92.3212C54.5703 92.5139 54.9346 92.673 55.3534 92.7986C55.7806 92.9159 56.1993 92.9745 56.6097 92.9745C57.062 92.9745 57.3802 92.9201 57.5645 92.8112C57.7571 92.7023 57.8535 92.5516 57.8535 92.3589C57.8535 92.1998 57.7781 92.0825 57.6273 92.0072C57.4849 91.9234 57.2923 91.8606 57.0494 91.8187C56.8065 91.7768 56.5385 91.735 56.2454 91.6931C55.9606 91.6512 55.6717 91.5968 55.3785 91.5298C55.0854 91.4544 54.8174 91.3455 54.5745 91.2031C54.3316 91.0607 54.1348 90.8681 53.984 90.6252C53.8417 90.3823 53.7705 90.0683 53.7705 89.683C53.7705 89.2559 53.8919 88.879 54.1348 88.5523C54.3861 88.2257 54.7462 87.9702 55.2152 87.786C55.6842 87.5934 56.2454 87.497 56.8987 87.497C57.3593 87.497 57.8283 87.5473 58.3057 87.6478C58.7831 87.7483 59.1809 87.8949 59.4992 88.0875L58.8459 89.482C58.5193 89.2894 58.1885 89.1595 57.8535 89.0925C57.5268 89.0172 57.2086 88.9795 56.8987 88.9795C56.4631 88.9795 56.1449 89.0381 55.9439 89.1554C55.7429 89.2726 55.6424 89.4234 55.6424 89.6076C55.6424 89.7751 55.7136 89.9008 55.8559 89.9845C56.0067 90.0683 56.2035 90.1353 56.4464 90.1855C56.6893 90.2358 56.9531 90.2818 57.2379 90.3237C57.531 90.3572 57.8241 90.4117 58.1173 90.487C58.4104 90.5624 58.6742 90.6713 58.9087 90.8137C59.1516 90.9477 59.3485 91.1361 59.4992 91.379C59.65 91.6135 59.7253 91.9234 59.7253 92.3087C59.7253 92.7274 59.5997 93.1001 59.3485 93.4268C59.0972 93.745 58.7329 93.9963 58.2555 94.1806C57.7865 94.3648 57.2127 94.4569 56.5343 94.4569Z" fill="black"/>
<path d="M14.8829 105.917H18.4006V106.747H14.8829V105.917ZM14.9709 108.956H18.9575V109.806H13.9938V102.966H18.8207V103.816H14.9709V108.956ZM23.1682 104.578C23.5916 104.578 23.9629 104.659 24.2821 104.822C24.6078 104.985 24.8619 105.233 25.0443 105.565C25.2266 105.897 25.3178 106.317 25.3178 106.825V109.806H24.3798V106.933C24.3798 106.431 24.256 106.054 24.0085 105.799C23.7675 105.545 23.4255 105.418 22.9825 105.418C22.6503 105.418 22.3604 105.484 22.1129 105.614C21.8653 105.744 21.6732 105.936 21.5364 106.19C21.4061 106.444 21.341 106.76 21.341 107.138V109.806H20.4029V104.627H21.3019V106.024L21.1553 105.653C21.3247 105.314 21.5852 105.05 21.937 104.861C22.2888 104.673 22.6992 104.578 23.1682 104.578ZM27.0538 109.806V104.627H27.9528V106.034L27.8649 105.682C28.0082 105.324 28.2492 105.05 28.5879 104.861C28.9267 104.673 29.3436 104.578 29.8386 104.578V105.487C29.7996 105.48 29.7605 105.477 29.7214 105.477C29.6888 105.477 29.6562 105.477 29.6237 105.477C29.1221 105.477 28.7247 105.627 28.4316 105.926C28.1385 106.226 27.9919 106.659 27.9919 107.226V109.806H27.0538ZM33.1651 109.864C32.644 109.864 32.1815 109.75 31.7776 109.522C31.3737 109.294 31.0546 108.982 30.82 108.584C30.5855 108.18 30.4683 107.724 30.4683 107.216C30.4683 106.702 30.5855 106.246 30.82 105.848C31.0546 105.451 31.3737 105.142 31.7776 104.92C32.1815 104.692 32.644 104.578 33.1651 104.578C33.6798 104.578 34.139 104.692 34.5429 104.92C34.9533 105.142 35.2725 105.451 35.5005 105.848C35.735 106.239 35.8522 106.695 35.8522 107.216C35.8522 107.731 35.735 108.187 35.5005 108.584C35.2725 108.982 34.9533 109.294 34.5429 109.522C34.139 109.75 33.6798 109.864 33.1651 109.864ZM33.1651 109.044C33.4974 109.044 33.7938 108.969 34.0543 108.819C34.3214 108.669 34.5299 108.457 34.6797 108.184C34.8295 107.904 34.9044 107.581 34.9044 107.216C34.9044 106.845 34.8295 106.526 34.6797 106.259C34.5299 105.985 34.3214 105.773 34.0543 105.624C33.7938 105.474 33.4974 105.399 33.1651 105.399C32.8329 105.399 32.5365 105.474 32.276 105.624C32.0154 105.773 31.8069 105.985 31.6506 106.259C31.4943 106.526 31.4161 106.845 31.4161 107.216C31.4161 107.581 31.4943 107.904 31.6506 108.184C31.8069 108.457 32.0154 108.669 32.276 108.819C32.5365 108.969 32.8329 109.044 33.1651 109.044ZM37.1495 109.806V102.555H38.0875V109.806H37.1495ZM39.8786 109.806V102.555H40.8166V109.806H39.8786ZM44.9137 109.864C44.36 109.864 43.8714 109.75 43.448 109.522C43.0311 109.294 42.7054 108.982 42.4709 108.584C42.2429 108.187 42.1289 107.731 42.1289 107.216C42.1289 106.702 42.2396 106.246 42.4611 105.848C42.6891 105.451 42.9985 105.142 43.3894 104.92C43.7867 104.692 44.2329 104.578 44.728 104.578C45.2296 104.578 45.6726 104.689 46.0569 104.91C46.4412 105.132 46.7409 105.444 46.9559 105.848C47.1773 106.246 47.2881 106.711 47.2881 107.246C47.2881 107.285 47.2848 107.33 47.2783 107.382C47.2783 107.435 47.2751 107.483 47.2685 107.529H42.8617V106.855H46.78L46.3989 107.089C46.4054 106.757 46.337 106.461 46.1937 106.2C46.0504 105.94 45.8517 105.738 45.5977 105.594C45.3501 105.444 45.0602 105.37 44.728 105.37C44.4023 105.37 44.1124 105.444 43.8584 105.594C43.6043 105.738 43.4056 105.943 43.2623 106.21C43.119 106.47 43.0474 106.77 43.0474 107.109V107.265C43.0474 107.61 43.1255 107.92 43.2819 108.193C43.4447 108.46 43.6695 108.669 43.9561 108.819C44.2427 108.969 44.5717 109.044 44.943 109.044C45.2491 109.044 45.526 108.991 45.7735 108.887C46.0276 108.783 46.2491 108.627 46.438 108.418L46.9559 109.024C46.7213 109.298 46.4282 109.506 46.0764 109.649C45.7312 109.793 45.3436 109.864 44.9137 109.864ZM50.7305 109.864C50.2289 109.864 49.7795 109.754 49.3821 109.532C48.9912 109.311 48.6818 109.001 48.4538 108.604C48.2258 108.206 48.1118 107.744 48.1118 107.216C48.1118 106.689 48.2258 106.229 48.4538 105.839C48.6818 105.441 48.9912 105.132 49.3821 104.91C49.7795 104.689 50.2289 104.578 50.7305 104.578C51.167 104.578 51.5611 104.676 51.9128 104.871C52.2646 105.067 52.5447 105.36 52.7532 105.751C52.9681 106.141 53.0756 106.63 53.0756 107.216C53.0756 107.803 52.9714 108.291 52.7629 108.682C52.561 109.073 52.2842 109.369 51.9324 109.571C51.5806 109.767 51.18 109.864 50.7305 109.864ZM50.8087 109.044C51.1344 109.044 51.4275 108.969 51.6881 108.819C51.9552 108.669 52.1636 108.457 52.3135 108.184C52.4698 107.904 52.548 107.581 52.548 107.216C52.548 106.845 52.4698 106.526 52.3135 106.259C52.1636 105.985 51.9552 105.773 51.6881 105.624C51.4275 105.474 51.1344 105.399 50.8087 105.399C50.4765 105.399 50.1801 105.474 49.9195 105.624C49.659 105.773 49.4505 105.985 49.2942 106.259C49.1378 106.526 49.0596 106.845 49.0596 107.216C49.0596 107.581 49.1378 107.904 49.2942 108.184C49.4505 108.457 49.659 108.669 49.9195 108.819C50.1801 108.969 50.4765 109.044 50.8087 109.044ZM52.5773 109.806V108.408L52.6359 107.207L52.5382 106.005V102.555H53.4762V109.806H52.5773ZM55.4758 105.917C55.2934 105.917 55.1371 105.855 55.0068 105.731C54.8765 105.601 54.8114 105.438 54.8114 105.242C54.8114 105.047 54.8765 104.887 55.0068 104.764C55.1371 104.64 55.2934 104.578 55.4758 104.578C55.6517 104.578 55.8015 104.64 55.9253 104.764C56.0556 104.887 56.1207 105.047 56.1207 105.242C56.1207 105.438 56.0556 105.601 55.9253 105.731C55.8015 105.855 55.6517 105.917 55.4758 105.917ZM55.4758 109.864C55.2934 109.864 55.1371 109.802 55.0068 109.679C54.8765 109.548 54.8114 109.386 54.8114 109.19C54.8114 108.995 54.8765 108.835 55.0068 108.711C55.1371 108.588 55.2934 108.526 55.4758 108.526C55.6517 108.526 55.8015 108.588 55.9253 108.711C56.0556 108.835 56.1207 108.995 56.1207 109.19C56.1207 109.386 56.0556 109.548 55.9253 109.679C55.8015 109.802 55.6517 109.864 55.4758 109.864ZM60.6362 109.806V103.552L61.3202 104.236H59.2682V102.966H62.2191V109.806H60.6362ZM63.3292 108.369V107.304L66.5537 102.966H68.2148L65.0587 107.304L64.2867 107.079H69.6707V108.369H63.3292ZM67.0129 109.806V108.369L67.0618 107.079V105.799H68.5568V109.806H67.0129Z" fill="black"/>
<path d="M16.639 137.45H19.9221V138.72H16.639V137.45ZM16.7563 141.212H15.1733V134.372H20.3423V135.642H16.7563V141.212ZM23.4005 141.29C22.964 141.29 22.5732 141.205 22.2279 141.036C21.8892 140.867 21.6254 140.609 21.4364 140.264C21.2475 139.912 21.1531 139.466 21.1531 138.925V135.955H22.6774V138.701C22.6774 139.137 22.7686 139.46 22.951 139.668C23.1399 139.87 23.4037 139.971 23.7425 139.971C23.977 139.971 24.1854 139.922 24.3678 139.824C24.5502 139.72 24.6935 139.564 24.7978 139.355C24.902 139.14 24.9541 138.873 24.9541 138.554V135.955H26.4784V141.212H25.0323V139.766L25.2961 140.186C25.1202 140.551 24.8596 140.828 24.5144 141.016C24.1756 141.199 23.8043 141.29 23.4005 141.29ZM27.8906 141.212V133.962H29.4149V141.212H27.8906ZM30.8296 141.212V133.962H32.3539V141.212H30.8296ZM38.8907 141.329C38.3435 141.329 37.8191 141.258 37.3175 141.114C36.8159 140.964 36.4121 140.772 36.1059 140.538L36.6433 139.346C36.9364 139.554 37.2817 139.727 37.6791 139.863C38.0829 139.994 38.4901 140.059 38.9005 140.059C39.2131 140.059 39.4639 140.03 39.6528 139.971C39.8483 139.906 39.9916 139.818 40.0828 139.707C40.174 139.596 40.2196 139.469 40.2196 139.326C40.2196 139.144 40.1479 139 40.0046 138.896C39.8613 138.785 39.6724 138.697 39.4379 138.632C39.2034 138.561 38.9428 138.496 38.6562 138.437C38.3761 138.372 38.0927 138.294 37.8061 138.202C37.526 138.111 37.2687 137.994 37.0342 137.851C36.7996 137.707 36.6075 137.518 36.4577 137.284C36.3143 137.049 36.2427 136.75 36.2427 136.385C36.2427 135.994 36.3469 135.639 36.5554 135.32C36.7703 134.994 37.0895 134.737 37.5129 134.548C37.9429 134.353 38.4803 134.255 39.1252 134.255C39.5551 134.255 39.9786 134.307 40.3955 134.411C40.8124 134.509 41.1804 134.659 41.4996 134.861L41.011 136.062C40.6919 135.88 40.3727 135.747 40.0535 135.662C39.7343 135.571 39.4216 135.525 39.1154 135.525C38.8093 135.525 38.5585 135.561 38.363 135.633C38.1676 135.704 38.0276 135.799 37.9429 135.916C37.8582 136.027 37.8159 136.157 37.8159 136.307C37.8159 136.483 37.8875 136.626 38.0308 136.737C38.1741 136.841 38.363 136.926 38.5976 136.991C38.8321 137.056 39.0894 137.121 39.3695 137.186C39.6561 137.251 39.9395 137.326 40.2196 137.411C40.5062 137.496 40.7668 137.61 41.0013 137.753C41.2358 137.896 41.4247 138.085 41.568 138.32C41.7178 138.554 41.7927 138.851 41.7927 139.209C41.7927 139.593 41.6853 139.945 41.4703 140.264C41.2553 140.583 40.9329 140.841 40.5029 141.036C40.0795 141.231 39.5421 141.329 38.8907 141.329ZM45.3758 141.29C44.7765 141.29 44.2489 141.173 43.7929 140.938C43.3434 140.704 42.9949 140.385 42.7474 139.981C42.4998 139.57 42.376 139.105 42.376 138.583C42.376 138.056 42.4966 137.59 42.7376 137.186C42.9851 136.776 43.3206 136.457 43.744 136.229C44.1674 135.994 44.6462 135.877 45.1804 135.877C45.695 135.877 46.1575 135.988 46.5679 136.209C46.9848 136.424 47.3138 136.737 47.5548 137.147C47.7958 137.551 47.9163 138.036 47.9163 138.603C47.9163 138.662 47.9131 138.73 47.9066 138.808C47.9 138.88 47.8935 138.948 47.887 139.013H43.617V138.124H47.0858L46.4995 138.388C46.4995 138.114 46.4441 137.877 46.3334 137.675C46.2227 137.473 46.0696 137.316 45.8741 137.206C45.6787 137.088 45.4507 137.03 45.1902 137.03C44.9296 137.03 44.6983 137.088 44.4964 137.206C44.301 137.316 44.1479 137.476 44.0372 137.684C43.9264 137.886 43.871 138.127 43.871 138.408V138.642C43.871 138.929 43.9329 139.183 44.0567 139.404C44.187 139.619 44.3661 139.785 44.5941 139.903C44.8286 140.013 45.1022 140.069 45.4149 140.069C45.695 140.069 45.9393 140.026 46.1477 139.942C46.3627 139.857 46.5581 139.73 46.734 139.561L47.545 140.44C47.304 140.714 47.0011 140.925 46.6363 141.075C46.2715 141.218 45.8513 141.29 45.3758 141.29ZM55.6635 135.877C56.0805 135.877 56.4485 135.962 56.7677 136.131C57.0934 136.294 57.3475 136.548 57.5299 136.893C57.7188 137.232 57.8132 137.668 57.8132 138.202V141.212H56.2889V138.437C56.2889 138.013 56.201 137.701 56.0251 137.499C55.8492 137.297 55.6017 137.196 55.2825 137.196C55.061 137.196 54.8623 137.248 54.6864 137.352C54.5105 137.45 54.3737 137.6 54.276 137.802C54.1783 138.004 54.1295 138.261 54.1295 138.574V141.212H52.6052V138.437C52.6052 138.013 52.5172 137.701 52.3413 137.499C52.172 137.297 51.9277 137.196 51.6085 137.196C51.387 137.196 51.1883 137.248 51.0124 137.352C50.8366 137.45 50.6998 137.6 50.602 137.802C50.5043 138.004 50.4555 138.261 50.4555 138.574V141.212H48.9312V135.955H50.3871V137.391L50.1135 136.971C50.2959 136.613 50.5532 136.343 50.8854 136.16C51.2241 135.971 51.6085 135.877 52.0384 135.877C52.5205 135.877 52.9406 136.001 53.2989 136.248C53.6637 136.489 53.9047 136.86 54.022 137.362L53.4846 137.215C53.6604 136.805 53.9406 136.479 54.3249 136.238C54.7157 135.997 55.162 135.877 55.6635 135.877ZM61.8266 141.29C61.2273 141.29 60.6996 141.173 60.2437 140.938C59.7942 140.704 59.4457 140.385 59.1981 139.981C58.9506 139.57 58.8268 139.105 58.8268 138.583C58.8268 138.056 58.9473 137.59 59.1884 137.186C59.4359 136.776 59.7714 136.457 60.1948 136.229C60.6182 135.994 61.097 135.877 61.6312 135.877C62.1458 135.877 62.6083 135.988 63.0187 136.209C63.4356 136.424 63.7646 136.737 64.0056 137.147C64.2466 137.551 64.3671 138.036 64.3671 138.603C64.3671 138.662 64.3639 138.73 64.3573 138.808C64.3508 138.88 64.3443 138.948 64.3378 139.013H60.0678V138.124H63.5366L62.9503 138.388C62.9503 138.114 62.8949 137.877 62.7842 137.675C62.6734 137.473 62.5204 137.316 62.3249 137.206C62.1295 137.088 61.9015 137.03 61.6409 137.03C61.3804 137.03 61.1491 137.088 60.9472 137.206C60.7518 137.316 60.5987 137.476 60.4879 137.684C60.3772 137.886 60.3218 138.127 60.3218 138.408V138.642C60.3218 138.929 60.3837 139.183 60.5075 139.404C60.6378 139.619 60.8169 139.785 61.0449 139.903C61.2794 140.013 61.553 140.069 61.8657 140.069C62.1458 140.069 62.3901 140.026 62.5985 139.942C62.8135 139.857 63.0089 139.73 63.1848 139.561L63.9958 140.44C63.7548 140.714 63.4519 140.925 63.0871 141.075C62.7223 141.218 62.3021 141.29 61.8266 141.29ZM67.1505 141.29C66.7011 141.29 66.2679 141.238 65.851 141.134C65.4406 141.023 65.1149 140.886 64.8738 140.723L65.3819 139.629C65.623 139.779 65.9063 139.903 66.232 140C66.5643 140.091 66.89 140.137 67.2092 140.137C67.5609 140.137 67.8085 140.095 67.9518 140.01C68.1016 139.925 68.1765 139.808 68.1765 139.658C68.1765 139.535 68.1179 139.443 68.0006 139.385C67.8899 139.32 67.7401 139.271 67.5512 139.238C67.3623 139.206 67.1538 139.173 66.9258 139.14C66.7043 139.108 66.4796 139.066 66.2516 139.013C66.0236 138.955 65.8151 138.87 65.6262 138.759C65.4373 138.649 65.2842 138.499 65.167 138.31C65.0562 138.121 65.0009 137.877 65.0009 137.577C65.0009 137.245 65.0953 136.952 65.2842 136.698C65.4797 136.444 65.7598 136.245 66.1246 136.102C66.4894 135.952 66.9258 135.877 67.4339 135.877C67.7922 135.877 68.157 135.916 68.5283 135.994C68.8996 136.072 69.209 136.186 69.4566 136.336L68.9484 137.421C68.6944 137.271 68.4371 137.17 68.1765 137.118C67.9225 137.059 67.6749 137.03 67.4339 137.03C67.0952 137.03 66.8476 137.075 66.6913 137.167C66.535 137.258 66.4568 137.375 66.4568 137.518C66.4568 137.649 66.5122 137.746 66.6229 137.812C66.7402 137.877 66.8932 137.929 67.0821 137.968C67.2711 138.007 67.4763 138.043 67.6977 138.075C67.9257 138.101 68.1537 138.144 68.3817 138.202C68.6097 138.261 68.8149 138.346 68.9973 138.456C69.1862 138.561 69.3393 138.707 69.4566 138.896C69.5738 139.079 69.6324 139.32 69.6324 139.619C69.6324 139.945 69.5347 140.235 69.3393 140.489C69.1439 140.736 68.8605 140.932 68.4892 141.075C68.1244 141.218 67.6782 141.29 67.1505 141.29ZM72.7226 141.29C72.1037 141.29 71.6217 141.134 71.2764 140.821C70.9312 140.502 70.7586 140.03 70.7586 139.404V134.792H72.2829V139.385C72.2829 139.606 72.3415 139.779 72.4588 139.903C72.576 140.02 72.7356 140.078 72.9376 140.078C73.1786 140.078 73.3838 140.013 73.5531 139.883L73.9635 140.958C73.8072 141.069 73.6183 141.153 73.3968 141.212C73.1818 141.264 72.9571 141.29 72.7226 141.29ZM69.9476 137.245V136.072H73.5922V137.245H69.9476ZM77.2659 141.29C76.6666 141.29 76.139 141.173 75.683 140.938C75.2335 140.704 74.885 140.385 74.6374 139.981C74.3899 139.57 74.2661 139.105 74.2661 138.583C74.2661 138.056 74.3866 137.59 74.6277 137.186C74.8752 136.776 75.2107 136.457 75.6341 136.229C76.0575 135.994 76.5363 135.877 77.0705 135.877C77.5851 135.877 78.0476 135.988 78.458 136.209C78.8749 136.424 79.2039 136.737 79.4449 137.147C79.6859 137.551 79.8064 138.036 79.8064 138.603C79.8064 138.662 79.8032 138.73 79.7967 138.808C79.7901 138.88 79.7836 138.948 79.7771 139.013H75.5071V138.124H78.9759L78.3896 138.388C78.3896 138.114 78.3342 137.877 78.2235 137.675C78.1127 137.473 77.9597 137.316 77.7642 137.206C77.5688 137.088 77.3408 137.03 77.0803 137.03C76.8197 137.03 76.5884 137.088 76.3865 137.206C76.1911 137.316 76.038 137.476 75.9272 137.684C75.8165 137.886 75.7611 138.127 75.7611 138.408V138.642C75.7611 138.929 75.823 139.183 75.9468 139.404C76.0771 139.619 76.2562 139.785 76.4842 139.903C76.7187 140.013 76.9923 140.069 77.305 140.069C77.5851 140.069 77.8294 140.026 78.0378 139.942C78.2528 139.857 78.4482 139.73 78.6241 139.561L79.4351 140.44C79.1941 140.714 78.8912 140.925 78.5264 141.075C78.1616 141.218 77.7414 141.29 77.2659 141.29ZM80.8213 141.212V135.955H82.2772V137.44L82.072 137.01C82.2283 136.639 82.4791 136.359 82.8244 136.17C83.1696 135.975 83.5898 135.877 84.0848 135.877V137.284C84.0197 137.277 83.9611 137.274 83.909 137.274C83.8569 137.268 83.8015 137.264 83.7429 137.264C83.326 137.264 82.9872 137.385 82.7266 137.626C82.4726 137.86 82.3456 138.228 82.3456 138.73V141.212H80.8213Z" fill="#414147"/>
<path d="M249.722 85.2513C249.645 85.1403 249.543 85.0496 249.423 84.987C249.304 84.9243 249.171 84.8916 249.036 84.8915H237.628L236.665 82.5794C236.539 82.2749 236.325 82.0148 236.051 81.832C235.776 81.6493 235.454 81.552 235.124 81.5527H233.177V83.2221H235.124L239.084 92.7251C239.147 92.8772 239.254 93.0071 239.392 93.0984C239.529 93.1897 239.69 93.2385 239.854 93.2385H246.532C246.88 93.2385 247.191 93.0223 247.314 92.6976L249.818 86.02C249.866 85.8937 249.881 85.7577 249.865 85.6238C249.848 85.4899 249.799 85.3621 249.722 85.2513ZM245.954 91.5691H240.411L238.324 86.5609H247.832L245.954 91.5691Z" fill="#29292D"/>
<path d="M240.272 96.5774C240.963 96.5774 241.524 96.0169 241.524 95.3254C241.524 94.6339 240.963 94.0733 240.272 94.0733C239.58 94.0733 239.02 94.6339 239.02 95.3254C239.02 96.0169 239.58 96.5774 240.272 96.5774Z" fill="#29292D"/>
<path d="M246.114 96.5774C246.805 96.5774 247.366 96.0169 247.366 95.3254C247.366 94.6339 246.805 94.0733 246.114 94.0733C245.422 94.0733 244.862 94.6339 244.862 95.3254C244.862 96.0169 245.422 96.5774 246.114 96.5774Z" fill="#29292D"/>
<path d="M234.058 82.3866C234.058 82.8471 233.685 83.2204 233.224 83.2204C232.764 83.2204 232.391 82.8471 232.391 82.3866C232.391 81.9261 232.764 81.5527 233.224 81.5527C233.685 81.5527 234.058 81.9261 234.058 82.3866Z" fill="#29292D"/>
<rect x="205.076" y="134.703" width="12.563" height="8.37534" rx="2.09384" fill="#ECCE64"/>
<path d="M222.287 141.703L220.654 136.818H221.373L222.873 141.326H222.511L224.067 136.818H224.709L226.231 141.326H225.882L227.403 136.818H228.066L226.433 141.703H225.7L224.276 137.522H224.465L223.034 141.703H222.287ZM230.839 141.703V140.921L230.804 140.775V139.442C230.804 139.158 230.72 138.939 230.553 138.786C230.39 138.628 230.143 138.548 229.813 138.548C229.594 138.548 229.38 138.586 229.171 138.66C228.962 138.73 228.785 138.825 228.641 138.946L228.361 138.444C228.552 138.29 228.78 138.174 229.045 138.095C229.315 138.011 229.597 137.969 229.89 137.969C230.397 137.969 230.788 138.092 231.062 138.339C231.337 138.586 231.474 138.963 231.474 139.47V141.703H230.839ZM229.625 141.745C229.35 141.745 229.108 141.698 228.899 141.605C228.694 141.512 228.536 141.384 228.424 141.222C228.312 141.054 228.257 140.866 228.257 140.656C228.257 140.456 228.303 140.275 228.396 140.112C228.494 139.949 228.65 139.819 228.864 139.721C229.083 139.623 229.376 139.574 229.743 139.574H230.916V140.056H229.771C229.436 140.056 229.211 140.112 229.094 140.223C228.978 140.335 228.92 140.47 228.92 140.628C228.92 140.81 228.992 140.956 229.136 141.068C229.28 141.175 229.48 141.229 229.736 141.229C229.988 141.229 230.206 141.173 230.392 141.061C230.583 140.949 230.72 140.786 230.804 140.572L230.937 141.033C230.848 141.252 230.692 141.426 230.469 141.557C230.246 141.682 229.964 141.745 229.625 141.745ZM232.714 141.703V138.004H233.384V141.703H232.714ZM233.049 137.292C232.919 137.292 232.81 137.25 232.721 137.166C232.637 137.083 232.595 136.98 232.595 136.859C232.595 136.734 232.637 136.629 232.721 136.545C232.81 136.462 232.919 136.42 233.049 136.42C233.179 136.42 233.286 136.462 233.37 136.545C233.459 136.624 233.503 136.724 233.503 136.845C233.503 136.971 233.461 137.078 233.377 137.166C233.293 137.25 233.184 137.292 233.049 137.292ZM235.934 141.745C235.561 141.745 235.273 141.645 235.068 141.445C234.864 141.245 234.761 140.959 234.761 140.586V137.194H235.431V140.558C235.431 140.759 235.48 140.912 235.578 141.019C235.68 141.126 235.824 141.18 236.01 141.18C236.22 141.18 236.394 141.122 236.534 141.005L236.743 141.487C236.641 141.575 236.518 141.64 236.373 141.682C236.234 141.724 236.087 141.745 235.934 141.745ZM234.133 138.555V138.004H236.492V138.555H234.133ZM237.553 141.703V136.524H238.223V141.703H237.553ZM239.503 141.703V138.004H240.173V141.703H239.503ZM239.838 137.292C239.707 137.292 239.598 137.25 239.51 137.166C239.426 137.083 239.384 136.98 239.384 136.859C239.384 136.734 239.426 136.629 239.51 136.545C239.598 136.462 239.707 136.42 239.838 136.42C239.968 136.42 240.075 136.462 240.159 136.545C240.247 136.624 240.291 136.724 240.291 136.845C240.291 136.971 240.25 137.078 240.166 137.166C240.082 137.25 239.973 137.292 239.838 137.292ZM242.513 141.745C242.206 141.745 241.913 141.703 241.634 141.619C241.359 141.536 241.143 141.433 240.984 141.312L241.264 140.782C241.422 140.889 241.617 140.98 241.85 141.054C242.083 141.128 242.32 141.166 242.562 141.166C242.874 141.166 243.097 141.122 243.232 141.033C243.371 140.945 243.441 140.821 243.441 140.663C243.441 140.547 243.399 140.456 243.316 140.391C243.232 140.326 243.12 140.277 242.981 140.244C242.846 140.212 242.694 140.184 242.527 140.161C242.359 140.133 242.192 140.1 242.024 140.063C241.857 140.021 241.703 139.965 241.564 139.895C241.424 139.821 241.312 139.721 241.229 139.595C241.145 139.465 241.103 139.293 241.103 139.079C241.103 138.856 241.166 138.66 241.292 138.493C241.417 138.325 241.594 138.197 241.822 138.109C242.055 138.016 242.329 137.969 242.646 137.969C242.888 137.969 243.132 137.999 243.378 138.06C243.63 138.116 243.834 138.197 243.993 138.304L243.706 138.835C243.539 138.723 243.364 138.646 243.183 138.604C243.002 138.562 242.82 138.541 242.639 138.541C242.345 138.541 242.127 138.59 241.983 138.688C241.838 138.781 241.766 138.902 241.766 139.051C241.766 139.177 241.808 139.274 241.892 139.344C241.98 139.409 242.092 139.46 242.227 139.498C242.366 139.535 242.52 139.567 242.687 139.595C242.855 139.619 243.022 139.651 243.19 139.693C243.357 139.73 243.509 139.784 243.644 139.854C243.783 139.923 243.895 140.021 243.979 140.147C244.067 140.272 244.111 140.44 244.111 140.649C244.111 140.873 244.046 141.066 243.916 141.229C243.786 141.391 243.602 141.519 243.364 141.612C243.127 141.701 242.843 141.745 242.513 141.745ZM246.219 141.745C245.847 141.745 245.558 141.645 245.353 141.445C245.149 141.245 245.046 140.959 245.046 140.586V137.194H245.716V140.558C245.716 140.759 245.765 140.912 245.863 141.019C245.965 141.126 246.11 141.18 246.296 141.18C246.505 141.18 246.68 141.122 246.819 141.005L247.028 141.487C246.926 141.575 246.803 141.64 246.659 141.682C246.519 141.724 246.372 141.745 246.219 141.745ZM244.418 138.555V138.004H246.777V138.555H244.418Z" fill="#29292D"/>
<line x1="0.564453" y1="65.8235" x2="262.564" y2="65.8235" stroke="#E0E0E0" stroke-width="0.353023"/>
<path d="M100.521 37.7287H103.185C103.437 37.7287 103.563 37.8547 103.563 38.1067V48.9247C103.563 49.1767 103.437 49.3027 103.185 49.3027H101.709C101.457 49.3027 101.331 49.1767 101.331 48.9247V40.3927H101.259L99.4229 46.4227C99.3509 46.6627 99.2009 46.7827 98.9729 46.7827H97.4609C97.2329 46.7827 97.0829 46.6627 97.0109 46.4227L95.1389 40.3747H95.0669V48.9247C95.0669 49.0687 95.0429 49.1707 94.9949 49.2307C94.9469 49.2787 94.8449 49.3027 94.6889 49.3027H93.2129C92.9609 49.3027 92.8349 49.1767 92.8349 48.9247V38.1067C92.8349 37.8547 92.9609 37.7287 93.2129 37.7287H95.8949C96.0629 37.7287 96.1769 37.8127 96.2369 37.9807L98.1449 44.3347H98.2529L100.179 37.9807C100.215 37.8127 100.329 37.7287 100.521 37.7287ZM110.143 49.3027H108.613C108.361 49.3027 108.235 49.1767 108.235 48.9247V45.0727L104.941 38.1247C104.893 38.0167 104.893 37.9267 104.941 37.8547C105.001 37.7707 105.085 37.7287 105.193 37.7287H107.101C107.293 37.7287 107.437 37.8547 107.533 38.1067L109.333 42.4807H109.459L111.223 38.1067C111.307 37.8547 111.451 37.7287 111.655 37.7287H113.563C113.683 37.7287 113.767 37.7647 113.815 37.8367C113.875 37.9087 113.875 38.0047 113.815 38.1247L110.521 45.0727V48.9247C110.521 49.1767 110.395 49.3027 110.143 49.3027ZM119.946 49.3027H117.984C117.036 49.3027 116.304 49.0507 115.788 48.5467C115.272 48.0427 115.014 47.3167 115.014 46.3687V40.6627C115.014 39.7147 115.272 38.9887 115.788 38.4847C116.304 37.9807 117.036 37.7287 117.984 37.7287H119.946C120.882 37.7287 121.608 37.9867 122.124 38.5027C122.652 39.0067 122.916 39.7267 122.916 40.6627V41.5087C122.916 41.7727 122.784 41.9047 122.52 41.9047H121.008C120.756 41.9047 120.63 41.7727 120.63 41.5087V40.7707C120.63 40.3867 120.546 40.1167 120.378 39.9607C120.222 39.7927 119.952 39.7087 119.568 39.7087H118.344C117.972 39.7087 117.702 39.7927 117.534 39.9607C117.378 40.1167 117.3 40.3867 117.3 40.7707V46.2607C117.3 46.6447 117.378 46.9207 117.534 47.0887C117.702 47.2447 117.972 47.3227 118.344 47.3227H119.568C119.952 47.3227 120.222 47.2447 120.378 47.0887C120.546 46.9207 120.63 46.6447 120.63 46.2607V45.5227C120.63 45.2587 120.756 45.1267 121.008 45.1267H122.52C122.784 45.1267 122.916 45.2587 122.916 45.5227V46.3687C122.916 47.3047 122.652 48.0307 122.124 48.5467C121.608 49.0507 120.882 49.3027 119.946 49.3027ZM131.18 49.3027H125.258C125.006 49.3027 124.88 49.1767 124.88 48.9247V38.1067C124.88 37.8547 125.006 37.7287 125.258 37.7287H126.788C127.04 37.7287 127.166 37.8547 127.166 38.1067V47.1067C127.166 47.2387 127.238 47.3047 127.382 47.3047H131.18C131.42 47.3047 131.54 47.4367 131.54 47.7007V48.9247C131.54 49.1767 131.42 49.3027 131.18 49.3027ZM134.172 49.3027H132.444C132.228 49.3027 132.156 49.1767 132.228 48.9247L135.072 38.1067C135.156 37.8547 135.336 37.7287 135.612 37.7287H138.006C138.306 37.7287 138.486 37.8547 138.546 38.1067L141.39 48.9247C141.462 49.1767 141.39 49.3027 141.174 49.3027H139.446C139.314 49.3027 139.224 49.2787 139.176 49.2307C139.128 49.1707 139.092 49.0687 139.068 48.9247L138.564 46.9447H135.054L134.55 48.9247C134.526 49.0687 134.484 49.1707 134.424 49.2307C134.376 49.2787 134.292 49.3027 134.172 49.3027ZM136.782 39.9067L135.486 45.1087H138.15L136.854 39.9067H136.782ZM142.697 46.3507V45.9907C142.697 45.7387 142.823 45.6127 143.075 45.6127H144.605C144.857 45.6127 144.983 45.7387 144.983 45.9907V46.1347C144.983 46.5907 145.073 46.9027 145.253 47.0707C145.433 47.2387 145.763 47.3227 146.243 47.3227H147.089C147.557 47.3227 147.881 47.2327 148.061 47.0527C148.253 46.8727 148.349 46.5367 148.349 46.0447V45.8287C148.349 45.4807 148.205 45.2167 147.917 45.0367C147.641 44.8447 147.293 44.7307 146.873 44.6947C146.453 44.6587 145.997 44.5927 145.505 44.4967C145.025 44.3887 144.575 44.2567 144.155 44.1007C143.735 43.9327 143.381 43.6147 143.093 43.1467C142.817 42.6667 142.679 42.0547 142.679 41.3107V40.6807C142.679 39.7447 142.943 39.0187 143.471 38.5027C143.999 37.9867 144.731 37.7287 145.667 37.7287H147.467C148.415 37.7287 149.153 37.9867 149.681 38.5027C150.209 39.0187 150.473 39.7447 150.473 40.6807V41.0227C150.473 41.2747 150.347 41.4007 150.095 41.4007H148.565C148.313 41.4007 148.187 41.2747 148.187 41.0227V40.9147C148.187 40.4467 148.097 40.1287 147.917 39.9607C147.737 39.7927 147.407 39.7087 146.927 39.7087H146.225C145.733 39.7087 145.397 39.8047 145.217 39.9967C145.049 40.1767 144.965 40.5367 144.965 41.0767V41.4187C144.965 41.9827 145.457 42.3067 146.441 42.3907C147.461 42.4747 148.367 42.6787 149.159 43.0027C149.579 43.1827 149.927 43.5067 150.203 43.9747C150.491 44.4307 150.635 45.0187 150.635 45.7387V46.3507C150.635 47.2867 150.371 48.0127 149.843 48.5287C149.315 49.0447 148.583 49.3027 147.647 49.3027H145.685C144.749 49.3027 144.017 49.0447 143.489 48.5287C142.961 48.0127 142.697 47.2867 142.697 46.3507ZM152.4 46.3507V45.9907C152.4 45.7387 152.526 45.6127 152.778 45.6127H154.308C154.56 45.6127 154.686 45.7387 154.686 45.9907V46.1347C154.686 46.5907 154.776 46.9027 154.956 47.0707C155.136 47.2387 155.466 47.3227 155.946 47.3227H156.792C157.26 47.3227 157.584 47.2327 157.764 47.0527C157.956 46.8727 158.052 46.5367 158.052 46.0447V45.8287C158.052 45.4807 157.908 45.2167 157.62 45.0367C157.344 44.8447 156.996 44.7307 156.576 44.6947C156.156 44.6587 155.7 44.5927 155.208 44.4967C154.728 44.3887 154.278 44.2567 153.858 44.1007C153.438 43.9327 153.084 43.6147 152.796 43.1467C152.52 42.6667 152.382 42.0547 152.382 41.3107V40.6807C152.382 39.7447 152.646 39.0187 153.174 38.5027C153.702 37.9867 154.434 37.7287 155.37 37.7287H157.17C158.118 37.7287 158.856 37.9867 159.384 38.5027C159.912 39.0187 160.176 39.7447 160.176 40.6807V41.0227C160.176 41.2747 160.05 41.4007 159.798 41.4007H158.268C158.016 41.4007 157.89 41.2747 157.89 41.0227V40.9147C157.89 40.4467 157.8 40.1287 157.62 39.9607C157.44 39.7927 157.11 39.7087 156.63 39.7087H155.928C155.436 39.7087 155.1 39.8047 154.92 39.9967C154.752 40.1767 154.668 40.5367 154.668 41.0767V41.4187C154.668 41.9827 155.16 42.3067 156.144 42.3907C157.164 42.4747 158.07 42.6787 158.862 43.0027C159.282 43.1827 159.63 43.5067 159.906 43.9747C160.194 44.4307 160.338 45.0187 160.338 45.7387V46.3507C160.338 47.2867 160.074 48.0127 159.546 48.5287C159.018 49.0447 158.286 49.3027 157.35 49.3027H155.388C154.452 49.3027 153.72 49.0447 153.192 48.5287C152.664 48.0127 152.4 47.2867 152.4 46.3507ZM168.656 49.3027H162.77C162.518 49.3027 162.392 49.1767 162.392 48.9247V38.1067C162.392 37.8547 162.518 37.7287 162.77 37.7287H168.656C168.896 37.7287 169.016 37.8547 169.016 38.1067V39.3307C169.016 39.5827 168.896 39.7087 168.656 39.7087H164.894C164.75 39.7087 164.678 39.7747 164.678 39.9067V42.2467C164.678 42.3787 164.75 42.4447 164.894 42.4447H167.972C168.224 42.4447 168.35 42.5707 168.35 42.8227V44.0467C168.35 44.2987 168.224 44.4247 167.972 44.4247H164.894C164.75 44.4247 164.678 44.4907 164.678 44.6227V47.1247C164.678 47.2567 164.75 47.3227 164.894 47.3227H168.656C168.896 47.3227 169.016 47.4487 169.016 47.7007V48.9247C169.016 49.1767 168.896 49.3027 168.656 49.3027ZM170.717 46.3507V45.9907C170.717 45.7387 170.843 45.6127 171.095 45.6127H172.625C172.877 45.6127 173.003 45.7387 173.003 45.9907V46.1347C173.003 46.5907 173.093 46.9027 173.273 47.0707C173.453 47.2387 173.783 47.3227 174.263 47.3227H175.109C175.577 47.3227 175.901 47.2327 176.081 47.0527C176.273 46.8727 176.369 46.5367 176.369 46.0447V45.8287C176.369 45.4807 176.225 45.2167 175.937 45.0367C175.661 44.8447 175.313 44.7307 174.893 44.6947C174.473 44.6587 174.017 44.5927 173.525 44.4967C173.045 44.3887 172.595 44.2567 172.175 44.1007C171.755 43.9327 171.401 43.6147 171.113 43.1467C170.837 42.6667 170.699 42.0547 170.699 41.3107V40.6807C170.699 39.7447 170.963 39.0187 171.491 38.5027C172.019 37.9867 172.751 37.7287 173.687 37.7287H175.487C176.435 37.7287 177.173 37.9867 177.701 38.5027C178.229 39.0187 178.493 39.7447 178.493 40.6807V41.0227C178.493 41.2747 178.367 41.4007 178.115 41.4007H176.585C176.333 41.4007 176.207 41.2747 176.207 41.0227V40.9147C176.207 40.4467 176.117 40.1287 175.937 39.9607C175.757 39.7927 175.427 39.7087 174.947 39.7087H174.245C173.753 39.7087 173.417 39.8047 173.237 39.9967C173.069 40.1767 172.985 40.5367 172.985 41.0767V41.4187C172.985 41.9827 173.477 42.3067 174.461 42.3907C175.481 42.4747 176.387 42.6787 177.179 43.0027C177.599 43.1827 177.947 43.5067 178.223 43.9747C178.511 44.4307 178.655 45.0187 178.655 45.7387V46.3507C178.655 47.2867 178.391 48.0127 177.863 48.5287C177.335 49.0447 176.603 49.3027 175.667 49.3027H173.705C172.769 49.3027 172.037 49.0447 171.509 48.5287C170.981 48.0127 170.717 47.2867 170.717 46.3507Z" fill="#275D38"/>
<path d="M222.096 38.3525C223.962 38.3525 226.636 39.7055 226.636 43.9996C226.636 46.1761 227.009 47.7055 227.88 48.7055C228.067 48.882 227.942 49.1761 227.631 49.1761H222.033H216.435C216.186 49.1761 216.062 48.882 216.186 48.7055C217.057 47.7643 217.431 46.1761 217.431 43.9996C217.555 39.7055 220.23 38.3525 222.096 38.3525Z" stroke="#29292D" stroke-width="1.41209" stroke-miterlimit="10"/>
<path d="M222.718 38H221.412V37.5294C221.412 37.2353 221.661 37 221.972 37H222.159C222.47 37 222.718 37.2353 222.718 37.5294V38V38Z" fill="#29292D"/>
<path d="M221.039 50.2354C221.163 50.6471 221.599 51.0001 222.096 51.0001C222.594 51.0001 223.029 50.7059 223.154 50.2354H221.039Z" fill="#29292D"/>
<path d="M23.6165 48V41.7H26.5685C27.3245 41.7 27.9005 41.85 28.2965 42.15C28.6925 42.444 28.8905 42.84 28.8905 43.338C28.8905 43.674 28.8125 43.962 28.6565 44.202C28.5005 44.436 28.2905 44.619 28.0265 44.751C27.7685 44.877 27.4865 44.94 27.1805 44.94L27.3425 44.616C27.6965 44.616 28.0145 44.682 28.2965 44.814C28.5785 44.94 28.8005 45.126 28.9625 45.372C29.1305 45.618 29.2145 45.924 29.2145 46.29C29.2145 46.83 29.0075 47.25 28.5935 47.55C28.1795 47.85 27.5645 48 26.7485 48H23.6165ZM24.7865 47.082H26.6765C27.1145 47.082 27.4505 47.01 27.6845 46.866C27.9185 46.722 28.0355 46.491 28.0355 46.173C28.0355 45.861 27.9185 45.633 27.6845 45.489C27.4505 45.339 27.1145 45.264 26.6765 45.264H24.6965V44.355H26.4425C26.8505 44.355 27.1625 44.283 27.3785 44.139C27.6005 43.995 27.7115 43.779 27.7115 43.491C27.7115 43.197 27.6005 42.978 27.3785 42.834C27.1625 42.69 26.8505 42.618 26.4425 42.618H24.7865V47.082ZM33.3162 48V47.028L33.2532 46.821V45.12C33.2532 44.79 33.1542 44.535 32.9562 44.355C32.7582 44.169 32.4582 44.076 32.0562 44.076C31.7862 44.076 31.5192 44.118 31.2552 44.202C30.9972 44.286 30.7782 44.403 30.5982 44.553L30.1572 43.734C30.4152 43.536 30.7212 43.389 31.0752 43.293C31.4352 43.191 31.8072 43.14 32.1912 43.14C32.8872 43.14 33.4242 43.308 33.8022 43.644C34.1862 43.974 34.3782 44.487 34.3782 45.183V48H33.3162ZM31.8042 48.063C31.4442 48.063 31.1292 48.003 30.8592 47.883C30.5892 47.757 30.3792 47.586 30.2292 47.37C30.0852 47.148 30.0132 46.899 30.0132 46.623C30.0132 46.353 30.0762 46.11 30.2022 45.894C30.3342 45.678 30.5472 45.507 30.8412 45.381C31.1352 45.255 31.5252 45.192 32.0112 45.192H33.4062V45.939H32.0922C31.7082 45.939 31.4502 46.002 31.3182 46.128C31.1862 46.248 31.1202 46.398 31.1202 46.578C31.1202 46.782 31.2012 46.944 31.3632 47.064C31.5252 47.184 31.7502 47.244 32.0382 47.244C32.3142 47.244 32.5602 47.181 32.7762 47.055C32.9982 46.929 33.1572 46.743 33.2532 46.497L33.4422 47.172C33.3342 47.454 33.1392 47.673 32.8572 47.829C32.5812 47.985 32.2302 48.063 31.8042 48.063ZM38.0358 48.063C37.5318 48.063 37.0818 47.958 36.6858 47.748C36.2958 47.532 35.9898 47.238 35.7678 46.866C35.5458 46.494 35.4348 46.071 35.4348 45.597C35.4348 45.117 35.5458 44.694 35.7678 44.328C35.9898 43.956 36.2958 43.665 36.6858 43.455C37.0818 43.245 37.5318 43.14 38.0358 43.14C38.5038 43.14 38.9148 43.236 39.2688 43.428C39.6288 43.614 39.9018 43.89 40.0878 44.256L39.2238 44.76C39.0798 44.532 38.9028 44.364 38.6928 44.256C38.4888 44.148 38.2668 44.094 38.0268 44.094C37.7508 44.094 37.5018 44.154 37.2798 44.274C37.0578 44.394 36.8838 44.568 36.7578 44.796C36.6318 45.018 36.5688 45.285 36.5688 45.597C36.5688 45.909 36.6318 46.179 36.7578 46.407C36.8838 46.629 37.0578 46.8 37.2798 46.92C37.5018 47.04 37.7508 47.1 38.0268 47.1C38.2668 47.1 38.4888 47.046 38.6928 46.938C38.9028 46.83 39.0798 46.662 39.2238 46.434L40.0878 46.938C39.9018 47.298 39.6288 47.577 39.2688 47.775C38.9148 47.967 38.5038 48.063 38.0358 48.063ZM41.9343 46.929L41.9613 45.516L44.4723 43.194H45.8223L43.6893 45.336L43.0953 45.831L41.9343 46.929ZM41.0163 48V41.322H42.1413V48H41.0163ZM44.6433 48L42.8883 45.831L43.5993 44.931L46.0113 48H44.6433Z" fill="#29292D"/>
<path fill-rule="evenodd" clip-rule="evenodd" d="M18.9596 47.974C18.8542 48.0794 18.7112 48.1385 18.5621 48.1385C18.4131 48.1385 18.2701 48.0794 18.1646 47.974L15.1646 44.974C15.0593 44.8686 15.0001 44.7256 15.0001 44.5765C15.0001 44.4275 15.0593 44.2845 15.1646 44.179L18.1646 41.179C18.2161 41.1238 18.2782 41.0794 18.3472 41.0487C18.4162 41.018 18.4907 41.0014 18.5662 41.0001C18.6418 40.9988 18.7168 41.0126 18.7868 41.0409C18.8569 41.0692 18.9205 41.1113 18.9739 41.1648C19.0273 41.2182 19.0694 41.2818 19.0977 41.3518C19.126 41.4219 19.1399 41.4969 19.1386 41.5724C19.1373 41.648 19.1207 41.7224 19.09 41.7914C19.0592 41.8604 19.0149 41.9225 18.9596 41.974L16.3571 44.5765L18.9596 47.179C19.065 47.2845 19.1241 47.4275 19.1241 47.5765C19.1241 47.7256 19.065 47.8686 18.9596 47.974Z" fill="#29292D"/>
</g>
<defs>
<linearGradient id="paint0_linear_5976_45387" x1="-635.598" y1="-532.287" x2="95.8488" y2="372.948" gradientUnits="userSpaceOnUse">
<stop stop-color="#ECF2E9"/>
<stop offset="1" stop-color="#7DB154"/>
</linearGradient>
<clipPath id="clip0_5976_45387">
<path d="M0.564453 30C0.564453 13.4315 13.9959 0 30.5645 0H232.564C249.133 0 262.564 13.4315 262.564 30V165H0.564453V30Z" fill="white"/>
</clipPath>
</defs>
</svg>
